<svg id="구성_요소_6_1" data-name="구성 요소 6 – 1" xmlns="http://www.w3.org/2000/svg" width="10.862" height="319.951" viewBox="0 0 10.862 319.951">
  <path id="패스_1258" data-name="패스 1258" d="M7.772-2.967a2.831,2.831,0,0,1-.523,1.7A3.1,3.1,0,0,1,5.783-.185a6.449,6.449,0,0,1-2.27.355A7.413,7.413,0,0,1,.7-.349V-3.035a5.563,5.563,0,0,0,1.36.728,4,4,0,0,0,1.388.277A1.37,1.37,0,0,0,4.2-2.2a.57.57,0,0,0,.267-.509.69.69,0,0,0-.133-.42,1.309,1.309,0,0,0-.4-.338,7.512,7.512,0,0,0-1-.431Q.561-4.812.561-6.843a2.747,2.747,0,0,1,1.08-2.273,4.556,4.556,0,0,1,2.9-.851q.513,0,.943.041t.783.1q.352.062.988.232v2.5a5.048,5.048,0,0,0-2.434-.677,1.5,1.5,0,0,0-.793.185.568.568,0,0,0-.3.506.634.634,0,0,0,.243.509,4.55,4.55,0,0,0,1.015.523A5.629,5.629,0,0,1,7.14-4.7,2.568,2.568,0,0,1,7.772-2.967ZM18.293-4.929a5.427,5.427,0,0,1-.636,2.642A4.533,4.533,0,0,1,15.88-.475a5.1,5.1,0,0,1-2.557.646,5.1,5.1,0,0,1-2.512-.625,4.427,4.427,0,0,1-1.76-1.757,5.179,5.179,0,0,1-.629-2.56,5.649,5.649,0,0,1,.636-2.693,4.517,4.517,0,0,1,1.784-1.849,5.19,5.19,0,0,1,2.611-.653,5.044,5.044,0,0,1,2.519.625,4.264,4.264,0,0,1,1.716,1.784A5.594,5.594,0,0,1,18.293-4.929Zm-3.131.082A3.4,3.4,0,0,0,14.7-6.754a1.452,1.452,0,0,0-1.271-.7,1.608,1.608,0,0,0-1.374.67,3.153,3.153,0,0,0-.492,1.894,3.116,3.116,0,0,0,.489,1.866,1.559,1.559,0,0,0,1.33.67,1.522,1.522,0,0,0,.923-.3,1.927,1.927,0,0,0,.636-.861A3.563,3.563,0,0,0,15.162-4.847ZM26.53,0,23.071-4.73a11.275,11.275,0,0,1-.67-1.012h-.027q.041.725.041,1.627V0H19.681V-9.8H22.47l3.315,4.5q.062.089.15.212t.178.253q.089.13.167.253a1.556,1.556,0,0,1,.12.219h.027a8.884,8.884,0,0,1-.041-1.039V-9.8h2.734V0Zm13.1-.643a6.321,6.321,0,0,1-1.654.564,9.5,9.5,0,0,1-2.1.25A5.666,5.666,0,0,1,31.9-1.118,4.662,4.662,0,0,1,30.5-4.73,5.382,5.382,0,0,1,31.209-7.5,4.592,4.592,0,0,1,33.2-9.338a6.818,6.818,0,0,1,3.028-.629,11.269,11.269,0,0,1,2.728.362v2.577a5.8,5.8,0,0,0-1.3-.427,7.214,7.214,0,0,0-1.36-.12,2.6,2.6,0,0,0-1.938.731,2.738,2.738,0,0,0-.721,2.01,2.807,2.807,0,0,0,.6,1.914,2.131,2.131,0,0,0,1.692.69,3.663,3.663,0,0,0,.745-.055v-1.4H34.8V-5.92h4.833Zm13.819,0A6.321,6.321,0,0,1,51.8-.079a9.5,9.5,0,0,1-2.1.25,5.666,5.666,0,0,1-3.979-1.289,4.662,4.662,0,0,1-1.4-3.613A5.382,5.382,0,0,1,45.028-7.5a4.592,4.592,0,0,1,1.993-1.839,6.818,6.818,0,0,1,3.028-.629,11.269,11.269,0,0,1,2.728.362v2.577a5.8,5.8,0,0,0-1.3-.427,7.214,7.214,0,0,0-1.36-.12,2.6,2.6,0,0,0-1.938.731,2.738,2.738,0,0,0-.721,2.01,2.807,2.807,0,0,0,.6,1.914,2.131,2.131,0,0,0,1.692.69,3.663,3.663,0,0,0,.745-.055v-1.4H48.62V-5.92h4.833ZM63.591-4.478a4.961,4.961,0,0,1-1.077,3.5A4.355,4.355,0,0,1,59.2.171,4.166,4.166,0,0,1,56.02-.974a4.853,4.853,0,0,1-1.083-3.449V-9.8H57.9v5.489a2.538,2.538,0,0,0,.352,1.453,1.152,1.152,0,0,0,1.008.509,1.165,1.165,0,0,0,1.008-.479,2.41,2.41,0,0,0,.345-1.415V-9.8h2.974ZM72.259,0,68.8-4.73a11.275,11.275,0,0,1-.67-1.012H68.1q.041.725.041,1.627V0H65.41V-9.8H68.2l3.315,4.5q.062.089.15.212t.178.253q.089.13.167.253a1.556,1.556,0,0,1,.12.219h.027a8.884,8.884,0,0,1-.041-1.039V-9.8H74.85V0Zm14.5,0V-3.657H83.371V0H80.418V-9.8h2.953v3.63h3.391V-9.8h2.953V0Zm14.212-4.929a5.427,5.427,0,0,1-.636,2.642A4.533,4.533,0,0,1,98.56-.475,5.1,5.1,0,0,1,96,.171a5.1,5.1,0,0,1-2.512-.625,4.427,4.427,0,0,1-1.76-1.757,5.179,5.179,0,0,1-.629-2.56,5.649,5.649,0,0,1,.636-2.693,4.517,4.517,0,0,1,1.784-1.849,5.19,5.19,0,0,1,2.611-.653,5.044,5.044,0,0,1,2.519.625,4.264,4.264,0,0,1,1.716,1.784A5.594,5.594,0,0,1,100.973-4.929Zm-3.131.082a3.4,3.4,0,0,0-.465-1.907,1.452,1.452,0,0,0-1.271-.7,1.608,1.608,0,0,0-1.374.67,3.153,3.153,0,0,0-.492,1.894,3.116,3.116,0,0,0,.489,1.866,1.559,1.559,0,0,0,1.33.67,1.522,1.522,0,0,0,.923-.3,1.927,1.927,0,0,0,.636-.861A3.563,3.563,0,0,0,97.842-4.847Z" transform="translate(10.679 320.512) rotate(-90)"/>
  <path id="패스_1259" data-name="패스 1259" d="M10.188-4.8A5.315,5.315,0,0,1,9.034-1.044,4.666,4.666,0,0,1,5.479.183a4.464,4.464,0,0,1-3.4-1.227,5.2,5.2,0,0,1-1.161-3.7V-10.5H4.094v5.881a2.72,2.72,0,0,0,.377,1.556,1.234,1.234,0,0,0,1.08.546,1.248,1.248,0,0,0,1.08-.513A2.582,2.582,0,0,0,7-4.548V-10.5h3.186ZM19.475,0,15.769-5.068a12.08,12.08,0,0,1-.718-1.084h-.029q.044.776.044,1.743V0h-2.93V-10.5h2.988l3.552,4.819q.066.1.161.227t.19.271q.1.139.179.271a1.667,1.667,0,0,1,.128.234h.029a9.519,9.519,0,0,1-.044-1.113V-10.5h2.93V0Zm4.841,0V-10.5H27.48V0ZM35.53,0H31.978L28.586-10.5h3.406l1.6,6.467a7.23,7.23,0,0,1,.212,1.172h.073a8.082,8.082,0,0,1,.227-1.216l1.56-6.423h3.3Zm4.548,0V-10.5h6.541v2.476H43.242V-6.5h3.171v2.476H43.242v1.545H46.86V0ZM53.8,0,53.02-2.263a2.814,2.814,0,0,0-.59-1.047,1.076,1.076,0,0,0-.787-.381h-.125V0H48.354V-10.5h4.2a5.829,5.829,0,0,1,3.256.721,2.451,2.451,0,0,1,1.051,2.164A2.738,2.738,0,0,1,56.254-5.8a3.485,3.485,0,0,1-1.82,1.062v.029a2.543,2.543,0,0,1,1.11.667,4.123,4.123,0,0,1,.795,1.37L57.371,0Zm-.3-7.17a1.1,1.1,0,0,0-.322-.835,1.423,1.423,0,0,0-1.011-.308h-.652v2.4h.571a1.451,1.451,0,0,0,1.025-.359A1.175,1.175,0,0,0,53.5-7.17ZM65.881-3.179a3.034,3.034,0,0,1-.56,1.824A3.321,3.321,0,0,1,63.75-.2a6.91,6.91,0,0,1-2.432.381A7.943,7.943,0,0,1,58.3-.374V-3.252a5.96,5.96,0,0,0,1.458.78,4.287,4.287,0,0,0,1.487.3,1.468,1.468,0,0,0,.806-.187.611.611,0,0,0,.286-.546.74.74,0,0,0-.143-.45,1.4,1.4,0,0,0-.432-.363,8.049,8.049,0,0,0-1.073-.461q-2.534-.974-2.534-3.149a2.943,2.943,0,0,1,1.157-2.435,4.881,4.881,0,0,1,3.105-.912q.549,0,1.011.044t.839.11q.377.066,1.058.249V-7.6a5.408,5.408,0,0,0-2.607-.725,1.609,1.609,0,0,0-.85.2.609.609,0,0,0-.322.542.68.68,0,0,0,.26.546,4.875,4.875,0,0,0,1.088.56A6.031,6.031,0,0,1,65.2-5.039,2.752,2.752,0,0,1,65.881-3.179ZM67.163,0V-10.5h3.164V0ZM77.7-8.027V0H74.524V-8.027H71.587V-10.5h9.089v2.476Zm9.6,4.38V0H84.141V-3.6L80.9-10.5h3.633l1.135,3.3a4.264,4.264,0,0,1,.165.586q.048.249.106.505h.029a6.659,6.659,0,0,1,.212-1.033L87.3-10.5h3.347Zm16.864-3.391a3.416,3.416,0,0,1-.546,1.912,3.556,3.556,0,0,1-1.556,1.293,5.65,5.65,0,0,1-2.351.458h-.967V0H95.585V-10.5h4.307a5.1,5.1,0,0,1,3.248.842A3.192,3.192,0,0,1,104.169-7.039Zm-3.347.11a1.231,1.231,0,0,0-.374-.974,1.614,1.614,0,0,0-1.1-.33h-.6V-5.64h.71Q100.821-5.64,100.821-6.929ZM112.218,0V-3.918h-3.633V0h-3.164V-10.5h3.164v3.889h3.633V-10.5h3.164V0Zm15.227-5.281a5.814,5.814,0,0,1-.681,2.831,4.857,4.857,0,0,1-1.9,1.941,5.464,5.464,0,0,1-2.739.692,5.469,5.469,0,0,1-2.692-.67,4.743,4.743,0,0,1-1.886-1.882,5.549,5.549,0,0,1-.674-2.743A6.053,6.053,0,0,1,117.55-8a4.839,4.839,0,0,1,1.912-1.981,5.561,5.561,0,0,1,2.8-.7,5.4,5.4,0,0,1,2.7.67A4.569,4.569,0,0,1,126.8-8.1,5.993,5.993,0,0,1,127.445-5.281Zm-3.354.088a3.646,3.646,0,0,0-.5-2.043,1.556,1.556,0,0,0-1.362-.747,1.723,1.723,0,0,0-1.472.718,3.378,3.378,0,0,0-.527,2.029,3.339,3.339,0,0,0,.524,2,1.671,1.671,0,0,0,1.425.718,1.631,1.631,0,0,0,.989-.322,2.064,2.064,0,0,0,.681-.923A3.818,3.818,0,0,0,124.09-5.193Zm10.151-2.834V0h-3.179V-8.027h-2.937V-10.5h9.089v2.476Zm14.224,2.747a5.814,5.814,0,0,1-.681,2.831,4.857,4.857,0,0,1-1.9,1.941,5.464,5.464,0,0,1-2.739.692,5.469,5.469,0,0,1-2.692-.67,4.743,4.743,0,0,1-1.886-1.882,5.549,5.549,0,0,1-.674-2.743A6.053,6.053,0,0,1,138.57-8a4.839,4.839,0,0,1,1.912-1.981,5.561,5.561,0,0,1,2.8-.7,5.4,5.4,0,0,1,2.7.67A4.569,4.569,0,0,1,147.817-8.1,5.993,5.993,0,0,1,148.465-5.281Zm-3.354.088a3.646,3.646,0,0,0-.5-2.043,1.556,1.556,0,0,0-1.362-.747,1.723,1.723,0,0,0-1.472.718,3.378,3.378,0,0,0-.527,2.029,3.339,3.339,0,0,0,.524,2,1.671,1.671,0,0,0,1.425.718,1.631,1.631,0,0,0,.989-.322,2.064,2.064,0,0,0,.681-.923A3.818,3.818,0,0,0,145.111-5.193ZM160.437,0l-.461-1.934h-3.135L156.342,0h-3.42l3.618-10.5h3.926L163.872,0Zm-1.992-8.218h-.073a5.1,5.1,0,0,1-.1.579q-.088.4-.886,3.457h2.007l-.732-2.856A9.033,9.033,0,0,1,158.445-8.218ZM177.063,0H173.7l-1.458-5.984a10.378,10.378,0,0,1-.146-1.274h-.029a10.086,10.086,0,0,1-.212,1.274L170.28,0h-3.56l-2.5-10.5h3.472l.879,6.182q.022.117.066.681l.044.608h.044q.015-.19.088-.648a6.137,6.137,0,0,1,.139-.685l1.619-6.138h3.45l1.348,6.226.1.623.073.608h.029l.022-.256.1-1.018.916-6.182h3.12Zm13.828-5.281a5.814,5.814,0,0,1-.681,2.831,4.857,4.857,0,0,1-1.9,1.941,5.464,5.464,0,0,1-2.739.692,5.469,5.469,0,0,1-2.692-.67,4.743,4.743,0,0,1-1.886-1.882,5.549,5.549,0,0,1-.674-2.743A6.053,6.053,0,0,1,181-8a4.839,4.839,0,0,1,1.912-1.981,5.561,5.561,0,0,1,2.8-.7,5.4,5.4,0,0,1,2.7.67A4.569,4.569,0,0,1,190.243-8.1,5.993,5.993,0,0,1,190.891-5.281Zm-3.354.088a3.646,3.646,0,0,0-.5-2.043,1.556,1.556,0,0,0-1.362-.747,1.723,1.723,0,0,0-1.472.718,3.378,3.378,0,0,0-.527,2.029,3.339,3.339,0,0,0,.524,2,1.671,1.671,0,0,0,1.425.718,1.631,1.631,0,0,0,.989-.322,2.064,2.064,0,0,0,.681-.923A3.818,3.818,0,0,0,187.536-5.193ZM197.827,0l-.784-2.263a2.814,2.814,0,0,0-.59-1.047,1.076,1.076,0,0,0-.787-.381h-.125V0h-3.164V-10.5h4.2a5.829,5.829,0,0,1,3.256.721,2.451,2.451,0,0,1,1.051,2.164,2.738,2.738,0,0,1-.612,1.816,3.485,3.485,0,0,1-1.82,1.062v.029a2.543,2.543,0,0,1,1.11.667,4.123,4.123,0,0,1,.795,1.37L201.394,0Zm-.3-7.17a1.1,1.1,0,0,0-.322-.835,1.423,1.423,0,0,0-1.011-.308h-.652v2.4h.571a1.451,1.451,0,0,0,1.025-.359A1.175,1.175,0,0,0,197.527-7.17Zm14.985,1.787a5.8,5.8,0,0,1-.67,2.823,4.618,4.618,0,0,1-1.915,1.893A5.991,5.991,0,0,1,207.055,0H202.61V-10.5h4.351Q212.512-10.5,212.512-5.383Zm-3.362.029a3.023,3.023,0,0,0-.311-1.384,2.252,2.252,0,0,0-.89-.952,2.659,2.659,0,0,0-1.362-.337h-.813v5.552h.886a2.28,2.28,0,0,0,1.813-.78A3.089,3.089,0,0,0,209.15-5.354Z" transform="translate(10.679 212.512) rotate(-90)"/>
</svg>
