<svg id="구성_요소_19_1" data-name="구성 요소 19 – 1" xmlns="http://www.w3.org/2000/svg" width="32" height="32" viewBox="0 0 32 32">
  <circle id="타원_39" data-name="타원 39" cx="16" cy="16" r="16"/>
  <g id="facebook-logo" transform="translate(11.561 6.742)">
    <path id="패스_919" data-name="패스 919" d="M131.739,6.466v-1.7a3.747,3.747,0,0,1,.036-.593,1.151,1.151,0,0,1,.162-.413.66.66,0,0,1,.407-.281,2.9,2.9,0,0,1,.749-.078h1.7V0h-2.718a4.425,4.425,0,0,0-3.389,1.12,4.716,4.716,0,0,0-1.03,3.3V6.466h-2.036v3.4h2.036v9.867h4.084V9.867h2.718l.359-3.4Z" transform="translate(-125.619)" fill="#fff"/>
  </g>
</svg>
