<svg id="구성_요소_44_1" data-name="구성 요소 44 – 1" xmlns="http://www.w3.org/2000/svg" width="260.52" height="68.328" viewBox="0 0 260.52 68.328">
  <path id="패스_1346" data-name="패스 1346" d="M48.75-18.8l16.458,1.56V4.836H24.414l-3.822,1.95L16.77,4.836h-.078V-16.848l-4.29-.468V-18.8l16.458,1.56v9.906H53.04v-9.516l-4.29-.468ZM53.04-5.85H28.86v9.2H53.04ZM65.052-59.982v39.7H52.884V-38.22H38.61v-2.5H52.884v-18.8l-4.29-.546v-1.482Zm-25.9,19.11,12.4,16.77h-4.29L37.05-38.142a26.358,26.358,0,0,1-5.109,4.836A62.292,62.292,0,0,1,25-28.821a56.151,56.151,0,0,1-7.527,3.51A34.342,34.342,0,0,1,10.53-23.4L8.112-24.8a27.672,27.672,0,0,0,5.148-3.7,58.936,58.936,0,0,0,4.914-4.953q2.34-2.652,4.368-5.421a58.731,58.731,0,0,0,3.471-5.265,46.425,46.425,0,0,0,2.3-4.446,8.222,8.222,0,0,0,.858-2.886H18.408l-3.276,1.4-3.276-1.4h-.312v-1.482h33.15q-.858,2.418-1.794,4.68-.858,1.95-1.833,4.017A22.875,22.875,0,0,1,39.156-40.872ZM136.5-17.94H106.86V4.212H94.692V-17.94H67.938v-1.482h60.918l3.822-1.95,3.822,1.95ZM106.47-52.962a29.845,29.845,0,0,1-.157,3.276,14.886,14.886,0,0,1-.55,2.691q-.392,1.287-.981,2.769t-1.374,3.432L125.97-24.18h-4.836L101.367-37.518a13.841,13.841,0,0,1-5.059,5.148,41.763,41.763,0,0,1-7.388,3.588,83.651,83.651,0,0,1-8,2.535q-4.017,1.053-6.981,2.067l-1.17-2.184Q83.46-34.164,88.8-40.131T94.3-51.4H92.04v-1.56h14.43Zm90.48,44.85h.078V-6.63H160.914V3.2h28.47l3.822-1.95,3.822,1.95V4.68H147.264V-8.112h37.518v-7.956H154.908l-3.822,2.028-3.822-2.028v-1.4H196.95Zm-.468-51.87v39.7H184.314V-59.514l-4.29-.546v-1.482ZM167-55.146q0,2.184-.156,3.783t-.429,3.12a30.474,30.474,0,0,1-.78,3.237q-.507,1.716-1.209,4.056l16.068,17.628h-4.6L162.708-37.128a14.268,14.268,0,0,1-4.1,5.85,25.56,25.56,0,0,1-5.85,3.705,42.451,42.451,0,0,1-6.435,2.34q-3.276.9-5.928,1.833l-2.028-2.5a96.41,96.41,0,0,0,7.449-8.229,49.362,49.362,0,0,0,4.68-6.942,25.376,25.376,0,0,0,2.457-6.2,29.243,29.243,0,0,0,.78-6.006H151.71v-1.872H167Zm85.878-6.006,15.756,1.56V2.652H257.166V-31.59H250.38V2.652H238.914V-59.2l-4.29-.468v-1.482l15.756,1.565v25.5h6.786V-59.2l-4.29-.469Zm-14.82,9.438v1.482h-6.474V-14.82l-.156,1.482h6.63v1.482H197.808v-1.482h5.07V-50.232h-5.07v-1.482h40.248ZM220.35-13.338V-50.232h-6.318V-14.82l-.078,1.482Z" transform="translate(-8.112 61.542)" fill="#0d0d0d"/>
</svg>
