<svg id="구성_요소_46_1" data-name="구성 요소 46 – 1" xmlns="http://www.w3.org/2000/svg" width="551.325" height="712.592" viewBox="0 0 551.325 712.592">
  <path id="패스_1348" data-name="패스 1348" d="M919.488,265.719v-54.44a125.247,125.247,0,0,1-80.859-60.189h0a23.789,23.789,0,0,1-14.22,4.68H781.179A178.549,178.549,0,0,0,919.488,265.719Z" transform="translate(-368.163 -126.731)" fill="#242424"/>
  <path id="패스_1349" data-name="패스 1349" d="M919.488,208.159v-52.3a29.121,29.121,0,0,0-29.13-29.13h-41.97v5.05a23.917,23.917,0,0,1-7.4,17.329A122.3,122.3,0,0,0,919.488,208.159Z" transform="translate(-368.163 -126.731)" fill="#242424"/>
  <path id="패스_1350" data-name="패스 1350" d="M717.6,155.771H690.568a23.987,23.987,0,0,1-23.98-23.99v-5.05h-39.38a29.128,29.128,0,0,0-29.13,29.133v648.2a29.079,29.079,0,0,0,29.13,29.11h263.15a28.349,28.349,0,0,0,3.59-.22,29.146,29.146,0,0,0,25.54-28.89V326.889C823.779,315.8,744.029,247.509,717.6,155.771Z" transform="translate(-368.163 -126.731)" fill="#242424"/>
  <path id="패스_1351" data-name="패스 1351" d="M777.9,155.771h-57.14c26.3,90.039,104.68,157.028,198.729,168.068v-55.02A181.668,181.668,0,0,1,777.9,155.771Z" transform="translate(-368.163 -126.731)" fill="#242424"/>
  <path id="패스_1352" data-name="패스 1352" d="M693.367,823.15c.725-.72,17.928-18.142,32.511-59.48,13.378-37.925,26.878-104.061,15.213-203.762-22.1-188.876,91.228-309.247,92.377-310.441l-3.355-3.221c-.291.3-29.429,30.933-55.354,84.706a416.28,416.28,0,0,0-38.288,229.5c22.062,188.554-45.7,258.719-46.385,259.406Z" transform="translate(-368.163 -126.731)" opacity="0.1"/>
  <circle id="타원_89" data-name="타원 89" cx="30.222" cy="30.222" r="30.222" transform="translate(469.88 59.126)" opacity="0.1"/>
  <circle id="타원_90" data-name="타원 90" cx="30.222" cy="30.222" r="30.222" transform="translate(350.815 144.923)" opacity="0.1"/>
  <circle id="타원_91" data-name="타원 91" cx="30.222" cy="30.222" r="30.222" transform="translate(396.406 232.633)" opacity="0.1"/>
  <circle id="타원_92" data-name="타원 92" cx="30.222" cy="30.222" r="30.222" transform="translate(304.73 274.863)" opacity="0.1"/>
  <circle id="타원_93" data-name="타원 93" cx="30.222" cy="30.222" r="30.222" transform="translate(380.941 393.981)" opacity="0.1"/>
  <path id="패스_1353" data-name="패스 1353" d="M675.366,819.9s47.005-65.1-27.84-140.81Z" transform="translate(-368.163 -126.731)" opacity="0.1"/>
  <path id="패스_1354" data-name="패스 1354" d="M711.794,827.405s32.127-73.591,135.385-47.681Z" transform="translate(-368.163 -126.731)" opacity="0.1"/>
  <rect id="사각형_259" data-name="사각형 259" width="254" height="55" rx="26" transform="translate(264.08 439.882)" fill="#f98244"/>
  <path id="패스_1355" data-name="패스 1355" d="M709.82,460.64a76.314,76.314,0,1,1,35.408,28.43,24.686,24.686,0,1,1-35.408-28.43Z" transform="translate(-379.163 -126.731)" fill="#fff"/>
  <path id="패스_1357" data-name="패스 1357" d="M423.666,520.331s-8.135,34.862-1.162,34.862,20.918-16.269,20.918-16.269v-9.3Z" transform="translate(-368.163 -126.731)" fill="#ffb8b8"/>
  <path id="패스_1358" data-name="패스 1358" d="M160,428.858,139.086,461.4h15.107Z" transform="translate(-87.65 -66.053)" fill="#d0cde1"/>
  <rect id="사각형_260" data-name="사각형 260" width="27.89" height="23.242" transform="translate(59.571 646.353)" fill="#ffb8b8"/>
  <path id="패스_1359" data-name="패스 1359" d="M236.7,708.92l5.811,26.728,29.052-6.973-6.973-23.241Z" transform="translate(-87.65 -66.053)" fill="#ffb8b8"/>
  <path id="패스_1360" data-name="패스 1360" d="M430.058,529.046s-9.3,4.648-10.459,25.566,3.486,75.535,3.486,75.535-4.648,24.4,0,46.483-4.648,102.263,1.162,102.263,36.025,3.486,37.187,0,2.324-55.78,2.324-55.78,9.3-26.728,0-43c0,0,20.918,17.431,20.918,22.08s22.08,76.7,32.538,77.86,39.511-1.162,33.7-11.621-19.755-58.1-19.755-58.1-10.459-34.862-29.052-49.969l9.3-74.373s19.755-49.97,8.135-56.942S430.058,529.046,430.058,529.046Z" transform="translate(-368.163 -126.731)" fill="#242424"/>
  <circle id="타원_94" data-name="타원 94" cx="30.214" cy="30.214" r="30.214" transform="translate(66.544 152.467)" fill="#ffb8b8"/>
  <path id="패스_1361" data-name="패스 1361" d="M449.813,328.006s11.621,38.349,8.135,43,37.186-25.566,37.186-25.566-15.107-10.459-9.3-25.566Z" transform="translate(-368.163 -126.731)" fill="#ffb8b8"/>
  <path id="패스_1362" data-name="패스 1362" d="M498.62,341.951S484.675,346.6,477.7,354.734s-23.242,9.3-23.242,9.3-14.382,8.1-19.755,22.079c-5.727,14.9-2.4,35.877,0,40.673,4.648,9.3,4.648,32.538,4.648,32.538l-5.81,53.456s-20.918,19.755-4.648,22.08,45.321-1.162,62.753,0,37.187,3.486,31.376-8.135-12.783-19.755-5.81-43c5.456-18.187,5.22-86.187,4.859-114.9a23.118,23.118,0,0,0-11.228-19.536Z" transform="translate(-368.163 -126.731)" fill="#d0cde1"/>
  <path id="패스_1363" data-name="패스 1363" d="M453.3,519.75s-5.287,11.641-5.81,18.593c-4.067,54.037,25.566,0,25.566,0v-9.3Z" transform="translate(-368.163 -126.731)" fill="#ffb8b8"/>
  <path id="패스_1364" data-name="패스 1364" d="M534.645,787.029s-17.431-12.783-17.431-5.81-19.755,34.862-19.755,34.862-32.538,23.242-5.81,23.242S530,834.674,530,834.674l27.89-18.593s6.972-8.135,4.648-17.431-10.459-22.08-10.459-22.08S542.78,789.353,534.645,787.029Z" transform="translate(-368.163 -126.731)" fill="#242424"/>
  <path id="패스_1365" data-name="패스 1365" d="M432.382,790.515s-2.324-11.621-10.459-5.81-30.214,23.242-30.214,23.242-40.673,9.3-15.107,20.917,83.67-4.648,83.67-4.648,2.324-37.187,0-36.025S433.544,792.839,432.382,790.515Z" transform="translate(-368.163 -126.731)" fill="#242424"/>
  <path id="패스_1366" data-name="패스 1366" d="M201.258,317.879l3.486,70.887-33.781,68.419-5.73-2.18L200.1,391.09Z" transform="translate(-87.65 -66.053)" opacity="0.1"/>
  <path id="패스_1367" data-name="패스 1367" d="M509.079,357.058l8.716-1.743s26.147,19.174,18.012,57.523-44.159,96.453-44.159,96.453-8.135,10.459-10.459,12.783-6.973,0-4.648,3.486-3.486,5.81-3.486,5.81-25.566,0-23.242-9.3,41.835-75.535,41.835-75.535l-5.81-61.59S481.189,354.734,509.079,357.058Z" transform="translate(-368.163 -126.731)" fill="#d0cde1"/>
  <path id="패스_1368" data-name="패스 1368" d="M239.607,403.873v-8.135L200.1,460.815Z" transform="translate(-87.65 -66.053)" opacity="0.1"/>
  <path id="패스_1369" data-name="패스 1369" d="M443.481,281.423l-4.995-2s10.444-11.5,24.975-10.5l-4.087-4.5s9.99-4,19.072,6.5c4.774,5.519,10.3,12.006,13.741,19.313h5.349l-2.233,4.916,7.814,4.916-8.02-.883a27.2,27.2,0,0,1-.759,12.732l.215,3.885s-9.3-14.384-9.3-16.384v5s-4.995-4.5-4.995-7.5l-2.724,3.5-1.362-5.5-16.8,5.5,2.724-4.5-10.444,1.5,4.087-5.5s-11.806,6.5-12.26,12-6.357,12.5-6.357,12.5l-2.724-5S430.312,288.922,443.481,281.423Z" transform="translate(-368.163 -126.731)" fill="#242424"/>
  <path id="패스_1371" data-name="패스 1371" d="M14.164-16.912h-8v5.127h6.686a2,2,0,0,1,1.388.417,1.433,1.433,0,0,1,.458,1.114,1.4,1.4,0,0,1-.465,1.107,2.032,2.032,0,0,1-1.381.41H6.166v6.6A2.658,2.658,0,0,1,5.6-.267,1.9,1.9,0,0,1,4.143.342a1.908,1.908,0,0,1-1.47-.615,2.662,2.662,0,0,1-.567-1.859V-17.555a3.379,3.379,0,0,1,.26-1.429,1.613,1.613,0,0,1,.813-.807,3.42,3.42,0,0,1,1.415-.253h9.57a2.083,2.083,0,0,1,1.442.431,1.455,1.455,0,0,1,.472,1.128,1.472,1.472,0,0,1-.472,1.142A2.083,2.083,0,0,1,14.164-16.912ZM27.433-1.764A11.559,11.559,0,0,1,24.815-.185a7.319,7.319,0,0,1-2.837.526,5.375,5.375,0,0,1-2.522-.567,4.152,4.152,0,0,1-1.675-1.538,3.991,3.991,0,0,1-.588-2.105,3.769,3.769,0,0,1,.971-2.611A4.854,4.854,0,0,1,20.83-7.93q.355-.082,1.764-.369t2.413-.526q1-.239,2.181-.581a3.892,3.892,0,0,0-.595-2.167,2.659,2.659,0,0,0-2.181-.69,4.544,4.544,0,0,0-2.14.4,3.474,3.474,0,0,0-1.23,1.189,12.647,12.647,0,0,1-.725,1.046,1.189,1.189,0,0,1-.909.253,1.59,1.59,0,0,1-1.087-.4,1.314,1.314,0,0,1-.458-1.032,3.157,3.157,0,0,1,.7-1.914,4.986,4.986,0,0,1,2.174-1.531,9.794,9.794,0,0,1,3.678-.6,10.409,10.409,0,0,1,3.869.581,3.6,3.6,0,0,1,1.989,1.839,8.042,8.042,0,0,1,.581,3.336q0,1.313-.007,2.229T30.824-4.84a7.505,7.505,0,0,0,.349,2.194,6.927,6.927,0,0,1,.349,1.47,1.375,1.375,0,0,1-.54,1.046,1.81,1.81,0,0,1-1.224.472A1.65,1.65,0,0,1,28.623-.2,8.015,8.015,0,0,1,27.433-1.764Zm-.246-5.4a18.792,18.792,0,0,1-2.386.636q-1.565.335-2.167.492a2.95,2.95,0,0,0-1.148.615,1.576,1.576,0,0,0-.547,1.278A1.893,1.893,0,0,0,21.582-2.7a2.377,2.377,0,0,0,1.682.595,4.376,4.376,0,0,0,2.044-.485,3.239,3.239,0,0,0,1.374-1.251,5.714,5.714,0,0,0,.506-2.789Zm10.344-5.551V-1.928A2.409,2.409,0,0,1,37-.232a1.767,1.767,0,0,1-1.354.574,1.685,1.685,0,0,1-1.333-.588A2.482,2.482,0,0,1,33.8-1.928V-12.605a2.4,2.4,0,0,1,.513-1.668,1.723,1.723,0,0,1,1.333-.561A1.787,1.787,0,0,1,37-14.273,2.17,2.17,0,0,1,37.531-12.715ZM35.685-16.57a1.97,1.97,0,0,1-1.333-.479A1.692,1.692,0,0,1,33.8-18.4a1.682,1.682,0,0,1,.567-1.306,1.907,1.907,0,0,1,1.319-.513,1.956,1.956,0,0,1,1.285.465,1.658,1.658,0,0,1,.561,1.354,1.707,1.707,0,0,1-.547,1.347A1.892,1.892,0,0,1,35.685-16.57ZM40.546-1.928V-18.115a2.518,2.518,0,0,1,.5-1.7,1.693,1.693,0,0,1,1.347-.574,1.766,1.766,0,0,1,1.367.567,2.446,2.446,0,0,1,.52,1.7V-1.928a2.425,2.425,0,0,1-.526,1.7,1.771,1.771,0,0,1-1.36.567,1.685,1.685,0,0,1-1.333-.588A2.482,2.482,0,0,1,40.546-1.928Zm17.166-4.4h-7.3a4.956,4.956,0,0,0,.513,2.242A3.52,3.52,0,0,0,52.25-2.625a3.5,3.5,0,0,0,1.825.492A4.471,4.471,0,0,0,55.3-2.29a3.986,3.986,0,0,0,1.073-.492,8.187,8.187,0,0,0,.957-.718q.438-.383,1.135-1.039a1.225,1.225,0,0,1,.82-.246,1.351,1.351,0,0,1,.93.314,1.124,1.124,0,0,1,.355.889,2.428,2.428,0,0,1-.4,1.183,4.694,4.694,0,0,1-1.2,1.3,6.813,6.813,0,0,1-2.01,1.032,8.656,8.656,0,0,1-2.782.41,7.443,7.443,0,0,1-5.592-2.051,7.637,7.637,0,0,1-2-5.564,9.283,9.283,0,0,1,.492-3.069,6.767,6.767,0,0,1,1.436-2.427,6.225,6.225,0,0,1,2.324-1.552,8.343,8.343,0,0,1,3.063-.54,7.262,7.262,0,0,1,3.753.923,6.071,6.071,0,0,1,2.345,2.386,6.273,6.273,0,0,1,.779,2.98q0,1.408-.807,1.825A5.027,5.027,0,0,1,57.712-6.33Zm-7.3-2.119h6.768a4.536,4.536,0,0,0-1.032-2.864,3.09,3.09,0,0,0-2.358-.95,2.987,2.987,0,0,0-2.29.964A4.8,4.8,0,0,0,50.411-8.449ZM73.32-1.791V-2.16a9.484,9.484,0,0,1-1.483,1.4,5.585,5.585,0,0,1-1.586.82,5.958,5.958,0,0,1-1.866.28A5.5,5.5,0,0,1,65.9-.226a5.793,5.793,0,0,1-1.976-1.62A7.387,7.387,0,0,1,62.662-4.32,10.566,10.566,0,0,1,62.232-7.4a8.018,8.018,0,0,1,1.709-5.455,5.685,5.685,0,0,1,4.5-1.955,6.042,6.042,0,0,1,2.721.554,7.585,7.585,0,0,1,2.16,1.7v-5.51a2.789,2.789,0,0,1,.458-1.736,1.558,1.558,0,0,1,1.306-.588,1.617,1.617,0,0,1,1.306.54,2.406,2.406,0,0,1,.458,1.593V-1.791a2.287,2.287,0,0,1-.492,1.6,1.652,1.652,0,0,1-1.271.533,1.628,1.628,0,0,1-1.265-.554A2.279,2.279,0,0,1,73.32-1.791ZM65.978-7.273a6.369,6.369,0,0,0,.472,2.584,3.6,3.6,0,0,0,1.292,1.606,3.192,3.192,0,0,0,1.791.54,3.3,3.3,0,0,0,1.8-.513,3.525,3.525,0,0,0,1.3-1.572,6.352,6.352,0,0,0,.485-2.646,6.185,6.185,0,0,0-.485-2.563,3.853,3.853,0,0,0-1.312-1.641,3.135,3.135,0,0,0-1.812-.567,3.056,3.056,0,0,0-1.832.581A3.73,3.73,0,0,0,66.422-9.8,6.63,6.63,0,0,0,65.978-7.273Z" transform="translate(348.349 476.947)" fill="#fff"/>
  <path id="패스_1370" data-name="패스 1370" d="M4.791-17.565l15.3-17.891L7.217-51.368a30.276,30.276,0,0,1-2.729-3.978,6.655,6.655,0,0,1-.91-3.194,3.508,3.508,0,0,1,1.749-2.82A7.146,7.146,0,0,1,9.6-62.61a6.76,6.76,0,0,1,4.5,1.363,35.73,35.73,0,0,1,4.455,5.061l10.264,13.3,10.963-13.3q1.353-1.681,2.309-2.876a15.953,15.953,0,0,1,1.843-1.98,6.036,6.036,0,0,1,1.983-1.177,7.537,7.537,0,0,1,2.543-.392,6.89,6.89,0,0,1,4.269,1.251,3.652,3.652,0,0,1,1.656,2.969q0,2.5-3.592,6.8L37.308-35.456,51.817-17.565a29.148,29.148,0,0,1,2.846,3.9,5.939,5.939,0,0,1,.886,2.932,3.955,3.955,0,0,1-.793,2.39,5.373,5.373,0,0,1-2.239,1.718,8.044,8.044,0,0,1-3.266.635,7.572,7.572,0,0,1-3.312-.654,6.7,6.7,0,0,1-2.193-1.625q-.84-.971-3.126-3.772L28.584-27.2,15.8-11.589q-1.493,1.868-2.123,2.615a10.808,10.808,0,0,1-1.516,1.457,6.83,6.83,0,0,1-2.1,1.121,8.883,8.883,0,0,1-2.846.411A6.8,6.8,0,0,1,3.042-7.218,4.194,4.194,0,0,1,1.386-10.8Q1.386-13.568,4.791-17.565Z" transform="translate(362.714 327.464)" fill="#f98244"/>
</svg>
