<svg id="구성_요소_41_1" data-name="구성 요소 41 – 1" xmlns="http://www.w3.org/2000/svg" width="466.59" height="198.328" viewBox="0 0 466.59 198.328">
  <path id="패스_1336" data-name="패스 1336" d="M81.256,199.758v4.169h1.986V197.77H77.087v1.988Z" transform="translate(-22.792 -58.474)" fill="#fff"/>
  <path id="패스_1243" data-name="패스 1243" d="M195.153,149.37h-1.046a.734.734,0,0,1-.734-.733v-1.048a.733.733,0,1,1,1.467,0v.317h.315a.732.732,0,0,1,.738.733.742.742,0,0,1-.74.731" transform="translate(215.757 -53.123)" fill="#fff"/>
  <path id="패스_1244" data-name="패스 1244" d="M197.095,148.8h-1.3a.733.733,0,1,1,0-1.467h1.3a.733.733,0,1,1,0,1.467" transform="translate(217.727 -52.558)" fill="#fff"/>
  <path id="패스_1245" data-name="패스 1245" d="M198.639,149.371h-1.046a.734.734,0,0,1,0-1.467h.315v-.317a.736.736,0,0,1,1.471,0v1.048a.744.744,0,0,1-.74.736" transform="translate(219.837 -53.124)" fill="#fff"/>
  <g id="그룹_350" data-name="그룹 350" transform="translate(401.903 23.338)">
    <path id="패스_1247" data-name="패스 1247" d="M150.267,181.873h-.3a.212.212,0,0,1-.212-.213v-.3a.212.212,0,0,1,.424,0v.091h.091a.212.212,0,1,1,0,.424" transform="translate(-121.517 -158.307)" fill="#fff"/>
    <path id="패스_1248" data-name="패스 1248" d="M152.379,182.053h-.461a.212.212,0,1,1,0-.425h.461a.212.212,0,1,1,0,.425" transform="translate(-122.245 -158.486)" fill="#fff"/>
    <path id="패스_1249" data-name="패스 1249" d="M154.427,181.873h-.3a.212.212,0,0,1,0-.425h.091v-.091a.212.212,0,1,1,.424,0v.3a.213.213,0,0,1-.212.214" transform="translate(-123.067 -158.306)" fill="#fff"/>
    <path id="패스_1250" data-name="패스 1250" d="M143.092,145.311A32.335,32.335,0,0,0,110.8,195.918q-2.047,5.176-4.093,10.354l-.611,1.545,1.582-.511,11.072-3.578a32.018,32.018,0,0,0,12.334,5.141,32.341,32.341,0,1,0,12.007-63.557" transform="translate(-104.753 -144.746)"/>
    <path id="패스_1251" data-name="패스 1251" d="M184.952,167.749v3.714h1.77v-5.485h-5.485v1.771Z" transform="translate(-133.247 -152.656)" fill="#fff"/>
    <path id="패스_1252" data-name="패스 1252" d="M124.412,167.749h3.714v-1.771h-5.483v5.485h1.769Z" transform="translate(-111.418 -152.656)" fill="#fff"/>
    <path id="패스_1253" data-name="패스 1253" d="M184.952,223.277h-3.715v1.771h5.485v-5.484h-1.77Z" transform="translate(-133.247 -172.619)" fill="#fff"/>
    <path id="패스_1254" data-name="패스 1254" d="M124.412,223.277v-3.713h-1.769v5.484h5.483v-1.771Z" transform="translate(-111.418 -172.619)" fill="#fff"/>
    <g id="그룹_314" data-name="그룹 314" transform="translate(14.217 26.558)">
      <path id="패스_1255" data-name="패스 1255" d="M131.318,193.161v-2.434h1.823v2.434h5.868v1.51h-11.6v-1.51Zm5.127-.588h-1.768a13.4,13.4,0,0,0,.507-3.287H129.4V187.72h7.636A21.556,21.556,0,0,1,136.446,192.573Zm-3.194,2.5a2.868,2.868,0,1,1-3.222,2.854A3.068,3.068,0,0,1,133.251,195.077Zm-.041,4.211a1.365,1.365,0,1,0-1.385-1.357A1.383,1.383,0,0,0,133.21,199.288Z" transform="translate(-127.411 -187.314)" fill="#f97e1f"/>
      <path id="패스_1256" data-name="패스 1256" d="M152.01,193.705h-2.66v-5.651h7.143v5.651h-2.7v1.818H158.6v1.553H147.266v-1.553h4.743Zm-.836-4.155v2.657h3.455V189.55Z" transform="translate(-134.808 -187.438)" fill="#f97e1f"/>
      <path id="패스_1257" data-name="패스 1257" d="M169.407,189.157h-2.194v-1.525h6.293v1.525h-2.194v.56a3.741,3.741,0,0,0,.686,2.056,6.145,6.145,0,0,0,2.111,1.664l-.919,1.288a7.023,7.023,0,0,1-1.44-.868,6.451,6.451,0,0,1-1.3-1.3,7.511,7.511,0,0,1-1.111,1.273,7.728,7.728,0,0,1-1.6,1.217l-1.138-1.231a7.528,7.528,0,0,0,2.125-1.9,4.3,4.3,0,0,0,.685-2.168Zm.412,6.5h1.823v2.685h5.621V199.9h-7.445Zm5.347-5.609v-2.979h1.81V196.5h-1.81v-4.994h-2.3v-1.454Z" transform="translate(-142.01 -187.073)" fill="#f97e1f"/>
    </g>
  </g>
  <path id="패스_1325" data-name="패스 1325" d="M67.838,159.465H62.105V133.25H75.942v5.1h-8.1v16.012h2.586a63.9,63.9,0,0,0,7.63-.792v5.015a54.117,54.117,0,0,1-10.216.88m21.295,8.183V149.085H85.6v16.8H80.081V129.818H85.6v13.372h3.534V128.938h5.518v38.71Z" transform="translate(139.193 -79.423)"/>
  <path id="패스_1326" data-name="패스 1326" d="M110.4,134.642h23.967v4.531H110.4Zm11.983,18.431c-5.819,0-10.906-2.729-10.906-6.423,0-3.783,5.087-6.246,11.035-6.246,6.25,0,10.734,2.463,10.734,6.2,0,3.783-4.4,6.466-10.864,6.466M136.993,167.5v-7.436H114.577v-4.882h28.408V167.5h-5.992ZM115.871,128.44H128.76v4.442H115.871Zm6.6,16.012c-2.543,0-4.87.792-4.87,2.2s2.284,2.2,4.87,2.2c2.629,0,4.7-.837,4.7-2.245s-2.112-2.155-4.7-2.155m20.519-.132v9.1h-5.777V128.792h5.777v10.249h5v5.279Z" transform="translate(124.914 -79.276)"/>
  <path id="패스_1327" data-name="패스 1327" d="M181.472,160.786a24.98,24.98,0,0,1-9.482-9.589c-1.725,4.223-6.164,8.269-9.1,9.986l-4.268-3.828a18.987,18.987,0,0,0,10.216-17.2v-9.149h6.121v9.149c0,9.59,6.121,14.34,9.958,16.5ZM193.026,149.7v17.948h-5.777v-38.71h5.777v15.22h5.387V149.7h-5.387Z" transform="translate(110.655 -79.423)"/>
  <path id="패스_1328" data-name="패스 1328" d="M236.518,151.594c-2.155-.661-6.726-3.3-8.621-6.247-1.38,2.726-5.3,5.851-9.1,7.214l-3.621-4.487c4.051-1.055,9.7-5.1,9.7-10.733v-1.232h-7.156v-5.057h20.218v5.057h-7.069v1.232c0,5.279,4.354,8.138,8.794,9.723Zm-14.355,15.174V154.055h5.95v7.655H251v5.058Zm22.285-37.829h5.734v27.978h-5.734Z" transform="translate(93.933 -79.424)"/>
  <path id="패스_1329" data-name="패스 1329" d="M287.977,149.966a22.1,22.1,0,0,1-9.268-7.347,21.832,21.832,0,0,1-8.837,8.226l-4.139-4c5.045-2.2,9.916-7.434,9.916-12.228v-4.662h6.165v4.662c0,4.8,5.13,9.59,9.656,11.042Zm13.794,9.983c0,4.751-5.13,8.184-14.916,8.184-9.7,0-14.914-3.389-14.914-8.184,0-4.75,5.215-8.225,14.914-8.225,9.786,0,14.916,3.432,14.916,8.225M286.9,156.564c-5.261,0-8.665,1.274-8.665,3.385,0,2.025,3.4,3.343,8.665,3.343,5.214,0,8.533-1.274,8.533-3.3,0-2.112-3.319-3.431-8.533-3.431m13.362-13.945v8.8H294.53V128.938h5.733v8.579h5.087v5.1h-5.087Z" transform="translate(78.987 -79.423)"/>
  <path id="패스_1330" data-name="패스 1330" d="M111.478,91.637V86.751h15.633V82.6h6.016v4.149H148.76v4.886Zm31.563-7.392c-4.618-.821-11.142-4.237-12.965-7.176-2.16,2.939-7.455,6.139-13.005,7.176l-3.39-3.934c6.652-1.426,13.176-5.144,13.176-9.6v-1.6h6.4v1.6c0,4.454,6.736,8.041,13.26,9.6ZM130.12,107.807c-10.253,0-15.209-2.855-15.209-7.134,0-4.237,4.956-7.133,15.166-7.133,10,0,15.252,2.9,15.252,7.133s-5.254,7.134-15.209,7.134m0-9.771c-5.423,0-8.516.908-8.516,2.637,0,1.643,3.093,2.681,8.516,2.681,5.338,0,8.515-.995,8.515-2.636,0-1.731-3.178-2.681-8.515-2.681" transform="translate(-32.96 -20.435)"/>
  <path id="패스_1331" data-name="패스 1331" d="M168.932,93.4l-3.348-3.934c9.108-1.771,14.871-8.559,14.871-13.011H168.38V71.521h18.768c0,12.581-8.006,19.411-18.215,21.874m3.686,13.144V94.607h5.761v6.962h22.454v4.971H172.618Zm21.733-9.685V85.442h-7.329V80.469h7.329V69.36h5.635V96.854Z" transform="translate(-48.958 -20.507)"/>
  <path id="패스_1332" data-name="패스 1332" d="M217.584,105v-4.886h15.592V96.524c-6.059-.562-10.422-2.68-10.422-6.572,0-4.193,5.931-6.657,13.471-6.657S249.7,85.8,249.7,89.952c0,3.892-4.365,6.01-10.464,6.572v3.588h15.631V105Zm2.841-27.97h31.519v4.713H220.425Zm7.5-7.176h16.565V74.52H227.923Zm8.3,17.81c-3.134,0-6.65.735-6.65,2.29,0,1.6,3.516,2.336,6.65,2.336s6.652-.735,6.652-2.336c0-1.556-3.516-2.29-6.652-2.29" transform="translate(-64.332 -20.653)"/>
  <rect id="사각형_258" data-name="사각형 258" width="240.156" height="198.328" fill="none"/>
  <g id="그룹_348" data-name="그룹 348" transform="translate(74.669 23.338)">
    <path id="패스_1340" data-name="패스 1340" d="M164.21,41.851a6.584,6.584,0,0,1-2.233-2.536,6.79,6.79,0,0,1-2.352,2.84l-1.488-1.276a6.285,6.285,0,0,0,2.813-5.8v-.94H159V32.376h5.954v1.762H163v.942c0,3.143,1.012,4.206,2.515,5.375Zm1.861,1.869V37.539H164.4v-1.9h1.667V31.267h1.92V43.72h-1.92Zm2.813.607V30.963H170.8V44.327Z" transform="translate(-158.137 -30.963)" fill="#fe890e"/>
    <path id="패스_1341" data-name="패스 1341" d="M193.561,34.505a13.07,13.07,0,0,0-2.367,3.675,15.731,15.731,0,0,0-1.444,5.437h-2.143a14.97,14.97,0,0,1,1.488-5.011,19.444,19.444,0,0,1,2.724-4.13h-5.79V32.517h7.517Z" transform="translate(-166.384 -31.422)" fill="#fe890e"/>
    <path id="패스_1342" data-name="패스 1342" d="M208.69,42.535h-2.4V40.758H210v-1c-1.4-.289-2.59-1.033-2.59-2.126,0-1.306,1.607-2.187,3.558-2.187,2.054,0,3.572.881,3.572,2.187,0,1.093-1.1,1.776-2.412,2.081v1c.818,0,2.634-.152,3.558-.258v1.731A62.777,62.777,0,0,1,208.69,42.535Zm-1.741-7.441v-1.61h8.037v1.61Zm1.83-2.293V31.252h4.347V32.8Zm.6,4.83c0,.5.775.759,1.593.759.849,0,1.637-.273,1.637-.759s-.774-.759-1.637-.759C210.149,36.871,209.374,37.144,209.374,37.63Zm6.772,6.7V30.963h1.981V44.327Z" transform="translate(-172.375 -30.963)" fill="#fe890e"/>
  </g>
</svg>
