<svg id="프라자갤러리" xmlns="http://www.w3.org/2000/svg" width="144.163" height="26.681" viewBox="0 0 144.163 26.681">
  <g id="갤러리_로고_x28_수경">
    <g id="그룹_323" data-name="그룹 323" transform="translate(0 2.226)">
      <path id="패스_1282" data-name="패스 1282" d="M46.436,53.51a2.8,2.8,0,0,1-1.172-.242,2.753,2.753,0,0,1-.923-.679,3.113,3.113,0,0,1-.6-1.022,3.69,3.69,0,0,1-.213-1.271,3.563,3.563,0,0,1,.213-1.23,3.2,3.2,0,0,1,.6-1.029,2.957,2.957,0,0,1,.923-.706,2.616,2.616,0,0,1,1.172-.262,2.716,2.716,0,0,1,1.2.262,2.986,2.986,0,0,1,.941.706,3.23,3.23,0,0,1,.616,1.029,3.482,3.482,0,0,1,.219,1.23,3.6,3.6,0,0,1-.219,1.271,3.142,3.142,0,0,1-.616,1.022,2.78,2.78,0,0,1-.941.679A2.907,2.907,0,0,1,46.436,53.51Zm0-4.814a1.163,1.163,0,0,0-.526.121,1.3,1.3,0,0,0-.426.343,1.607,1.607,0,0,0-.284.524,2.166,2.166,0,0,0,0,1.3,1.6,1.6,0,0,0,.284.524,1.3,1.3,0,0,0,.426.343,1.163,1.163,0,0,0,.526.121,1.214,1.214,0,0,0,.976-.464,1.992,1.992,0,0,0,0-2.353A1.214,1.214,0,0,0,46.436,48.7ZM52.53,59.117H46.318a1.535,1.535,0,0,1-.42-.047.49.49,0,0,1-.254-.168.7.7,0,0,1-.13-.309,2.616,2.616,0,0,1-.035-.471V55.083q0-.282.237-.282h1.171q.236,0,.237.282v2.286q0,.2.189.2H52.53a.291.291,0,0,1,.166.047.219.219,0,0,1,.071.195v1.062q0,.188-.071.215A.471.471,0,0,1,52.53,59.117ZM52.2,55.554H51a.214.214,0,0,1-.177-.061.348.348,0,0,1-.047-.208V46.692q0-.255.225-.255h1.2q.213,0,.213.255V55.3a.349.349,0,0,1-.041.2A.211.211,0,0,1,52.2,55.554Z" transform="translate(-43.525 -46.437)" fill="#fff"/>
      <path id="패스_1283" data-name="패스 1283" d="M80.36,56q-.154.215-.426-.027a4.346,4.346,0,0,1-.509-.524q-.284-.336-.574-.746a10.366,10.366,0,0,1-.556-.881,9.133,9.133,0,0,1-.455-.914q-.213.524-.473,1.029t-.556.961a8.687,8.687,0,0,1-.621.847,6.2,6.2,0,0,1-.645.672.635.635,0,0,1-.243.161q-.077.014-.2-.121l-.651-.766a.321.321,0,0,1-.094-.208.458.458,0,0,1,.142-.262,9.242,9.242,0,0,0,1.248-1.728,9.468,9.468,0,0,0,.87-2.051,11.62,11.62,0,0,0,.367-1.869,18.915,18.915,0,0,0,.118-2.192.463.463,0,0,1,.042-.222c.028-.049.1-.074.207-.074l1.136.04c.11.009.177.038.2.087a.574.574,0,0,1,.036.235,18.549,18.549,0,0,1-.225,3.012,6.844,6.844,0,0,0,.4,1.19,10.944,10.944,0,0,0,.609,1.2,11.652,11.652,0,0,0,.7,1.056,5.522,5.522,0,0,0,.669.766c.111.1.164.186.16.262a.516.516,0,0,1-.112.262Zm4.579-3.187H83.472v6.266a.347.347,0,0,1-.042.208.23.23,0,0,1-.171.047h-1.2a.278.278,0,0,1-.183-.047.285.285,0,0,1-.053-.208V46.692a.288.288,0,0,1,.053-.2.253.253,0,0,1,.183-.054h1.2a.211.211,0,0,1,.171.054.35.35,0,0,1,.042.2v4.585h1.467a.377.377,0,0,1,.171.034q.065.034.065.222v1.022q0,.161-.065.208A.285.285,0,0,1,84.939,52.811Z" transform="translate(-63.995 -46.437)" fill="#fff"/>
      <path id="패스_1284" data-name="패스 1284" d="M111.4,56.2a2.354,2.354,0,0,1-1.242-.336,2.973,2.973,0,0,1-.947-.928,4.694,4.694,0,0,1-.6-1.4,6.893,6.893,0,0,1-.213-1.761,7.29,7.29,0,0,1,.213-1.822,4.766,4.766,0,0,1,.6-1.425,2.955,2.955,0,0,1,.947-.935,2.353,2.353,0,0,1,1.242-.336,2.425,2.425,0,0,1,1.248.329,2.952,2.952,0,0,1,.958.921,4.591,4.591,0,0,1,.609,1.419,7.307,7.307,0,0,1,.213,1.822,7.166,7.166,0,0,1-.213,1.8,4.506,4.506,0,0,1-.609,1.405,2.972,2.972,0,0,1-.958.914A2.425,2.425,0,0,1,111.4,56.2Zm0-7.369a.836.836,0,0,0-.562.222,1.827,1.827,0,0,0-.438.612,3.843,3.843,0,0,0-.284.921,6.25,6.25,0,0,0-.1,1.163,6.118,6.118,0,0,0,.1,1.136,3.7,3.7,0,0,0,.284.914,1.84,1.84,0,0,0,.438.605.836.836,0,0,0,.562.222.859.859,0,0,0,.568-.222,1.789,1.789,0,0,0,.444-.612,3.874,3.874,0,0,0,.284-.914,6.01,6.01,0,0,0,.1-1.129,6.278,6.278,0,0,0-.1-1.163,3.859,3.859,0,0,0-.284-.921,1.792,1.792,0,0,0-.444-.612A.859.859,0,0,0,111.4,48.83Zm7.076,3.98h-1.467v6.266a.347.347,0,0,1-.042.208.23.23,0,0,1-.171.047h-1.2a.278.278,0,0,1-.183-.047.285.285,0,0,1-.053-.208V46.692a.288.288,0,0,1,.053-.2.253.253,0,0,1,.183-.054h1.2a.211.211,0,0,1,.171.054.35.35,0,0,1,.042.2v4.585h1.467a.377.377,0,0,1,.171.034q.065.034.065.222v1.022q0,.161-.065.208A.285.285,0,0,1,118.48,52.811Z" transform="translate(-86.591 -46.437)" fill="#fff"/>
      <path id="패스_1285" data-name="패스 1285" d="M149.88,58.427H139.716q-.154,0-.2-.081a.435.435,0,0,1-.041-.2v-.968a.427.427,0,0,1,.041-.215c.028-.045.092-.067.2-.067H149.88q.249,0,.248.282v.968Q150.128,58.427,149.88,58.427ZM148.448,55.2H141.9a.922.922,0,0,1-.746-.269,1.234,1.234,0,0,1-.225-.807V49.472a1.024,1.024,0,0,1,.213-.766,1.067,1.067,0,0,1,.71-.188h6.531q.225,0,.225.255v1.022a.313.313,0,0,1-.047.2.231.231,0,0,1-.177.054h-5.6q-.2,0-.2.215v.82h5.632q.249,0,.248.282v.941q0,.282-.248.282h-5.632v.874q0,.215.2.215h5.656q.272,0,.272.229v1.022A.239.239,0,0,1,148.448,55.2Z" transform="translate(-107.224 -47.818)" fill="#fff"/>
      <path id="패스_1286" data-name="패스 1286" d="M182.439,58.852H172.275q-.154,0-.2-.081a.435.435,0,0,1-.041-.2V57.6a.426.426,0,0,1,.041-.215c.028-.045.092-.067.2-.067h10.164q.249,0,.248.282v.968Q182.688,58.852,182.439,58.852ZM181.3,55.41h-7.9c-.174,0-.26-.1-.26-.309v-.955a.228.228,0,0,1,.26-.255h1.313v-3.2h-1.1c-.182,0-.272-.1-.272-.3v-.955a.272.272,0,0,1,.077-.215.286.286,0,0,1,.2-.067h7.49q.26,0,.26.282v.968q0,.282-.26.282H179.99v3.2H181.3a.228.228,0,0,1,.26.255v.968C181.564,55.311,181.477,55.41,181.3,55.41Zm-4.97-1.519h2.035v-3.2h-2.035Z" transform="translate(-128.838 -48.243)" fill="#fff"/>
      <path id="패스_1287" data-name="패스 1287" d="M212.628,55.822q-.533.121-1.177.215t-1.325.155q-.681.061-1.366.074t-1.3-.013a.935.935,0,0,1-.7-.229,1.12,1.12,0,0,1-.184-.726V51.721a.871.871,0,0,1,.166-.605.724.724,0,0,1,.544-.175h2.769a.187.187,0,0,0,.136-.034.26.26,0,0,0,.03-.155v-1.64a.261.261,0,0,0-.03-.155.189.189,0,0,0-.136-.034h-3.171q-.236,0-.236-.255V47.647a.29.29,0,0,1,.053-.2.253.253,0,0,1,.183-.054h4.165a1.537,1.537,0,0,1,.42.047.46.46,0,0,1,.242.155.632.632,0,0,1,.112.282,2.727,2.727,0,0,1,.03.444v3.106a1.09,1.09,0,0,1-.195.76.851.851,0,0,1-.621.195h-2.686c-.1,0-.154.058-.154.175v2a.156.156,0,0,0,.178.175,18.284,18.284,0,0,0,2.1-.067,18.839,18.839,0,0,0,2.006-.282c.079-.018.13-.011.154.02a.418.418,0,0,1,.059.155l.13,1q.024.148-.018.195A.319.319,0,0,1,212.628,55.822Zm3.857-3.012h-1.467v6.266a.347.347,0,0,1-.041.208.229.229,0,0,1-.171.047h-1.2a.279.279,0,0,1-.184-.047.287.287,0,0,1-.053-.208V46.692a.29.29,0,0,1,.053-.2.254.254,0,0,1,.184-.054h1.2a.211.211,0,0,1,.171.054.35.35,0,0,1,.041.2v4.585h1.467a.382.382,0,0,1,.172.034c.043.023.065.1.065.222v1.022c0,.108-.022.177-.065.208A.288.288,0,0,1,216.485,52.811Z" transform="translate(-151.761 -46.437)" fill="#fff"/>
      <path id="패스_1288" data-name="패스 1288" d="M242.707,49.032a9.887,9.887,0,0,1-.426,1.372,11.972,11.972,0,0,1-.663,1.412,6.474,6.474,0,0,0,.509.753q.284.363.586.692t.592.612q.289.282.539.5.2.175-.012.457l-.556.793q-.095.135-.213.094a.968.968,0,0,1-.272-.161,4.952,4.952,0,0,1-.45-.41q-.261-.262-.544-.578t-.556-.672q-.272-.356-.5-.692a13.947,13.947,0,0,1-1.337,1.607,11.646,11.646,0,0,1-1.574,1.365.235.235,0,0,1-.172.067q-.065-.013-.16-.148l-.556-.847a.289.289,0,0,1-.065-.235.368.368,0,0,1,.136-.168,11.435,11.435,0,0,0,1.3-1.2,13.229,13.229,0,0,0,1.13-1.385,11.535,11.535,0,0,0,.9-1.493,9.236,9.236,0,0,0,.609-1.533q.071-.269-.189-.269H237.9c-.11,0-.175-.025-.195-.074a.57.57,0,0,1-.03-.208v-.968a.345.345,0,0,1,.053-.222.234.234,0,0,1,.183-.061h3.9a1.057,1.057,0,0,1,.722.229.848.848,0,0,1,.26.672,2.157,2.157,0,0,1-.03.363Q242.743,48.871,242.707,49.032Zm4.84,3.778h-1.467v6.266a.347.347,0,0,1-.041.208.23.23,0,0,1-.171.047h-1.2a.279.279,0,0,1-.184-.047.287.287,0,0,1-.053-.208V46.692a.29.29,0,0,1,.053-.2.254.254,0,0,1,.184-.054h1.2a.211.211,0,0,1,.171.054.35.35,0,0,1,.041.2v4.585h1.467a.38.38,0,0,1,.172.034c.043.023.065.1.065.222v1.022c0,.108-.022.177-.065.208A.286.286,0,0,1,247.546,52.811Z" transform="translate(-171.877 -46.437)" fill="#fff"/>
    </g>
    <g id="그룹_324" data-name="그룹 324" transform="translate(106.296 2.302)">
      <path id="패스_1289" data-name="패스 1289" d="M360.7,53.721a.675.675,0,0,1-.287.094c-.039-.009-.083-.067-.134-.175l-.446-.9a.582.582,0,0,1-.1-.269c0-.054.078-.116.223-.188a10.782,10.782,0,0,0,1.278-.74,7.011,7.011,0,0,0,.958-.78,4.792,4.792,0,0,0,.689-.847,5.114,5.114,0,0,0,.473-.955.323.323,0,0,0,.013-.2q-.026-.107-.23-.108h-2.593c-.111,0-.178-.018-.2-.054a.371.371,0,0,1-.039-.2V47.361a.206.206,0,0,1,.058-.175.359.359,0,0,1,.2-.04h3.7a1.074,1.074,0,0,1,.754.195,1.007,1.007,0,0,1,.191.706,4.539,4.539,0,0,1-.3,1.607,5.877,5.877,0,0,1-.875,1.54,8.027,8.027,0,0,1-1.412,1.392A9.213,9.213,0,0,1,360.7,53.721Zm9.682,5.9h-7.4a1.788,1.788,0,0,1-.454-.047.567.567,0,0,1-.268-.148.529.529,0,0,1-.128-.269,2.252,2.252,0,0,1-.032-.41V57.029a2.232,2.232,0,0,1,.032-.417.482.482,0,0,1,.39-.4,1.965,1.965,0,0,1,.447-.04h5.467c.085,0,.127-.049.127-.148v-.3q0-.161-.141-.161h-6.093a.289.289,0,0,1-.2-.054.3.3,0,0,1-.057-.215v-.928a.226.226,0,0,1,.255-.255h7.052a1.916,1.916,0,0,1,.472.047.612.612,0,0,1,.281.148.5.5,0,0,1,.134.269,2.252,2.252,0,0,1,.032.41v1.708a2.435,2.435,0,0,1-.032.437.478.478,0,0,1-.128.262.512.512,0,0,1-.268.128,2.571,2.571,0,0,1-.466.034h-5.416q-.141,0-.141.134v.336q0,.148.154.148h6.361a.359.359,0,0,1,.2.04q.058.04.058.215v.928C370.625,59.534,370.543,59.624,370.382,59.624Zm-.319-6.2H368.8a.261.261,0,0,1-.192-.054.3.3,0,0,1-.051-.2V51.005h-.92v2.017c0,.126-.017.2-.051.229a.326.326,0,0,1-.192.04h-1.2a.36.36,0,0,1-.2-.04c-.038-.027-.058-.1-.058-.229V47.133a.275.275,0,0,1,.058-.2.289.289,0,0,1,.2-.054h1.2q.243,0,.243.255v2.353h.92V46.917a.272.272,0,0,1,.058-.2.287.287,0,0,1,.2-.054h1.252a.264.264,0,0,1,.192.054.3.3,0,0,1,.05.2V53.17Q370.3,53.426,370.062,53.425Z" transform="translate(-359.735 -46.662)" fill="#fff"/>
      <path id="패스_1290" data-name="패스 1290" d="M402.67,56.074a22.857,22.857,0,0,1-2.529.37,18.988,18.988,0,0,1-2.721.061.8.8,0,0,1-.958-.955v-3.6a.652.652,0,0,1,.766-.78h2.491a.216.216,0,0,0,.147-.034.246.246,0,0,0,.032-.155v-1.64a.247.247,0,0,0-.032-.155.217.217,0,0,0-.147-.034h-2.926a.226.226,0,0,1-.255-.255V47.872a.272.272,0,0,1,.058-.2.288.288,0,0,1,.2-.054h4a1.784,1.784,0,0,1,.454.047.5.5,0,0,1,.262.155.6.6,0,0,1,.121.282,2.516,2.516,0,0,1,.032.444v3.106a1.032,1.032,0,0,1-.211.76.965.965,0,0,1-.67.195h-2.4c-.111,0-.166.058-.166.175V54.8c0,.117.064.175.192.175a18.254,18.254,0,0,0,2.089-.061q.964-.087,1.986-.276c.094-.018.151-.011.173.02a.5.5,0,0,1,.057.155l.166,1c.017.1.011.164-.019.195A.351.351,0,0,1,402.67,56.074Zm3.257,3.483h-1.3a.289.289,0,0,1-.192-.047.294.294,0,0,1-.051-.208v-6.7H402.5a.293.293,0,0,1-.178-.047.233.233,0,0,1-.064-.195V51.341a.278.278,0,0,1,.064-.215.27.27,0,0,1,.178-.054h1.878V46.917a.3.3,0,0,1,.051-.2.263.263,0,0,1,.192-.054h1.3a.242.242,0,0,1,.186.054.331.331,0,0,1,.045.2V59.3a.328.328,0,0,1-.045.208A.265.265,0,0,1,405.927,59.557Z" transform="translate(-384.116 -46.662)" fill="#fff"/>
      <path id="패스_1291" data-name="패스 1291" d="M438.772,55.98q-.575.121-1.278.215t-1.45.155q-.748.061-1.495.074t-1.411-.013a.8.8,0,0,1-.959-.955V51.946a.653.653,0,0,1,.767-.78h3.014a.215.215,0,0,0,.147-.034.245.245,0,0,0,.032-.155v-1.64a.246.246,0,0,0-.032-.155.217.217,0,0,0-.147-.034h-3.449a.226.226,0,0,1-.255-.255V47.872a.272.272,0,0,1,.058-.2.287.287,0,0,1,.2-.054h4.509a1.785,1.785,0,0,1,.454.047.539.539,0,0,1,.268.155.572.572,0,0,1,.128.282,2.549,2.549,0,0,1,.032.444v3.106a1.014,1.014,0,0,1-.217.76.992.992,0,0,1-.677.195H434.1c-.111,0-.166.058-.166.175v1.95c0,.117.064.175.192.175a21.618,21.618,0,0,0,2.286-.067,19.345,19.345,0,0,0,2.172-.3c.093-.018.151-.011.172.02a.493.493,0,0,1,.058.155l.166,1c.017.1.01.164-.019.195A.36.36,0,0,1,438.772,55.98Zm2.465,3.577H439.96a.289.289,0,0,1-.192-.047.294.294,0,0,1-.051-.208V46.917a.3.3,0,0,1,.051-.2.264.264,0,0,1,.192-.054h1.278a.261.261,0,0,1,.191.054.3.3,0,0,1,.051.2V59.3a.3.3,0,0,1-.051.208A.287.287,0,0,1,441.237,59.557Z" transform="translate(-407.827 -46.662)" fill="#fff"/>
    </g>
    <g id="그룹_325" data-name="그룹 325" transform="translate(77.588 13.341)">
      <path id="패스_1292" data-name="패스 1292" d="M276.9,79.785c0-.095,0-.189.006-.283h-2.57v13.34h13.34V90.561A10.788,10.788,0,0,1,276.9,79.785Z" transform="translate(-274.334 -79.502)" fill="#a09f9f"/>
    </g>
    <g id="그룹_326" data-name="그룹 326" transform="translate(83.868 13.341)">
      <path id="패스_1293" data-name="패스 1293" d="M293.029,79.5c0,.094-.011.188-.011.283a7.068,7.068,0,0,0,7.059,7.06V79.5Z" transform="translate(-293.018 -79.502)" fill="#a09f9f"/>
    </g>
    <g id="그룹_327" data-name="그룹 327" transform="translate(90.928 13.341)">
      <path id="패스_1294" data-name="패스 1294" d="M324.794,79.785A10.787,10.787,0,0,1,314.02,90.561v2.281h13.34V79.5h-2.571C324.791,79.6,324.794,79.69,324.794,79.785Z" transform="translate(-314.02 -79.502)" fill="#777677"/>
    </g>
    <g id="그룹_328" data-name="그룹 328" transform="translate(90.929 13.341)">
      <path id="패스_1295" data-name="패스 1295" d="M314.021,86.845a7.068,7.068,0,0,0,7.059-7.06c0-.1-.007-.189-.011-.283h-7.049Z" transform="translate(-314.021 -79.502)" fill="#777677"/>
    </g>
    <g id="그룹_329" data-name="그룹 329" transform="translate(90.927 13.341)">
      <path id="패스_1296" data-name="패스 1296" d="M314.016,79.5v7.343h0V79.5Z" transform="translate(-314.016 -79.502)" fill="#b6bd00"/>
    </g>
    <g id="그룹_330" data-name="그룹 330" transform="translate(90.927 24.4)">
      <path id="패스_1297" data-name="패스 1297" d="M314.017,112.4h0v2.281h0V112.4Z" transform="translate(-314.016 -112.399)" fill="#b6bd00"/>
    </g>
    <g id="그룹_331" data-name="그룹 331" transform="translate(83.88 7.067)">
      <path id="패스_1298" data-name="패스 1298" d="M300.1,63.8a2.6,2.6,0,0,1-2.6-2.6v-.364a7.064,7.064,0,0,0-4.447,6.273H300.1V63.8Z" transform="translate(-293.051 -60.839)" fill="#d3d3d3"/>
    </g>
    <g id="그룹_332" data-name="그룹 332" transform="translate(77.587)">
      <path id="패스_1299" data-name="패스 1299" d="M285.072,42.983v-.939a2.6,2.6,0,0,1,1.268-2.229H274.332v13.34h2.57A10.794,10.794,0,0,1,285.072,42.983Z" transform="translate(-274.332 -39.815)" fill="#ddd"/>
    </g>
    <g id="그룹_333" data-name="그룹 333" transform="translate(87.403 9.817)">
      <rect id="사각형_251" data-name="사각형 251" width="0.001" height="7.048" transform="translate(0)" fill="#ffc627"/>
    </g>
    <g id="그룹_334" data-name="그룹 334" transform="translate(77.587 13.34)">
      <rect id="사각형_252" data-name="사각형 252" width="2.57" height="0.001" transform="translate(0)" fill="#ffc627"/>
    </g>
    <g id="그룹_335" data-name="그룹 335" transform="translate(90.929 7.067)">
      <path id="패스_1300" data-name="패스 1300" d="M321.069,67.111a7.066,7.066,0,0,0-4.448-6.273V61.2a2.6,2.6,0,0,1-2.6,2.6v3.308Z" transform="translate(-314.021 -60.838)" fill="#babab9"/>
    </g>
    <g id="그룹_336" data-name="그룹 336" transform="translate(92.261)">
      <path id="패스_1301" data-name="패스 1301" d="M317.983,39.815a2.6,2.6,0,0,1,1.268,2.229v.939a10.792,10.792,0,0,1,8.168,10.172h2.571V39.815Z" transform="translate(-317.983 -39.815)" fill="#c9c8c9"/>
    </g>
    <g id="그룹_337" data-name="그룹 337" transform="translate(101.697 13.34)">
      <rect id="사각형_253" data-name="사각형 253" width="2.571" height="0.001" fill="#446ca9"/>
    </g>
    <g id="그룹_338" data-name="그룹 338" transform="translate(90.929 13.341)">
      <rect id="사각형_254" data-name="사각형 254" width="7.049" fill="#446ca9"/>
    </g>
    <g id="그룹_339" data-name="그룹 339" transform="translate(90.927 10.032)">
      <path id="패스_1302" data-name="패스 1302" d="M314.018,72.966V69.658h0v3.308Z" transform="translate(-314.016 -69.658)" fill="#446ca9"/>
    </g>
    <g id="그룹_340" data-name="그룹 340" transform="translate(90.927 13.34)">
      <rect id="사각형_255" data-name="사각형 255" width="0.002" height="0.001" fill="#446ca9"/>
    </g>
    <g id="그룹_341" data-name="그룹 341" transform="translate(90.927 20.684)">
      <path id="패스_1303" data-name="패스 1303" d="M314.017,101.346h0v3.716h0v-3.716Z" transform="translate(-314.016 -101.346)" fill="#fff"/>
    </g>
    <g id="그룹_342" data-name="그룹 342" transform="translate(80.158 13.34)">
      <rect id="사각형_256" data-name="사각형 256" width="3.721" height="0.001" fill="#fff"/>
    </g>
    <g id="그룹_343" data-name="그룹 343" transform="translate(97.977 13.341)">
      <rect id="사각형_257" data-name="사각형 257" width="3.72" fill="#fff"/>
    </g>
    <g id="그룹_344" data-name="그룹 344" transform="translate(80.896 4.002)">
      <path id="패스_1304" data-name="패스 1304" d="M296.808,51.721v2.334a7.8,7.8,0,1,1-5.2,0V51.721a10.032,10.032,0,1,0,5.2,0Z" transform="translate(-284.175 -51.721)" fill="#e2e2e2"/>
    </g>
    <g id="그룹_345" data-name="그룹 345" transform="translate(89.07 0.314)">
      <path id="패스_1305" data-name="패스 1305" d="M310.35,40.75a1.859,1.859,0,0,0-1.857,1.857v5.2a1.857,1.857,0,1,0,3.714,0v-5.2A1.86,1.86,0,0,0,310.35,40.75Z" transform="translate(-308.493 -40.75)" fill="#e2e2e2"/>
    </g>
    <g id="그룹_346" data-name="그룹 346" transform="translate(1.01 17.345)">
      <path id="패스_1306" data-name="패스 1306" d="M47.061,98.88H46.65c-.08,0-.12-.044-.12-.133V91.973q0-.133.12-.133h.411q.12,0,.12.133v6.774C47.18,98.835,47.14,98.88,47.061,98.88Z" transform="translate(-46.53 -91.696)" fill="#fff"/>
      <path id="패스_1307" data-name="패스 1307" d="M54.982,98.842H54.6c-.08,0-.12-.044-.12-.133V92.05a.483.483,0,0,1,.03-.233q.03-.033.21-.033h.394a.32.32,0,0,1,.15.024.274.274,0,0,1,.081.109l3.228,6.155V91.916q0-.133.12-.133h.377c.08,0,.12.044.12.133v6.659a.488.488,0,0,1-.03.233q-.03.033-.21.033h-.522a.19.19,0,0,1-.1-.019.281.281,0,0,1-.073-.1L55.1,92.677v6.031Q55.1,98.842,54.982,98.842Z" transform="translate(-51.806 -91.658)" fill="#fff"/>
      <path id="패스_1308" data-name="패스 1308" d="M74.378,98.5q-.137-.048-.111-.171l.034-.438a.172.172,0,0,1,.056-.1.07.07,0,0,1,.09.009,2.327,2.327,0,0,0,.6.262,2.729,2.729,0,0,0,.7.081,1.342,1.342,0,0,0,1.421-1.456.961.961,0,0,0-.193-.552,2.251,2.251,0,0,0-.535-.523q-.3-.209-.676-.438a7.006,7.006,0,0,1-.719-.5,2.776,2.776,0,0,1-.574-.609,1.356,1.356,0,0,1-.231-.785,1.794,1.794,0,0,1,.171-.8,1.71,1.71,0,0,1,.458-.58,2.083,2.083,0,0,1,.655-.357,2.352,2.352,0,0,1,.753-.124,3.622,3.622,0,0,1,.591.043,3.385,3.385,0,0,1,.557.148.138.138,0,0,1,.1.171l-.069.371c-.017.108-.066.136-.146.086a1.721,1.721,0,0,0-.467-.166,3.208,3.208,0,0,0-.578-.043,1.844,1.844,0,0,0-.535.076,1.235,1.235,0,0,0-.437.228,1.123,1.123,0,0,0-.3.381,1.225,1.225,0,0,0-.111.542.809.809,0,0,0,.15.466,2.175,2.175,0,0,0,.368.409,3.614,3.614,0,0,0,.471.347q.252.157.458.29.283.181.548.371a2.719,2.719,0,0,1,.471.428,2.15,2.15,0,0,1,.334.523,1.584,1.584,0,0,1,.128.657,1.958,1.958,0,0,1-.175.847,1.925,1.925,0,0,1-.467.628,2.061,2.061,0,0,1-.672.395,2.314,2.314,0,0,1-.792.138,3.566,3.566,0,0,1-.672-.057A4.426,4.426,0,0,1,74.378,98.5Z" transform="translate(-64.926 -91.412)" fill="#fff"/>
      <path id="패스_1309" data-name="패스 1309" d="M94.609,98.709q.043.133-.077.133h-.411a.147.147,0,0,1-.163-.133l-.634-1.751H90.106q-.163.447-.317.875t-.308.875a.147.147,0,0,1-.163.133h-.4q-.12,0-.077-.133L91.356,91.9a.155.155,0,0,1,.154-.114h.522a.155.155,0,0,1,.154.114Zm-1.49-2.359q-.36-.989-.689-1.955t-.689-1.955q-.36.989-.707,1.955t-.706,1.955Z" transform="translate(-74.609 -91.658)" fill="#fff"/>
      <path id="패스_1310" data-name="패스 1310" d="M123.822,98.709q.043.133-.077.133h-.411a.148.148,0,0,1-.163-.133l-.634-1.751h-3.219q-.162.447-.317.875t-.308.875a.147.147,0,0,1-.163.133h-.4q-.12,0-.077-.133l2.517-6.812a.155.155,0,0,1,.154-.114h.522a.155.155,0,0,1,.154.114Zm-1.49-2.359q-.36-.989-.689-1.955t-.689-1.955q-.36.989-.707,1.955t-.707,1.955Z" transform="translate(-94.002 -91.658)" fill="#fff"/>
      <path id="패스_1311" data-name="패스 1311" d="M144.412,98.747a.127.127,0,0,1,0,.09.067.067,0,0,1-.069.043H143.9a.2.2,0,0,1-.189-.133q-.385-.894-.642-1.46t-.4-.9q-.18-.39-.274-.6a2.02,2.02,0,0,1-.364.057q-.167.01-.424.019h-.719v2.883q0,.133-.12.133h-.385q-.12,0-.12-.133V92.126c0-.07,0-.124,0-.162a.141.141,0,0,1,.03-.085.115.115,0,0,1,.077-.033c.035,0,.083,0,.146,0h1.618a2.2,2.2,0,0,1,.843.147,1.594,1.594,0,0,1,.591.414,1.717,1.717,0,0,1,.351.647,2.909,2.909,0,0,1,.116.847,1.623,1.623,0,0,1-.09.542,1.923,1.923,0,0,1-.244.476,2.281,2.281,0,0,1-.77.685ZM143.393,93.9a2.471,2.471,0,0,0-.081-.68.97.97,0,0,0-.274-.456,1.127,1.127,0,0,0-.5-.252,3.276,3.276,0,0,0-.77-.076h-.882v2.835h.9a2.1,2.1,0,0,0,.646-.1,1.486,1.486,0,0,0,.51-.276,1.281,1.281,0,0,0,.334-.433A1.314,1.314,0,0,0,143.393,93.9Z" transform="translate(-108.751 -91.697)" fill="#fff"/>
      <path id="패스_1312" data-name="패스 1312" d="M158.289,92.43v6.317q0,.133-.12.133h-.394c-.08,0-.12-.044-.12-.133V92.43h-1.764c-.08,0-.12-.044-.12-.133v-.323c0-.089.04-.133.12-.133h4.178q.12,0,.12.133V92.3c0,.089-.04.133-.12.133Z" transform="translate(-119.05 -91.696)" fill="#fff"/>
      <path id="패스_1313" data-name="패스 1313" d="M183.038,98.709q0,.133-.12.133h-.385q-.119,0-.12-.133v-6.64q0-.209.039-.247a.372.372,0,0,1,.218-.038h1.524a2.052,2.052,0,0,1,1.473.5,1.98,1.98,0,0,1,.548,1.5,2.3,2.3,0,0,1-.158.88,1.8,1.8,0,0,1-.441.647,1.869,1.869,0,0,1-.668.395,2.2,2.2,0,0,1-.822.114h-1.087v2.883Zm2.534-4.919a1.546,1.546,0,0,0-.317-1.042,1.167,1.167,0,0,0-.933-.366h-1.284v2.845h.693a5.189,5.189,0,0,0,.741-.048,1.394,1.394,0,0,0,.565-.2,1.049,1.049,0,0,0,.372-.433A1.993,1.993,0,0,0,185.572,93.79Z" transform="translate(-136.735 -91.658)" fill="#fff"/>
      <path id="패스_1314" data-name="패스 1314" d="M201.8,98.28q.119,0,.12.133v.333q0,.133-.12.133h-2.774c-.08,0-.142,0-.184,0a.135.135,0,0,1-.094-.038.177.177,0,0,1-.034-.109q0-.076,0-.209V91.973c0-.089.04-.133.12-.133h.394q.12,0,.12.133V98.28Z" transform="translate(-147.555 -91.696)" fill="#fff"/>
      <path id="패스_1315" data-name="패스 1315" d="M216.915,98.709q.043.133-.077.133h-.411a.148.148,0,0,1-.163-.133l-.634-1.751h-3.219q-.162.447-.317.875t-.308.875a.147.147,0,0,1-.163.133h-.4q-.12,0-.077-.133l2.517-6.812a.155.155,0,0,1,.154-.114h.522a.155.155,0,0,1,.154.114Zm-1.49-2.359q-.36-.989-.689-1.955t-.689-1.955q-.359.989-.707,1.955t-.707,1.955Z" transform="translate(-155.801 -91.658)" fill="#fff"/>
      <path id="패스_1316" data-name="패스 1316" d="M231.748,98.88c-.057,0-.1,0-.133,0a.1.1,0,0,1-.068-.029.118.118,0,0,1-.026-.071c0-.032,0-.079,0-.143v-.295a.233.233,0,0,1,.034-.124l3.3-5.784h-3.134c-.08,0-.12-.044-.12-.133v-.323q0-.133.12-.133h3.57c.12,0,.19.011.21.033a.482.482,0,0,1,.03.233v.2a.47.47,0,0,1-.06.238L232.21,98.28h3.322q.12,0,.12.133v.333q0,.133-.12.133Z" transform="translate(-169.333 -91.696)" fill="#fff"/>
      <path id="패스_1317" data-name="패스 1317" d="M252.878,98.709q.043.133-.077.133h-.411a.148.148,0,0,1-.163-.133l-.634-1.751h-3.219q-.162.447-.317.875t-.308.875a.147.147,0,0,1-.163.133h-.4q-.12,0-.077-.133l2.517-6.812a.155.155,0,0,1,.154-.114h.522a.155.155,0,0,1,.154.114Zm-1.49-2.359q-.36-.989-.689-1.955t-.689-1.955q-.359.989-.707,1.955t-.707,1.955Z" transform="translate(-179.675 -91.658)" fill="#fff"/>
    </g>
    <g id="그룹_347" data-name="그룹 347" transform="translate(106.38 17.44)">
      <path id="패스_1318" data-name="패스 1318" d="M364.724,95.055c.113,0,.179.011.2.033a.508.508,0,0,1,.028.233v3.016a.311.311,0,0,1-.052.181.378.378,0,0,1-.117.114,4.141,4.141,0,0,1-.813.262,4.251,4.251,0,0,1-.886.09,3.135,3.135,0,0,1-1.241-.243,2.745,2.745,0,0,1-.983-.7,3.259,3.259,0,0,1-.643-1.142,4.838,4.838,0,0,1-.231-1.555,4.761,4.761,0,0,1,.214-1.465,3.445,3.445,0,0,1,.615-1.151,2.8,2.8,0,0,1,.975-.756,2.989,2.989,0,0,1,1.293-.271,5.721,5.721,0,0,1,.789.047,3.42,3.42,0,0,1,.716.19c.081.026.113.089.1.19l-.041.352q-.008.124-.121.086a2.791,2.791,0,0,0-.7-.214,4.787,4.787,0,0,0-.744-.052,2.369,2.369,0,0,0-1.039.224,2.293,2.293,0,0,0-.792.623,2.806,2.806,0,0,0-.5.961,4.567,4.567,0,0,0,.012,2.54,2.71,2.71,0,0,0,.522.956,2.217,2.217,0,0,0,.792.585,2.486,2.486,0,0,0,1.006.2,2.371,2.371,0,0,0,1.278-.257V95.654h-1.625c-.076,0-.114-.044-.114-.133v-.333c0-.089.038-.133.114-.133h1.989Z" transform="translate(-359.985 -91.697)" fill="#fff"/>
      <path id="패스_1319" data-name="패스 1319" d="M385.092,98.934q.04.133-.073.133h-.388a.178.178,0,0,1-.085-.019.2.2,0,0,1-.069-.114l-.6-1.751h-3.04q-.154.447-.3.875t-.291.875a.2.2,0,0,1-.069.114.179.179,0,0,1-.085.019h-.38q-.113,0-.073-.133l2.377-6.812a.148.148,0,0,1,.146-.114h.493a.148.148,0,0,1,.146.114Zm-1.407-2.359q-.34-.989-.651-1.955t-.651-1.955q-.34.989-.667,1.955t-.667,1.955Z" transform="translate(-373.027 -91.903)" fill="#fff"/>
      <path id="패스_1320" data-name="패스 1320" d="M403.315,98.505q.113,0,.114.133v.333q0,.133-.114.133H400.7c-.076,0-.133,0-.174,0a.124.124,0,0,1-.089-.038.182.182,0,0,1-.033-.109c0-.051,0-.121,0-.209V92.2c0-.089.038-.133.114-.133h.371q.113,0,.113.133v6.307Z" transform="translate(-386.812 -91.941)" fill="#fff"/>
      <path id="패스_1321" data-name="패스 1321" d="M416.643,98.505q.113,0,.114.133v.333q0,.133-.114.133h-2.62c-.076,0-.133,0-.174,0a.125.125,0,0,1-.089-.038.182.182,0,0,1-.032-.109c0-.051,0-.121,0-.209V92.2q0-.133.113-.133h.372c.075,0,.113.044.113.133v6.307Z" transform="translate(-395.659 -91.941)" fill="#fff"/>
      <path id="패스_1322" data-name="패스 1322" d="M427.447,99.076c-.113,0-.18-.011-.2-.033a.507.507,0,0,1-.028-.233V92.255a.444.444,0,0,1,.028-.214q.028-.033.182-.033h2.806c.075,0,.113.044.113.133v.333c0,.089-.038.133-.113.133H427.81v2.511h2.3q.113,0,.113.133v.343c0,.089-.038.133-.113.133h-2.3v2.74h2.523q.113,0,.113.133v.343q0,.133-.113.133h-2.887Z" transform="translate(-404.619 -91.903)" fill="#fff"/>
      <path id="패스_1323" data-name="패스 1323" d="M446.728,98.972a.13.13,0,0,1,0,.09.063.063,0,0,1-.065.043h-.421a.187.187,0,0,1-.178-.133q-.364-.894-.606-1.46t-.38-.9q-.17-.39-.259-.6a1.8,1.8,0,0,1-.344.057q-.158.01-.4.019H443.4v2.883q0,.133-.113.133h-.364q-.113,0-.113-.133V92.351c0-.07,0-.124,0-.162a.145.145,0,0,1,.029-.085.1.1,0,0,1,.073-.033c.033,0,.078,0,.137,0h1.529a1.972,1.972,0,0,1,.8.147,1.506,1.506,0,0,1,.558.414,1.743,1.743,0,0,1,.331.647,3.06,3.06,0,0,1,.109.847,1.71,1.71,0,0,1-.085.542,1.954,1.954,0,0,1-.231.476,2.174,2.174,0,0,1-.336.395,2.09,2.09,0,0,1-.392.29Zm-.962-4.852a2.61,2.61,0,0,0-.077-.68.979.979,0,0,0-.259-.456,1.043,1.043,0,0,0-.473-.252,2.931,2.931,0,0,0-.728-.076H443.4v2.835h.849a1.874,1.874,0,0,0,.61-.1,1.381,1.381,0,0,0,.481-.276,1.274,1.274,0,0,0,.315-.433A1.363,1.363,0,0,0,445.766,94.121Z" transform="translate(-414.965 -91.942)" fill="#fff"/>
      <path id="패스_1324" data-name="패스 1324" d="M460.486,98.934q0,.133-.113.133H460q-.113,0-.113-.133V96.09q-.542-1-1.079-1.983t-1.08-1.964a.131.131,0,0,1,0-.09.063.063,0,0,1,.065-.043h.461c.065,0,.119.044.162.133l1.763,3.339q.485-.866.914-1.67t.914-1.67c.037-.089.091-.133.161-.133h.4a.07.07,0,0,1,.069.043.1.1,0,0,1,0,.09l-2.151,3.948v2.844Z" transform="translate(-424.866 -91.904)" fill="#fff"/>
    </g>
  </g>
</svg>
