<svg id="구성_요소_31_1" data-name="구성 요소 31 – 1" xmlns="http://www.w3.org/2000/svg" width="157" height="129.655" viewBox="0 0 157 129.655">
  <path id="패스_1325" data-name="패스 1325" d="M65.853,148.895H62.105V131.757h9.046v3.335h-5.3v10.467h1.691a41.773,41.773,0,0,0,4.988-.518v3.278a35.378,35.378,0,0,1-6.679.575m13.921,5.35V142.109H77.464v10.985H73.857v-23.58h3.607v8.742h2.311v-9.318h3.607v25.306Z" transform="translate(-33.509 -69.568)"/>
  <path id="패스_1326" data-name="패스 1326" d="M110.4,132.495h15.668v2.962H110.4Zm7.834,12.049c-3.8,0-7.13-1.784-7.13-4.2,0-2.473,3.325-4.083,7.214-4.083,4.086,0,7.017,1.61,7.017,4.055,0,2.473-2.875,4.227-7.1,4.227m9.553,9.432v-4.861H113.13v-3.191H131.7v8.052h-3.918ZM113.976,128.44H122.4v2.9h-8.426Zm4.312,10.467c-1.663,0-3.184.518-3.184,1.438s1.493,1.438,3.184,1.438c1.719,0,3.072-.547,3.072-1.467s-1.381-1.409-3.072-1.409m13.414-.086v5.952h-3.777v-16.1H131.7v6.7h3.269v3.451Z" transform="translate(-59.565 -69.299)"/>
  <path id="패스_1327" data-name="패스 1327" d="M173.561,149.758a16.33,16.33,0,0,1-6.2-6.269,15.68,15.68,0,0,1-5.946,6.528l-2.79-2.5a12.413,12.413,0,0,0,6.679-11.244V130.29h4v5.981a11.946,11.946,0,0,0,6.51,10.785Zm7.554-7.247v11.733h-3.777V128.938h3.777v9.95h3.522v3.623h-3.522Z" transform="translate(-85.587 -69.568)"/>
  <path id="패스_1328" data-name="패스 1328" d="M229.129,143.749a12.5,12.5,0,0,1-5.636-4.084,11.7,11.7,0,0,1-5.946,4.716l-2.367-2.934c2.649-.69,6.34-3.336,6.34-7.016v-.805h-4.678V130.32h13.217v3.306h-4.622v.805c0,3.451,2.846,5.32,5.749,6.356Zm-9.384,9.92v-8.311h3.89v5H238.6v3.306Zm14.569-24.73h3.749v18.29h-3.749Z" transform="translate(-116.1 -69.569)"/>
  <path id="패스_1329" data-name="패스 1329" d="M280.275,142.685a14.445,14.445,0,0,1-6.059-4.8,14.273,14.273,0,0,1-5.777,5.378l-2.706-2.618c3.3-1.437,6.482-4.86,6.482-7.994V129.6h4.03v3.048c0,3.135,3.353,6.27,6.312,7.218Zm9.018,6.526c0,3.106-3.353,5.35-9.751,5.35-6.341,0-9.75-2.215-9.75-5.35,0-3.105,3.409-5.377,9.75-5.377,6.4,0,9.751,2.243,9.751,5.377M279.571,147c-3.439,0-5.665.833-5.665,2.213,0,1.324,2.226,2.186,5.665,2.186,3.409,0,5.578-.833,5.578-2.156,0-1.38-2.17-2.243-5.578-2.243m8.735-9.116v5.751h-3.748V128.938h3.748v5.608h3.326v3.336h-3.326Z" transform="translate(-143.376 -69.568)"/>
  <path id="패스_1330" data-name="패스 1330" d="M111.478,83.838V80.644H121.7V77.932h3.933v2.712h10.22v3.194Zm20.634-4.832c-3.019-.537-7.284-2.77-8.476-4.692-1.412,1.921-4.874,4.013-8.5,4.692l-2.216-2.572c4.348-.932,8.614-3.363,8.614-6.275V69.114h4.182V70.16c0,2.912,4.4,5.257,8.669,6.275Zm-8.447,15.4c-6.7,0-9.943-1.866-9.943-4.664,0-2.77,3.24-4.663,9.914-4.663,6.537,0,9.971,1.893,9.971,4.663s-3.435,4.664-9.943,4.664m0-6.388c-3.545,0-5.567.594-5.567,1.724,0,1.074,2.022,1.752,5.567,1.752,3.49,0,5.567-.65,5.567-1.723,0-1.132-2.078-1.753-5.567-1.753" transform="translate(-60.148 -37.29)"/>
  <path id="패스_1331" data-name="패스 1331" d="M167.773,85.073,165.584,82.5c5.954-1.158,9.722-5.6,9.722-8.506h-7.894V70.773h12.269c0,8.225-5.234,12.69-11.908,14.3m2.41,8.592v-7.8h3.766v4.551h14.679v3.25H170.182Zm14.208-6.331V79.873H179.6V76.623h4.791V69.36h3.684V87.334Z" transform="translate(-89.341 -37.423)"/>
  <path id="패스_1332" data-name="패스 1332" d="M217.584,92.829V89.634h10.193V87.289c-3.961-.367-6.813-1.752-6.813-4.3,0-2.741,3.877-4.352,8.807-4.352s8.809,1.64,8.809,4.352c0,2.544-2.854,3.929-6.84,4.3v2.346h10.219v3.194Zm1.857-18.285h20.605v3.081H219.441Zm4.9-4.691h10.829V72.9H224.343ZM229.77,81.5c-2.049,0-4.347.48-4.347,1.5,0,1.046,2.3,1.527,4.347,1.527s4.349-.481,4.349-1.527c0-1.017-2.3-1.5-4.349-1.5" transform="translate(-117.397 -37.688)"/>
  <path id="패스_1333" data-name="패스 1333" d="M213.42,197.072a1.253,1.253,0,0,0-1.4,1.084c-.008.062-.848,6.248-4.969,7.755a16.839,16.839,0,0,1-2.847.34H106.6a25.217,25.217,0,0,1,.422,2.505H204.2a17.7,17.7,0,0,0,3.7-.492c5.566-2.033,6.558-9.479,6.6-9.8a1.252,1.252,0,0,0-1.085-1.4" transform="translate(-57.516 -106.324)"/>
  <path id="패스_1334" data-name="패스 1334" d="M45.354,24.907a1.252,1.252,0,0,1-1.251-1.2A11.183,11.183,0,0,1,46.9,16.145a9.929,9.929,0,0,1,6.687-2.893c.244-1.917,1.069-5.4,3.832-5.4H75a2.55,2.55,0,0,1,1.705.67c1,.853,1.652,2.428,1.942,4.69h5.312c.169-2.372.954-7.529,4.514-11.308a7.037,7.037,0,0,1,2.358-1.5,10.492,10.492,0,0,1,2.9-.4h36.275A9.665,9.665,0,0,1,132.4.225a5.254,5.254,0,0,1,2.136,1.106c1.886,1.568,4.231,4.892,4.993,11.88h30.519a21.723,21.723,0,0,1,2.782.132,7.7,7.7,0,0,1,2.08.553c2.2.993,5.889,3.583,5.889,9.757a1.253,1.253,0,0,1-2.506,0c0-4.529-2.4-6.565-4.415-7.475a5.3,5.3,0,0,0-1.358-.35,19.8,19.8,0,0,0-2.442-.113h-31.69a1.252,1.252,0,0,1-1.248-1.153c-.578-7.275-2.882-10.205-4.2-11.3a2.784,2.784,0,0,0-1.116-.6,7.338,7.338,0,0,0-1.724-.153H93.748a8.394,8.394,0,0,0-2.05.248,4.654,4.654,0,0,0-1.4.865c-3.952,4.194-3.877,10.752-3.876,10.817a1.254,1.254,0,0,1-1.252,1.278H77.513a1.252,1.252,0,0,1-1.25-1.166c-.212-3.075-.989-4.063-1.281-4.195H57.415c-.71,0-1.362,2.272-1.428,4.153a1.252,1.252,0,0,1-1.252,1.208A8,8,0,0,0,48.7,17.879a8.652,8.652,0,0,0-2.1,5.723,1.251,1.251,0,0,1-1.2,1.3h-.053" transform="translate(-23.794 0.001)"/>
  <path id="패스_1335" data-name="패스 1335" d="M15.16,222.58a23.729,23.729,0,0,0,31.865-30.421l4.727-6.663.706-.995-1.217.087-8.517.614a23.515,23.515,0,0,0-7.892-5.822,23.734,23.734,0,1,0-19.673,43.2" transform="translate(-0.675 -95.634)"/>
  <rect id="사각형_258" data-name="사각형 258" width="157" height="129.655" transform="translate(0 0)" fill="none"/>
  <path id="패스_1336" data-name="패스 1336" d="M79.812,199.069v2.725h1.3V197.77H77.087v1.3Z" transform="translate(-41.592 -106.706)" fill="#fff"/>
  <path id="패스_1338" data-name="패스 1338" d="M79.812,254.081H77.087v1.3h4.024v-4.024h-1.3Z" transform="translate(-41.592 -135.619)" fill="#fff"/>
  <g id="그룹_348" data-name="그룹 348" transform="translate(72.814 14.257)">
    <path id="패스_1340" data-name="패스 1340" d="M162.107,38.081a4.3,4.3,0,0,1-1.46-1.658,4.439,4.439,0,0,1-1.537,1.857l-.973-.834a4.109,4.109,0,0,0,1.839-3.792v-.615H158.7V31.887h3.893v1.152h-1.275v.616a3.7,3.7,0,0,0,1.644,3.514Zm1.217,1.222v-4.04h-1.09V34.021h1.09V31.162h1.255V39.3h-1.255Zm1.839.4V30.963h1.256V39.7Z" transform="translate(-158.137 -30.963)" fill="#fe890e"/>
    <path id="패스_1341" data-name="패스 1341" d="M190.953,33.817a8.544,8.544,0,0,0-1.547,2.4,10.284,10.284,0,0,0-.944,3.554h-1.4a9.786,9.786,0,0,1,.973-3.276,12.711,12.711,0,0,1,1.781-2.7h-3.785V32.517h4.914Z" transform="translate(-173.186 -31.801)" fill="#fe890e"/>
    <path id="패스_1342" data-name="패스 1342" d="M207.86,38.528h-1.567V37.366h2.423v-.655c-.914-.189-1.693-.675-1.693-1.39,0-.854,1.051-1.43,2.326-1.43,1.343,0,2.335.576,2.335,1.43,0,.715-.72,1.161-1.577,1.36v.655c.535,0,1.722-.1,2.326-.169V38.3A41.04,41.04,0,0,1,207.86,38.528Zm-1.138-4.865V32.611h5.254v1.053Zm1.2-1.5V31.152h2.842v1.013Zm.39,3.157c0,.327.507.5,1.042.5.555,0,1.07-.179,1.07-.5s-.506-.5-1.07-.5C208.814,34.825,208.307,35,208.307,35.322Zm4.427,4.378V30.963h1.295V39.7Z" transform="translate(-184.12 -30.963)" fill="#fe890e"/>
  </g>
  <g id="그룹_349" data-name="그룹 349" transform="translate(10.71 100.777)">
    <path id="패스_1343" data-name="패스 1343" d="M26.126,223.505v-1.786h1.338v1.786H31.77v1.108H23.259v-1.108Zm3.763-.431h-1.3a9.834,9.834,0,0,0,.372-2.412H24.718v-1.149h5.6A15.765,15.765,0,0,1,29.889,223.074Zm-2.344,1.837A2.1,2.1,0,1,1,25.18,227,2.252,2.252,0,0,1,27.545,224.911Zm-.03,3.09a1,1,0,1,0-1.016-1A1.015,1.015,0,0,0,27.514,228Z" transform="translate(-23.259 -219.214)" fill="#fe8c16"/>
    <path id="패스_1344" data-name="패스 1344" d="M46.6,223.993H44.643v-4.147h5.242v4.147H47.9v1.334h3.531v1.14h-8.32v-1.14H46.6Zm-.613-3.049v1.95h2.535v-1.95Z" transform="translate(-33.972 -219.394)" fill="#fe8c16"/>
    <path id="패스_1345" data-name="패스 1345" d="M64.508,220.395H62.9v-1.119h4.618v1.119h-1.61v.411a2.745,2.745,0,0,0,.5,1.509,4.508,4.508,0,0,0,1.549,1.221l-.674.945a5.127,5.127,0,0,1-1.056-.637,4.75,4.75,0,0,1-.956-.955,5.532,5.532,0,0,1-.815.934,5.67,5.67,0,0,1-1.177.893l-.835-.9a5.524,5.524,0,0,0,1.56-1.4,3.156,3.156,0,0,0,.5-1.591v-.431Zm.3,4.773h1.338v1.971h4.125v1.14H64.81Zm3.924-4.116v-2.186h1.328v6.918H68.734v-3.665h-1.69v-1.067Z" transform="translate(-44.402 -218.865)" fill="#fe8c16"/>
  </g>
  <path id="패스_1337" data-name="패스 1337" d="M19.789,199.069h2.725v-1.3H18.491v4.025h1.3Z" transform="translate(-9.977 -106.706)" fill="#fff"/>
  <path id="패스_1339" data-name="패스 1339" d="M19.789,254.081v-2.725h-1.3v4.024h4.024v-1.3Z" transform="translate(-9.977 -135.619)" fill="#fff"/>
</svg>
