<svg id="구성_요소_33_1" data-name="구성 요소 33 – 1" xmlns="http://www.w3.org/2000/svg" width="704.022" height="486.303" viewBox="0 0 704.022 486.303">
  <path id="패스_1270" data-name="패스 1270" d="M178.181,353.673l3.977-3.977s10.164-17.676,0-16.351-10.164,10.164-10.164,10.164v10.164Z" transform="translate(-138.846 -177.083)" fill="#ffb6b6"/>
  <path id="패스_1278" data-name="패스 1278" d="M204.117,380.518l-6.629-1.326s-6.629,4.419-8.838,4.419-2.21,1.768-2.21,1.768-8.4-12.815-6.629-27.4c0,0-10.164-4.861-10.606-1.326s-3.977,43.749,3.535,46.4,33.143,3.093,33.143,3.093Z" transform="translate(-137.825 -182.716)" fill="#f98244"/>
  <g id="구성_요소_32_1" data-name="구성 요소 32 – 1">
    <path id="패스_1265" data-name="패스 1265" d="M691.036,119.274,599.7,181.7h134Z" transform="translate(-152.927 -30.414)" fill="#fff"/>
    <path id="패스_1266" data-name="패스 1266" d="M722.381,212.022H572.9l-45.571,31.149H743.672Z" transform="translate(-134.471 -54.066)" fill="#fff"/>
    <path id="패스_1267" data-name="패스 1267" d="M470.607,262.08,326.168,360.808,429.055,511.331,728.341,306.76,697.8,262.08Z" transform="translate(-83.174 -66.831)" fill="#fff"/>
    <ellipse id="타원_74" data-name="타원 74" cx="301.724" cy="14.9" rx="301.724" ry="14.9" transform="translate(100.575 456.503)" fill="#fff"/>
    <ellipse id="타원_75" data-name="타원 75" cx="86.792" cy="11.175" rx="86.792" ry="11.175" transform="translate(0 432.663)" fill="#fff"/>
    <ellipse id="타원_76" data-name="타원 76" cx="10.276" cy="5.949" rx="10.276" ry="5.949" transform="translate(228.261 251.603)" fill="#3f3d56"/>
    <path id="패스_1268" data-name="패스 1268" d="M603.586,380.825H372.638l5.679-20.444,4.911-17.686,8.34-30.018H585.2l8.1,30.018,5.544,20.552Z" transform="translate(-95.024 -79.733)" fill="#363534"/>
    <path id="패스_1269" data-name="패스 1269" d="M600.786,373.521H380.261v-2.866l4.911-17.686h210.07Z" transform="translate(-96.968 -90.008)" opacity="0.1"/>
    <rect id="사각형_243" data-name="사각형 243" width="30.018" height="23.257" transform="translate(223.529 255.66)" fill="#f98244"/>
    <rect id="사각형_244" data-name="사각형 244" width="382.928" height="204.445" transform="translate(201.894 267.018)" fill="#242424"/>
    <rect id="사각형_245" data-name="사각형 245" width="382.928" height="50.841" transform="translate(201.894 343.82)" fill="#f98244"/>
    <circle id="타원_77" data-name="타원 77" cx="94.921" cy="94.921" r="94.921" transform="translate(298.438 274.319)" fill="#363534"/>
    <circle id="타원_78" data-name="타원 78" cx="88.16" cy="88.16" r="88.16" transform="translate(305.198 281.08)" fill="#242424"/>
    <circle id="타원_79" data-name="타원 79" cx="67.067" cy="67.067" r="67.067" transform="translate(326.292 302.173)" fill="#363534"/>
    <circle id="타원_80" data-name="타원 80" cx="6.49" cy="6.49" r="6.49" transform="translate(519.378 274.59)" fill="#fe890e" opacity="0.2"/>
    <circle id="타원_81" data-name="타원 81" cx="6.49" cy="6.49" r="6.49" transform="translate(538.849 274.59)" fill="#f98244" opacity="0.5"/>
    <circle id="타원_82" data-name="타원 82" cx="6.49" cy="6.49" r="6.49" transform="translate(558.32 274.59)" fill="#f98244"/>
    <rect id="사각형_246" data-name="사각형 246" width="45.432" height="20.553" transform="translate(370.371 237.811)" fill="#242424"/>
    <path id="패스_1271" data-name="패스 1271" d="M392.059,414.093l3.977-1.326s10.606-15.909,11.931-8.838-5.3,16.792-5.3,16.792H392.059Z" transform="translate(-194.964 -194.638)" fill="#ffb6b6"/>
    <rect id="사각형_247" data-name="사각형 247" width="178.088" height="173.669" transform="matrix(0.97, 0.243, -0.243, 0.97, 82.797, 0.001)" fill="#292828"/>
    <rect id="사각형_248" data-name="사각형 248" width="152.944" height="107.176" transform="matrix(0.97, 0.243, -0.243, 0.97, 91.319, 13.263)" fill="#6b6a67" opacity="0.2"/>
    <ellipse id="타원_83" data-name="타원 83" cx="17.779" cy="14.804" rx="17.779" ry="14.804" transform="translate(84.424 144.993)" fill="#242424"/>
    <path id="패스_1272" data-name="패스 1272" d="M224.636,494.99s-6.629,18.118-7.954,64.077-2.651,74.682,3.093,78.66,14.141,3.093,14.583,2.21S237.01,581.6,237.01,581.6l11.49-42.865L261.315,567.9v50.819s9.722,8.838,13.7.442,6.629-51.261,6.629-51.261,4.861-72.915-3.535-81.753S224.636,494.99,224.636,494.99Z" transform="translate(-149.949 -215.436)" fill="#242424"/>
    <path id="패스_1273" data-name="패스 1273" d="M221.508,689.9s-4.861-4.419-8.838,1.326-17.234,18.118-14.141,20.328,19,3.093,20.77.884c0,0,12.815-5.745,12.815-7.07s-1.768-15.909-3.535-15.467S221.95,693.877,221.508,689.9Z" transform="translate(-145.494 -267.61)" fill="#242424"/>
    <path id="패스_1274" data-name="패스 1274" d="M282.371,661.39h8.564s-2.377,6.187-.168,6.187,22.537,16.792,14.583,18.56-30.492-6.187-31.375-8.838,3.093-14.583,3.093-14.583l5.3,2.651Z" transform="translate(-164.819 -260.754)" fill="#242424"/>
    <path id="패스_1275" data-name="패스 1275" d="M250.024,352.6s-.884,15.025-5.3,16.351,14.141,15.025,14.141,15.025l12.815-16.792s-4.861-8.4-3.093-14.583S250.024,352.6,250.024,352.6Z" transform="translate(-157.218 -181.309)" fill="#ffb6b6"/>
    <path id="패스_1276" data-name="패스 1276" d="M250.024,352.6s-.884,15.025-5.3,16.351,14.141,15.025,14.141,15.025l12.815-16.792s-4.861-8.4-3.093-14.583S250.024,352.6,250.024,352.6Z" transform="translate(-157.218 -181.309)" opacity="0.1"/>
    <path id="패스_1277" data-name="패스 1277" d="M248.667,374.524s-15.467-5.745-17.676-4.419-22.979,10.606-23.421,12.373,2.651,27.4,2.651,27.4,5.3,2.21,5.745,11.49,12.373,23.863,8.4,33.585-7.954,13.257-.442,14.583,41.539-.884,43.307-3.977,11.931-7.512,15.025-6.629-1.768-45.958-1.768-45.958l2.651-6.629,8.838-24.3s-13.257-15.025-26.072-13.7C265.9,368.338,251.76,370.106,248.667,374.524Z" transform="translate(-147.907 -186.003)" fill="#f98244"/>
    <path id="패스_1279" data-name="패스 1279" d="M310.954,385.568h6.187l16.35,16.351s3.977-.884,5.3,1.768,10.164,2.21,10.164,2.21l23.421,2.21s3.093,10.164.884,11.931-41.1,2.21-41.1,2.21-3.535-1.768-5.745,0-18.118-9.28-19.886-12.373S310.954,385.568,310.954,385.568Z" transform="translate(-173.073 -190.418)" fill="#f98244"/>
    <circle id="타원_84" data-name="타원 84" cx="16.351" cy="16.351" r="16.351" transform="translate(86.619 145.657)" fill="#ffb6b6"/>
    <path id="패스_1280" data-name="패스 1280" d="M251.785,324.416s-2.8-7.271,1.259-9.648l1.119,3.216s10.208-6.152,12.864-4.754l-2.517,3.356s11.885,0,12.724,4.614l-4.195.14s4.475,2.936,4.614,7.691l-8.949.559,4.335,2.517s-16.22,2.237-20.135-4.195Z" transform="translate(-158.953 -171.919)" fill="#242424"/>
    <path id="패스_1281" data-name="패스 1281" d="M244.064,328.914s4.738,4.659,10.871,2.359,0-10.732,0-10.732l-4.088-2.044Z" transform="translate(-157.224 -173.315)" fill="#242424"/>
    <rect id="사각형_249" data-name="사각형 249" width="16.39" height="16.39" transform="translate(155.816 102.157) rotate(-27.672)" fill="none" stroke="#f2f2f2" stroke-miterlimit="10" stroke-width="2"/>
    <rect id="사각형_250" data-name="사각형 250" width="16.39" height="16.39" transform="translate(119.921 81.004) rotate(30)" fill="#f98244"/>
    <circle id="타원_85" data-name="타원 85" cx="5.695" cy="5.695" r="5.695" transform="translate(412.513 205.439)" fill="#242424" stroke="#242424" stroke-miterlimit="10" stroke-width="2"/>
    <circle id="타원_86" data-name="타원 86" cx="11.695" cy="11.695" r="11.695" transform="translate(387.183 170.149)" fill="#242424" stroke="#3f3d56" stroke-miterlimit="10" stroke-width="2"/>
    <circle id="타원_87" data-name="타원 87" cx="8.195" cy="8.195" r="8.195" transform="translate(423.903 150.309)" fill="#242424" stroke="#3f3d56" stroke-miterlimit="10" stroke-width="2"/>
    <circle id="타원_88" data-name="타원 88" cx="8.195" cy="8.195" r="8.195" transform="translate(146.764 60.164)" fill="none" stroke="#f2f2f2" stroke-miterlimit="10" stroke-width="2"/>
  </g>
</svg>
