<svg id="구성_요소_37_1" data-name="구성 요소 37 – 1" xmlns="http://www.w3.org/2000/svg" width="623.41" height="272.643" viewBox="0 0 623.41 272.643">
  <path id="패스_1260" data-name="패스 1260" d="M31.566-26.673v-.5l-2.305-.251v-.8l8.466.838V6.058H31.566Zm-1.928-.712V6.058H23.478V-12.466H18.742v-1.341h4.736V-27.176l-2.305-.251v-.8ZM20-1.486l-5.113-9.807Q13.755-9.574,12.393-7.9A29.27,29.27,0,0,1,9.48-4.8,19.969,19.969,0,0,1,6.211-2.345,10.611,10.611,0,0,1,2.649-.983L1.224-1.989A13.929,13.929,0,0,0,4.241-4.734,34.392,34.392,0,0,0,7.007-8.527q1.3-2.054,2.41-4.233t1.907-4.128q.8-1.949,1.236-3.437A8.723,8.723,0,0,0,13-22.482H6.5l-1.97,1.006L2.607-22.482H2.481V-23.53H20.46l-.126,1.048-.922,2.892q-.419.838-.88,1.844-.461.838-1.048,2.012T16.1-13.262L22.3-1.486ZM57.257-26.841h3.395L50.593,4.549H42.714l9.807-30.636H41.08v-.754H57.257Zm20.075,5.113a11.5,11.5,0,0,1,3.814.629,10.592,10.592,0,0,1,3.143,1.7A8,8,0,0,1,86.4-16.867a6.544,6.544,0,0,1,.775,3.1,6.544,6.544,0,0,1-.775,3.1,8,8,0,0,1-2.116,2.536,10.592,10.592,0,0,1-3.143,1.7,11.5,11.5,0,0,1-3.814.629A11.441,11.441,0,0,1,73.5-6.431a10.649,10.649,0,0,1-3.122-1.7,8,8,0,0,1-2.116-2.536,6.544,6.544,0,0,1-.775-3.1,6.544,6.544,0,0,1,.775-3.1A8,8,0,0,1,70.374-19.4,10.649,10.649,0,0,1,73.5-21.1,11.441,11.441,0,0,1,77.331-21.728Zm0,14.165a3.769,3.769,0,0,0,1.949-.482,3.909,3.909,0,0,0,1.341-1.32,6.243,6.243,0,0,0,.775-1.97,11.191,11.191,0,0,0,.251-2.431A11.191,11.191,0,0,0,81.4-16.2a6.243,6.243,0,0,0-.775-1.97,4.1,4.1,0,0,0-1.341-1.341,3.646,3.646,0,0,0-1.949-.5,3.728,3.728,0,0,0-1.991.5A4.1,4.1,0,0,0,74-18.166a5.909,5.909,0,0,0-.754,1.97,12.171,12.171,0,0,0-.231,2.431,12.171,12.171,0,0,0,.231,2.431A5.909,5.909,0,0,0,74-9.365a3.909,3.909,0,0,0,1.341,1.32A3.855,3.855,0,0,0,77.331-7.563ZM87.431-22.4v1.09H70.081L68.53-20.261l-1.509-1.048H66.9V-22.4Zm-6.957-2.934v.8l-2.221.8H74.817v-.754ZM97.112-12.466V7.525H90.575V2.915H66.351v-.8h7.586V-7.563h6.538v9.01l-.084.671H90.575V-26.506L88.228-26.8v-.8l8.885.838v14.291Z" transform="translate(-1.224 28.224)" fill="#ff882b"/>
  <path id="패스_1261" data-name="패스 1261" d="M56.363-17.635a59.629,59.629,0,0,1,11.723,2.157,38.351,38.351,0,0,1,9.345,4.037,21.7,21.7,0,0,1,6.193,5.53A10.873,10.873,0,0,1,85.892.613a11.222,11.222,0,0,1-2.765,7.244,24.48,24.48,0,0,1-7.52,5.917,43.993,43.993,0,0,1-11.225,3.981,63.358,63.358,0,0,1-13.769,1.438A62.6,62.6,0,0,1,36.9,17.755a45.033,45.033,0,0,1-11.225-3.981A24.311,24.311,0,0,1,18.1,7.857,11.222,11.222,0,0,1,15.333.613a10.764,10.764,0,0,1,1.88-5.972,19.461,19.461,0,0,1,5.309-5.253,34.406,34.406,0,0,1,8.073-4.037A57.017,57.017,0,0,1,40.77-17.192q2.433-.332,4.866-.553t4.977-.221A50.131,50.131,0,0,1,56.363-17.635ZM50.612,15.1A26.556,26.556,0,0,0,58.354,14a21.6,21.6,0,0,0,6.414-3.1,15.116,15.116,0,0,0,4.313-4.645A11.017,11.017,0,0,0,70.63.613a11.017,11.017,0,0,0-1.548-5.64,14.549,14.549,0,0,0-4.313-4.59,23.56,23.56,0,0,0-6.414-3.1,26.386,26.386,0,0,0-15.483,0,22.694,22.694,0,0,0-6.359,3.1,14.783,14.783,0,0,0-4.258,4.59A11.017,11.017,0,0,0,30.705.613a11.017,11.017,0,0,0,1.548,5.64A15.375,15.375,0,0,0,36.512,10.9,20.853,20.853,0,0,0,42.871,14,26.556,26.556,0,0,0,50.612,15.1ZM57.69-41.081v14.267H40.659V-41.081ZM57.58-26.814H88.325l5.419-2.765,5.419,2.765v2.1H3.61v-2.1H57.58ZM58.8-68.729q0,2.654-.166,4.313t-.387,2.82a9.812,9.812,0,0,1-.664,2.157,22.042,22.042,0,0,0-.885,2.433l29.75,26.874H79.588L53.82-52.361A43.691,43.691,0,0,1,45.414-44.4a73.474,73.474,0,0,1-10.838,6.636,95.791,95.791,0,0,1-11.5,4.866,65.808,65.808,0,0,1-10.285,2.765l-1.659-3.1q7.52-5.53,13.216-10.009a96.61,96.61,0,0,0,9.511-8.405,34.661,34.661,0,0,0,5.751-7.52,16.383,16.383,0,0,0,2.046-7.354H38.447v-2.212H58.8Zm88.364,27.206a28.03,28.03,0,0,1-7.631,7.244,58.275,58.275,0,0,1-10.285,5.2,118.393,118.393,0,0,1-12.5,4.092Q110-23.164,102.481-21.174l-1.88-3.1a108.12,108.12,0,0,0,15.262-7.686,61.951,61.951,0,0,0,9.843-7.41,29.476,29.476,0,0,0,5.53-6.8,24.014,24.014,0,0,0,2.433-6.027,20.038,20.038,0,0,0,.608-5.032q-.055-2.212-.055-3.76H113.872l-5.419,2.875-5.419-2.875v-2.1h49.988a48.448,48.448,0,0,1-.94,10.07,33.618,33.618,0,0,1-2.71,7.957h14.709V-71.715L158-72.379v-2.1l23.335,2.2v57.184H164.082V-41.523Zm34.284,58.836v2.1H110.886v-32.4l19.354-.221V17.313h40.367l5.419-2.765ZM279.431,4.705v2.1H182.219v-2.1h37.934V-16.418h17.253V1.719l-.223,2.986h31.41l5.419-2.765ZM230.106-56.232a53.5,53.5,0,0,1,13.548,1.659,42.022,42.022,0,0,1,11.059,4.479,23.806,23.806,0,0,1,7.41,6.691,14.036,14.036,0,0,1,2.71,8.184,14.036,14.036,0,0,1-2.71,8.184,23.806,23.806,0,0,1-7.41,6.691,42.022,42.022,0,0,1-11.059,4.479,53.5,53.5,0,0,1-13.548,1.659,52.852,52.852,0,0,1-13.492-1.659,42.136,42.136,0,0,1-11-4.479,23.805,23.805,0,0,1-7.41-6.691,14.036,14.036,0,0,1-2.71-8.184A14.036,14.036,0,0,1,198.2-43.4a23.805,23.805,0,0,1,7.41-6.691,42.136,42.136,0,0,1,11-4.479A52.852,52.852,0,0,1,230.106-56.232Zm0,37.381a22.875,22.875,0,0,0,7.686-1.272,20.158,20.158,0,0,0,6.249-3.484,16.756,16.756,0,0,0,4.2-5.2,13.733,13.733,0,0,0,1.548-6.414,13.733,13.733,0,0,0-1.548-6.414,16.756,16.756,0,0,0-4.2-5.2,21.05,21.05,0,0,0-6.249-3.539,22.015,22.015,0,0,0-7.686-1.327,21.559,21.559,0,0,0-7.631,1.327,21.215,21.215,0,0,0-6.193,3.539,16.756,16.756,0,0,0-4.2,5.2,13.733,13.733,0,0,0-1.548,6.414,13.733,13.733,0,0,0,1.548,6.414,16.756,16.756,0,0,0,4.2,5.2,20.3,20.3,0,0,0,6.193,3.484A22.4,22.4,0,0,0,230.106-18.851ZM265.717-58v2.875H204.67l-5.419,2.765-5.419-2.765H193.5V-58Zm-24.662-7.852V-63.7l-7.742,2.157H221.259v-2.043Z" transform="translate(-0.832 132.553)"/>
  <path id="패스_1262" data-name="패스 1262" d="M99.052-72.19V16.064H82.906V-32.487H73.174V16.064H57.027v-87.7L50.834-72.3v-2.1l22.34,2.219v36.157h9.732v-35.6l-6.193-.665V-74.4ZM35.24-5.17a54.492,54.492,0,0,0,6.691-.5q3.926-.5,7.686-1.051,4.313-.664,8.958-1.548v2.1q-4.534.885-8.848,1.548-3.65.553-7.631,1.051a56.429,56.429,0,0,1-6.857.5H3.61V-59.361h41.8v2.1H20.863V-5.17Zm80.733,1.327-5.419-2.765v-2.1h71.665V18.276l-19.354.111V-6.608H121.392Zm80.07-41.583v3.539h-14.6v25.437H164.192V-72.08l-6.083-.774v-2.1l23.335,2.212v27.317ZM127.807-57.371a38.086,38.086,0,0,1,10.617,1.438,30.922,30.922,0,0,1,8.626,3.871,20.081,20.081,0,0,1,5.806,5.751,12.761,12.761,0,0,1,2.157,7.078,12.5,12.5,0,0,1-2.157,7.023,21.041,21.041,0,0,1-5.806,5.751,29.962,29.962,0,0,1-8.626,3.926A38.086,38.086,0,0,1,127.807-21.1a37.5,37.5,0,0,1-10.562-1.438,30.07,30.07,0,0,1-8.571-3.926,21.041,21.041,0,0,1-5.806-5.751,12.5,12.5,0,0,1-2.157-7.023,12.761,12.761,0,0,1,2.157-7.078,20.081,20.081,0,0,1,5.806-5.751,31.042,31.042,0,0,1,8.571-3.871A37.5,37.5,0,0,1,127.807-57.371Zm0,32.293a13.508,13.508,0,0,0,5.64-1.106,11.666,11.666,0,0,0,4.092-3.041,13.637,13.637,0,0,0,2.544-4.534,16.869,16.869,0,0,0,.885-5.474,16.724,16.724,0,0,0-.885-5.53,13.745,13.745,0,0,0-2.544-4.479,11.666,11.666,0,0,0-4.092-3.041,13.508,13.508,0,0,0-5.64-1.106,13.508,13.508,0,0,0-5.64,1.106,11.666,11.666,0,0,0-4.092,3.041,13.745,13.745,0,0,0-2.544,4.479,16.725,16.725,0,0,0-.885,5.53,16.87,16.87,0,0,0,.885,5.474,13.637,13.637,0,0,0,2.544,4.534,11.666,11.666,0,0,0,4.092,3.041A13.508,13.508,0,0,0,127.807-25.077Zm26.874-33.178v2.875H108.011l-5.419,2.765L97.172-55.38h-.332v-2.875ZM136.654-66v2.1l-7.742,2.1H116.858v-1.991ZM292.149-36.026v3.539H266.823v-3.539ZM277.44-72.633V19.05H260.188V-72.08l-6.193-.664v-2.1Zm-41.362,8.847q0,3.871-.387,8.129t-1.051,8.46a79.712,79.712,0,0,1-1.659,7.963A49.866,49.866,0,0,1,230.77-32.6L250.787-3.069H244.7L228.115-27.621A34.442,34.442,0,0,1,221.48-19.6a64.9,64.9,0,0,1-8.9,6.746,96.12,96.12,0,0,1-9.9,5.474q-5.087,2.433-9.732,4.313l-1.88-3.207a44.517,44.517,0,0,0,9.622-8.516,60.794,60.794,0,0,0,6.967-10.175A64.645,64.645,0,0,0,212.3-35.694a102.065,102.065,0,0,0,2.82-10.341,90.517,90.517,0,0,0,1.493-8.958q.442-4.037.553-6.58h-3.65v-2.212h22.561ZM370.45,14.184l5.419,2.765v2.1H304.2V-7.935l19.354-.111V16.948h41.473Zm6.857-86.927v56.292H360.054V-72.08l-6.083-.774v-2.1Zm-37.27,27.1L357.621-21.87h-6.083L337.05-41.777a37.371,37.371,0,0,1-7.244,6.857,88.33,88.33,0,0,1-9.843,6.359,79.615,79.615,0,0,1-10.672,4.977,48.691,48.691,0,0,1-9.843,2.71l-3.428-1.991a39.233,39.233,0,0,0,7.3-5.253,83.555,83.555,0,0,0,6.967-7.023q3.318-3.76,6.193-7.686a83.254,83.254,0,0,0,4.921-7.465,65.824,65.824,0,0,0,3.263-6.3,11.657,11.657,0,0,0,1.217-4.092H310.618L305.974-58.7l-4.645-1.991h-.442v-2.1h47q-1.217,3.428-2.544,6.636-1.217,2.765-2.6,5.7A32.433,32.433,0,0,1,340.036-45.648Zm96.548,31.3a57,57,0,0,1,11.723,2.212,39.842,39.842,0,0,1,9.345,4.092,21.7,21.7,0,0,1,6.193,5.53,10.873,10.873,0,0,1,2.267,6.525,11.222,11.222,0,0,1-2.765,7.244,24.481,24.481,0,0,1-7.52,5.917A43.994,43.994,0,0,1,444.6,21.151a63.358,63.358,0,0,1-13.769,1.438,62.6,62.6,0,0,1-13.714-1.438A45.033,45.033,0,0,1,405.9,17.17a24.311,24.311,0,0,1-7.576-5.917,11.222,11.222,0,0,1-2.765-7.244,10.763,10.763,0,0,1,1.88-5.972,19.46,19.46,0,0,1,5.308-5.253,34.406,34.406,0,0,1,8.073-4.037A57.017,57.017,0,0,1,420.991-13.8a58.578,58.578,0,0,1,9.843-.774q1.548,0,2.931.055T436.585-14.35ZM430.834,18.5a26.556,26.556,0,0,0,7.742-1.106,21.6,21.6,0,0,0,6.414-3.1A15.116,15.116,0,0,0,449.3,9.649a11.048,11.048,0,0,0,0-11.281,14.549,14.549,0,0,0-4.313-4.59,23.56,23.56,0,0,0-6.414-3.1,26.386,26.386,0,0,0-15.483,0,22.7,22.7,0,0,0-6.359,3.1,14.784,14.784,0,0,0-4.258,4.59,11.048,11.048,0,0,0,0,11.281,15.375,15.375,0,0,0,4.258,4.645,20.854,20.854,0,0,0,6.359,3.1A26.555,26.555,0,0,0,430.834,18.5Zm49.435-63.923v3.539h-14.6v25.437H448.418V-72.08l-6.083-.774v-2.1l23.335,2.212v27.317Zm-56.4-20.46q0,3.1-.221,5.364t-.608,4.424a43.209,43.209,0,0,1-1.106,4.59q-.719,2.433-1.714,5.751L443-20.764h-6.525l-18.69-19.575a20.229,20.229,0,0,1-5.806,8.295,36.24,36.24,0,0,1-8.295,5.253,60.19,60.19,0,0,1-9.124,3.318q-4.645,1.272-8.405,2.6l-2.875-3.539A136.7,136.7,0,0,0,393.84-36.081a69.99,69.99,0,0,0,6.636-9.843,35.978,35.978,0,0,0,3.484-8.792,41.465,41.465,0,0,0,1.106-8.516H402.19v-2.654h21.676Z" transform="translate(-0.832 250.054)"/>
  <path id="패스_1242" data-name="패스 1242" d="M64.18,138.3a.481.481,0,0,1-.481-.481v-.684a.48.48,0,0,1,.481-.479h.685a.479.479,0,1,1,0,.959h-.2v.206a.482.482,0,0,1-.481.479" transform="translate(358.625 -133.319)" fill="#fff"/>
  <path id="패스_1246" data-name="패스 1246" d="M82.03,161.384h-.678a.475.475,0,0,1-.475-.478v-.676a.474.474,0,1,1,.948,0v.2h.205a.475.475,0,1,1,0,.95" transform="translate(361.357 -113.726)" fill="#fff"/>
  <g id="구성_요소_36_1" data-name="구성 요소 36 – 1" transform="translate(477.15 22.597)">
    <path id="패스_1243" data-name="패스 1243" d="M194.536,148.5h-.684a.48.48,0,0,1-.48-.479v-.685a.48.48,0,1,1,.959,0v.207h.206a.479.479,0,0,1,.482.48.485.485,0,0,1-.484.478" transform="translate(-67.649 -143.862)" fill="#fff"/>
    <path id="패스_1244" data-name="패스 1244" d="M196.389,148.3h-.851a.48.48,0,1,1,0-.959h.851a.48.48,0,1,1,0,.959" transform="translate(-66.944 -143.66)" fill="#fff"/>
    <path id="패스_1245" data-name="패스 1245" d="M198.023,148.5h-.684a.48.48,0,0,1,0-.959h.206v-.207a.481.481,0,0,1,.962,0v.685a.487.487,0,0,1-.484.481" transform="translate(-66.189 -143.863)" fill="#fff"/>
    <path id="패스_1247" data-name="패스 1247" d="M150.917,182.79h-.685a.48.48,0,0,1-.48-.482v-.682a.48.48,0,0,1,.959,0v.206h.206a.48.48,0,1,1,0,.959" transform="translate(-85.912 -129.505)" fill="#fff"/>
    <path id="패스_1248" data-name="패스 1248" d="M153.229,182.588h-1.043a.48.48,0,1,1,0-.96h1.043a.48.48,0,1,1,0,.96" transform="translate(-85.094 -129.304)" fill="#fff"/>
    <path id="패스_1249" data-name="패스 1249" d="M155.077,182.791h-.685a.48.48,0,0,1,0-.96h.206v-.206a.479.479,0,1,1,.959,0v.682a.481.481,0,0,1-.479.484" transform="translate(-84.17 -129.506)" fill="#fff"/>
    <path id="패스_1250" data-name="패스 1250" d="M191.439,146.024a73.11,73.11,0,0,0-73.011,114.424q-4.628,11.7-9.254,23.41l-1.382,3.494,3.577-1.155,25.034-8.091a72.394,72.394,0,0,0,27.888,11.623,73.124,73.124,0,1,0,27.148-143.706" transform="translate(-104.753 -144.746)"/>
    <path id="패스_1251" data-name="패스 1251" d="M189.637,169.982v8.4h4v-12.4h-12.4v4Z" transform="translate(-72.729 -135.856)" fill="#fff"/>
    <path id="패스_1252" data-name="패스 1252" d="M126.644,169.982h8.4v-4h-12.4v12.4h4Z" transform="translate(-97.262 -135.856)" fill="#fff"/>
    <path id="패스_1253" data-name="패스 1253" d="M189.637,227.96h-8.4v4h12.4v-12.4h-4Z" transform="translate(-72.729 -113.42)" fill="#fff"/>
    <path id="패스_1254" data-name="패스 1254" d="M126.644,227.96v-8.4h-4v12.4h12.4v-4Z" transform="translate(-97.262 -113.42)" fill="#fff"/>
    <g id="그룹_314" data-name="그룹 314" transform="translate(32.145 60.049)">
      <path id="패스_1255" data-name="패스 1255" d="M136.245,200.023v-5.5h4.123v5.5h13.268v3.415H127.411v-3.415Zm11.593-1.329h-4a30.3,30.3,0,0,0,1.146-7.432H131.905V187.72h17.265A48.737,48.737,0,0,1,147.839,198.693Zm-7.223,5.661c4.029,0,7.285,2.941,7.285,6.452,0,3.479-3.254,6.42-7.285,6.42s-7.285-2.941-7.285-6.42C133.331,207.3,136.586,204.354,140.616,204.354Zm-.094,9.521a3.086,3.086,0,1,0-3.131-3.069A3.128,3.128,0,0,0,140.522,213.875Z" transform="translate(-127.411 -186.802)" fill="#f97e1f"/>
      <path id="패스_1256" data-name="패스 1256" d="M157.991,200.832h-6.014V188.054h16.15v12.778h-6.106v4.11H172.9v3.511H147.266v-3.511h10.725v-4.11Zm-1.89-9.395v6.008h7.811v-6.008Z" transform="translate(-119.098 -186.662)" fill="#f97e1f"/>
      <path id="패스_1257" data-name="패스 1257" d="M172.951,191.786h-4.96v-3.447H182.22v3.447h-4.96v1.265a8.459,8.459,0,0,0,1.552,4.649,13.9,13.9,0,0,0,4.772,3.762l-2.077,2.911a15.886,15.886,0,0,1-3.256-1.962,14.588,14.588,0,0,1-2.944-2.941,16.982,16.982,0,0,1-2.511,2.878,17.473,17.473,0,0,1-3.628,2.751l-2.572-2.783a17.019,17.019,0,0,0,4.805-4.3,9.722,9.722,0,0,0,1.549-4.9v-1.328Zm.931,14.706H178v6.072h12.71v3.511H173.882Zm12.09-12.683v-6.736h4.093v21.316h-4.093V197.1h-5.208v-3.288Z" transform="translate(-111.004 -187.073)" fill="#f97e1f"/>
    </g>
  </g>
</svg>
