<svg id="구성_요소_51_1" data-name="구성 요소 51 – 1" xmlns="http://www.w3.org/2000/svg" width="935.065" height="333.198" viewBox="0 0 935.065 333.198">
  <path id="패스_1260" data-name="패스 1260" d="M38.433-26.322v-.617l-2.827-.308v-.976L45.988-27.2V13.816H38.433ZM36.069-27.2V13.816H28.514V-8.9H22.706v-1.645h5.807V-26.939l-2.827-.308v-.976ZM24.248,4.565,17.978-7.461Q16.591-5.354,14.92-3.3A35.894,35.894,0,0,1,11.349.5,24.488,24.488,0,0,1,7.34,3.511a13.012,13.012,0,0,1-4.368,1.67L1.224,3.948A17.081,17.081,0,0,0,4.924.582,42.175,42.175,0,0,0,8.316-4.069Q9.909-6.587,11.271-9.26t2.338-5.062q.976-2.39,1.516-4.214a10.7,10.7,0,0,0,.54-2.647H7.7L5.284-19.95,2.92-21.183H2.766v-1.285H24.814l-.154,1.285-1.131,3.546q-.514,1.028-1.079,2.261-.565,1.028-1.285,2.467t-1.7,3.032L27.075,4.565ZM69.937-26.528H74.1L61.765,11.966H52.1L64.13-25.6H50.1v-.925H69.937Zm24.617,6.27a14.1,14.1,0,0,1,4.677.771,12.989,12.989,0,0,1,3.855,2.081,9.805,9.805,0,0,1,2.6,3.109,8.024,8.024,0,0,1,.951,3.8,8.024,8.024,0,0,1-.951,3.8,9.805,9.805,0,0,1-2.6,3.109A12.989,12.989,0,0,1,99.231-1.5a14.1,14.1,0,0,1-4.677.771,14.03,14.03,0,0,1-4.7-.771,13.059,13.059,0,0,1-3.829-2.081,9.805,9.805,0,0,1-2.6-3.109,8.025,8.025,0,0,1-.951-3.8,8.025,8.025,0,0,1,.951-3.8,9.805,9.805,0,0,1,2.6-3.109,13.059,13.059,0,0,1,3.829-2.081A14.03,14.03,0,0,1,94.554-20.258Zm0,17.371a4.622,4.622,0,0,0,2.39-.591A4.794,4.794,0,0,0,98.589-5.1a7.655,7.655,0,0,0,.951-2.415,13.723,13.723,0,0,0,.308-2.981,13.723,13.723,0,0,0-.308-2.981,7.655,7.655,0,0,0-.951-2.415,5.03,5.03,0,0,0-1.645-1.645,4.471,4.471,0,0,0-2.39-.617,4.572,4.572,0,0,0-2.441.617,5.03,5.03,0,0,0-1.645,1.645,7.246,7.246,0,0,0-.925,2.415,14.926,14.926,0,0,0-.283,2.981,14.926,14.926,0,0,0,.283,2.981A7.246,7.246,0,0,0,90.469-5.1a4.794,4.794,0,0,0,1.645,1.619A4.728,4.728,0,0,0,94.554-2.887ZM106.94-21.08v1.336H85.663l-1.9,1.285-1.85-1.285h-.154V-21.08Zm-8.531-3.6v.976l-2.724.976H91.471v-.925ZM118.812-8.9V15.615h-8.017V9.961H81.089V8.985h9.3V-2.887h8.017V8.163l-.1.822h12.489v-35.1l-2.878-.36v-.976l10.9,1.028V-8.9Z" transform="translate(35.431 97.537)" fill="#ff882b"/>
  <path id="패스_1261" data-name="패스 1261" d="M56.363-17.635a59.629,59.629,0,0,1,11.723,2.157,38.351,38.351,0,0,1,9.345,4.037,21.7,21.7,0,0,1,6.193,5.53A10.873,10.873,0,0,1,85.892.613a11.222,11.222,0,0,1-2.765,7.244,24.48,24.48,0,0,1-7.52,5.917,43.993,43.993,0,0,1-11.225,3.981,63.358,63.358,0,0,1-13.769,1.438A62.6,62.6,0,0,1,36.9,17.755a45.033,45.033,0,0,1-11.225-3.981A24.311,24.311,0,0,1,18.1,7.857,11.222,11.222,0,0,1,15.333.613a10.764,10.764,0,0,1,1.88-5.972,19.461,19.461,0,0,1,5.309-5.253,34.406,34.406,0,0,1,8.073-4.037A57.017,57.017,0,0,1,40.77-17.192q2.433-.332,4.866-.553t4.977-.221A50.131,50.131,0,0,1,56.363-17.635ZM50.612,15.1A26.556,26.556,0,0,0,58.354,14a21.6,21.6,0,0,0,6.414-3.1,15.116,15.116,0,0,0,4.313-4.645A11.017,11.017,0,0,0,70.63.613a11.017,11.017,0,0,0-1.548-5.64,14.549,14.549,0,0,0-4.313-4.59,23.56,23.56,0,0,0-6.414-3.1,26.386,26.386,0,0,0-15.483,0,22.694,22.694,0,0,0-6.359,3.1,14.783,14.783,0,0,0-4.258,4.59A11.017,11.017,0,0,0,30.705.613a11.017,11.017,0,0,0,1.548,5.64A15.375,15.375,0,0,0,36.512,10.9,20.853,20.853,0,0,0,42.871,14,26.556,26.556,0,0,0,50.612,15.1ZM57.69-41.081v14.267H40.659V-41.081ZM57.58-26.814H88.325l5.419-2.765,5.419,2.765v2.1H3.61v-2.1H57.58ZM58.8-68.729q0,2.654-.166,4.313t-.387,2.82a9.812,9.812,0,0,1-.664,2.157,22.042,22.042,0,0,0-.885,2.433l29.75,26.874H79.588L53.82-52.361A43.691,43.691,0,0,1,45.414-44.4a73.474,73.474,0,0,1-10.838,6.636,95.791,95.791,0,0,1-11.5,4.866,65.808,65.808,0,0,1-10.285,2.765l-1.659-3.1q7.52-5.53,13.216-10.009a96.61,96.61,0,0,0,9.511-8.405,34.661,34.661,0,0,0,5.751-7.52,16.383,16.383,0,0,0,2.046-7.354H38.447v-2.212H58.8Zm88.364,27.206a28.03,28.03,0,0,1-7.631,7.244,58.275,58.275,0,0,1-10.285,5.2,118.393,118.393,0,0,1-12.5,4.092Q110-23.164,102.481-21.174l-1.88-3.1a108.12,108.12,0,0,0,15.262-7.686,61.951,61.951,0,0,0,9.843-7.41,29.476,29.476,0,0,0,5.53-6.8,24.014,24.014,0,0,0,2.433-6.027,20.038,20.038,0,0,0,.608-5.032q-.055-2.212-.055-3.76H113.872l-5.419,2.875-5.419-2.875v-2.1h49.988a48.448,48.448,0,0,1-.94,10.07,33.618,33.618,0,0,1-2.71,7.957h14.709V-71.715L158-72.379v-2.1l23.335,2.2v57.184H164.082V-41.523Zm34.284,58.836v2.1H110.886v-32.4l19.354-.221V17.313h40.367l5.419-2.765ZM279.431,4.705v2.1H182.219v-2.1h37.934V-16.418h17.253V1.719l-.223,2.986h31.41l5.419-2.765ZM230.106-56.232a53.5,53.5,0,0,1,13.548,1.659,42.022,42.022,0,0,1,11.059,4.479,23.806,23.806,0,0,1,7.41,6.691,14.036,14.036,0,0,1,2.71,8.184,14.036,14.036,0,0,1-2.71,8.184,23.806,23.806,0,0,1-7.41,6.691,42.022,42.022,0,0,1-11.059,4.479,53.5,53.5,0,0,1-13.548,1.659,52.852,52.852,0,0,1-13.492-1.659,42.136,42.136,0,0,1-11-4.479,23.805,23.805,0,0,1-7.41-6.691,14.036,14.036,0,0,1-2.71-8.184A14.036,14.036,0,0,1,198.2-43.4a23.805,23.805,0,0,1,7.41-6.691,42.136,42.136,0,0,1,11-4.479A52.852,52.852,0,0,1,230.106-56.232Zm0,37.381a22.875,22.875,0,0,0,7.686-1.272,20.158,20.158,0,0,0,6.249-3.484,16.756,16.756,0,0,0,4.2-5.2,13.733,13.733,0,0,0,1.548-6.414,13.733,13.733,0,0,0-1.548-6.414,16.756,16.756,0,0,0-4.2-5.2,21.05,21.05,0,0,0-6.249-3.539,22.015,22.015,0,0,0-7.686-1.327,21.559,21.559,0,0,0-7.631,1.327,21.215,21.215,0,0,0-6.193,3.539,16.756,16.756,0,0,0-4.2,5.2,13.733,13.733,0,0,0-1.548,6.414,13.733,13.733,0,0,0,1.548,6.414,16.756,16.756,0,0,0,4.2,5.2,20.3,20.3,0,0,0,6.193,3.484A22.4,22.4,0,0,0,230.106-18.851ZM265.717-58v2.875H204.67l-5.419,2.765-5.419-2.765H193.5V-58Zm-24.662-7.852V-63.7l-7.742,2.157H221.259v-2.043Z" transform="translate(32.823 216.957)"/>
  <path id="패스_1262" data-name="패스 1262" d="M99.052-72.19V16.064H82.906V-32.487H73.174V16.064H57.027v-87.7L50.834-72.3v-2.1l22.34,2.219v36.157h9.732v-35.6l-6.193-.665V-74.4ZM35.24-5.17a54.492,54.492,0,0,0,6.691-.5q3.926-.5,7.686-1.051,4.313-.664,8.958-1.548v2.1q-4.534.885-8.848,1.548-3.65.553-7.631,1.051a56.429,56.429,0,0,1-6.857.5H3.61V-59.361h41.8v2.1H20.863V-5.17Zm80.733,1.327-5.419-2.765v-2.1h71.665V18.276l-19.354.111V-6.608H121.392Zm80.07-41.583v3.539h-14.6v25.437H164.192V-72.08l-6.083-.774v-2.1l23.335,2.212v27.317ZM127.807-57.371a38.086,38.086,0,0,1,10.617,1.438,30.922,30.922,0,0,1,8.626,3.871,20.081,20.081,0,0,1,5.806,5.751,12.761,12.761,0,0,1,2.157,7.078,12.5,12.5,0,0,1-2.157,7.023,21.041,21.041,0,0,1-5.806,5.751,29.962,29.962,0,0,1-8.626,3.926A38.086,38.086,0,0,1,127.807-21.1a37.5,37.5,0,0,1-10.562-1.438,30.07,30.07,0,0,1-8.571-3.926,21.041,21.041,0,0,1-5.806-5.751,12.5,12.5,0,0,1-2.157-7.023,12.761,12.761,0,0,1,2.157-7.078,20.081,20.081,0,0,1,5.806-5.751,31.042,31.042,0,0,1,8.571-3.871A37.5,37.5,0,0,1,127.807-57.371Zm0,32.293a13.508,13.508,0,0,0,5.64-1.106,11.666,11.666,0,0,0,4.092-3.041,13.637,13.637,0,0,0,2.544-4.534,16.869,16.869,0,0,0,.885-5.474,16.724,16.724,0,0,0-.885-5.53,13.745,13.745,0,0,0-2.544-4.479,11.666,11.666,0,0,0-4.092-3.041,13.508,13.508,0,0,0-5.64-1.106,13.508,13.508,0,0,0-5.64,1.106,11.666,11.666,0,0,0-4.092,3.041,13.745,13.745,0,0,0-2.544,4.479,16.725,16.725,0,0,0-.885,5.53,16.87,16.87,0,0,0,.885,5.474,13.637,13.637,0,0,0,2.544,4.534,11.666,11.666,0,0,0,4.092,3.041A13.508,13.508,0,0,0,127.807-25.077Zm26.874-33.178v2.875H108.011l-5.419,2.765L97.172-55.38h-.332v-2.875ZM136.654-66v2.1l-7.742,2.1H116.858v-1.991ZM292.149-36.026v3.539H266.823v-3.539ZM277.44-72.633V19.05H260.188V-72.08l-6.193-.664v-2.1Zm-41.362,8.847q0,3.871-.387,8.129t-1.051,8.46a79.712,79.712,0,0,1-1.659,7.963A49.866,49.866,0,0,1,230.77-32.6L250.787-3.069H244.7L228.115-27.621A34.442,34.442,0,0,1,221.48-19.6a64.9,64.9,0,0,1-8.9,6.746,96.12,96.12,0,0,1-9.9,5.474q-5.087,2.433-9.732,4.313l-1.88-3.207a44.517,44.517,0,0,0,9.622-8.516,60.794,60.794,0,0,0,6.967-10.175A64.645,64.645,0,0,0,212.3-35.694a102.065,102.065,0,0,0,2.82-10.341,90.517,90.517,0,0,0,1.493-8.958q.442-4.037.553-6.58h-3.65v-2.212h22.561ZM370.45,14.184l5.419,2.765v2.1H304.2V-7.935l19.354-.111V16.948h41.473Zm6.857-86.927v56.292H360.054V-72.08l-6.083-.774v-2.1Zm-37.27,27.1L357.621-21.87h-6.083L337.05-41.777a37.371,37.371,0,0,1-7.244,6.857,88.33,88.33,0,0,1-9.843,6.359,79.615,79.615,0,0,1-10.672,4.977,48.691,48.691,0,0,1-9.843,2.71l-3.428-1.991a39.233,39.233,0,0,0,7.3-5.253,83.555,83.555,0,0,0,6.967-7.023q3.318-3.76,6.193-7.686a83.254,83.254,0,0,0,4.921-7.465,65.824,65.824,0,0,0,3.263-6.3,11.657,11.657,0,0,0,1.217-4.092H310.618L305.974-58.7l-4.645-1.991h-.442v-2.1h47q-1.217,3.428-2.544,6.636-1.217,2.765-2.6,5.7A32.433,32.433,0,0,1,340.036-45.648Zm96.548,31.3a57,57,0,0,1,11.723,2.212,39.842,39.842,0,0,1,9.345,4.092,21.7,21.7,0,0,1,6.193,5.53,10.873,10.873,0,0,1,2.267,6.525,11.222,11.222,0,0,1-2.765,7.244,24.481,24.481,0,0,1-7.52,5.917A43.994,43.994,0,0,1,444.6,21.151a63.358,63.358,0,0,1-13.769,1.438,62.6,62.6,0,0,1-13.714-1.438A45.033,45.033,0,0,1,405.9,17.17a24.311,24.311,0,0,1-7.576-5.917,11.222,11.222,0,0,1-2.765-7.244,10.763,10.763,0,0,1,1.88-5.972,19.46,19.46,0,0,1,5.308-5.253,34.406,34.406,0,0,1,8.073-4.037A57.017,57.017,0,0,1,420.991-13.8a58.578,58.578,0,0,1,9.843-.774q1.548,0,2.931.055T436.585-14.35ZM430.834,18.5a26.556,26.556,0,0,0,7.742-1.106,21.6,21.6,0,0,0,6.414-3.1A15.116,15.116,0,0,0,449.3,9.649a11.048,11.048,0,0,0,0-11.281,14.549,14.549,0,0,0-4.313-4.59,23.56,23.56,0,0,0-6.414-3.1,26.386,26.386,0,0,0-15.483,0,22.7,22.7,0,0,0-6.359,3.1,14.784,14.784,0,0,0-4.258,4.59,11.048,11.048,0,0,0,0,11.281,15.375,15.375,0,0,0,4.258,4.645,20.854,20.854,0,0,0,6.359,3.1A26.555,26.555,0,0,0,430.834,18.5Zm49.435-63.923v3.539h-14.6v25.437H448.418V-72.08l-6.083-.774v-2.1l23.335,2.212v27.317Zm-56.4-20.46q0,3.1-.221,5.364t-.608,4.424a43.209,43.209,0,0,1-1.106,4.59q-.719,2.433-1.714,5.751L443-20.764h-6.525l-18.69-19.575a20.229,20.229,0,0,1-5.806,8.295,36.24,36.24,0,0,1-8.295,5.253,60.19,60.19,0,0,1-9.124,3.318q-4.645,1.272-8.405,2.6l-2.875-3.539A136.7,136.7,0,0,0,393.84-36.081a69.99,69.99,0,0,0,6.636-9.843,35.978,35.978,0,0,0,3.484-8.792,41.465,41.465,0,0,0,1.106-8.516H402.19v-2.654h21.676Z" transform="translate(333.823 218.458)"/>
  <path id="패스_1242" data-name="패스 1242" d="M64.18,138.3a.481.481,0,0,1-.481-.481v-.684a.48.48,0,0,1,.481-.479h.685a.479.479,0,1,1,0,.959h-.2v.206a.482.482,0,0,1-.481.479" transform="translate(392.28 -48.915)" fill="#fff"/>
  <path id="패스_1246" data-name="패스 1246" d="M82.03,161.384h-.678a.475.475,0,0,1-.475-.478v-.676a.474.474,0,1,1,.948,0v.2h.205a.475.475,0,1,1,0,.95" transform="translate(395.012 -29.322)" fill="#fff"/>
  <g id="구성_요소_36_1" data-name="구성 요소 36 – 1" transform="translate(803.806)">
    <path id="패스_1243" data-name="패스 1243" d="M194.536,148.5h-.684a.48.48,0,0,1-.48-.479v-.685a.48.48,0,1,1,.959,0v.207h.206a.479.479,0,0,1,.482.48.485.485,0,0,1-.484.478" transform="translate(-82.649 -143.862)" fill="#fff"/>
    <path id="패스_1244" data-name="패스 1244" d="M196.389,148.3h-.851a.48.48,0,1,1,0-.959h.851a.48.48,0,1,1,0,.959" transform="translate(-81.944 -143.66)" fill="#fff"/>
    <path id="패스_1245" data-name="패스 1245" d="M198.023,148.5h-.684a.48.48,0,0,1,0-.959h.206v-.207a.481.481,0,0,1,.962,0v.685a.487.487,0,0,1-.484.481" transform="translate(-81.189 -143.863)" fill="#fff"/>
    <path id="패스_1247" data-name="패스 1247" d="M150.917,182.79h-.685a.48.48,0,0,1-.48-.482v-.682a.48.48,0,0,1,.959,0v.206h.206a.48.48,0,1,1,0,.959" transform="translate(-92.534 -134.862)" fill="#fff"/>
    <path id="패스_1248" data-name="패스 1248" d="M153.229,182.588h-1.043a.48.48,0,1,1,0-.96h1.043a.48.48,0,1,1,0,.96" transform="translate(-92.021 -134.705)" fill="#fff"/>
    <path id="패스_1249" data-name="패스 1249" d="M155.077,182.791h-.685a.48.48,0,0,1,0-.96h.206v-.206a.479.479,0,1,1,.959,0v.682a.481.481,0,0,1-.479.484" transform="translate(-91.404 -134.862)" fill="#fff"/>
    <path id="패스_1250" data-name="패스 1250" d="M182.549,145.893a65.612,65.612,0,0,0-65.523,102.689q-4.154,10.5-8.305,21.009l-1.24,3.136,3.21-1.036,22.467-7.261a64.969,64.969,0,0,0,25.028,10.431,65.624,65.624,0,1,0,24.364-128.968" transform="translate(-104.753 -144.746)"/>
    <path id="패스_1251" data-name="패스 1251" d="M189.637,169.982v8.4h4v-12.4h-12.4v4Z" transform="translate(-84.889 -139.231)" fill="#fff"/>
    <path id="패스_1252" data-name="패스 1252" d="M126.644,169.982h8.4v-4h-12.4v12.4h4Z" transform="translate(-100.106 -139.231)" fill="#fff"/>
    <path id="패스_1253" data-name="패스 1253" d="M189.637,227.96h-8.4v4h12.4v-12.4h-4Z" transform="translate(-84.889 -125.314)" fill="#fff"/>
    <path id="패스_1254" data-name="패스 1254" d="M126.644,227.96v-8.4h-4v12.4h12.4v-4Z" transform="translate(-100.106 -125.314)" fill="#fff"/>
    <g id="그룹_314" data-name="그룹 314" transform="translate(24.9 52.273)">
      <path id="패스_1255" data-name="패스 1255" d="M136.245,200.023v-5.5h4.123v5.5h13.268v3.415H127.411v-3.415Zm11.593-1.329h-4a30.3,30.3,0,0,0,1.146-7.432H131.905V187.72h17.265A48.737,48.737,0,0,1,147.839,198.693Zm-7.223,5.661c4.029,0,7.285,2.941,7.285,6.452,0,3.479-3.254,6.42-7.285,6.42s-7.285-2.941-7.285-6.42C133.331,207.3,136.586,204.354,140.616,204.354Zm-.094,9.521a3.086,3.086,0,1,0-3.131-3.069A3.128,3.128,0,0,0,140.522,213.875Z" transform="translate(-127.411 -186.802)" fill="#f97e1f"/>
      <path id="패스_1256" data-name="패스 1256" d="M157.991,200.832h-6.014V188.054h16.15v12.778h-6.106v4.11H172.9v3.511H147.266v-3.511h10.725v-4.11Zm-1.89-9.395v6.008h7.811v-6.008Z" transform="translate(-119.098 -186.662)" fill="#f97e1f"/>
      <path id="패스_1257" data-name="패스 1257" d="M172.951,191.786h-4.96v-3.447H182.22v3.447h-4.96v1.265a8.459,8.459,0,0,0,1.552,4.649,13.9,13.9,0,0,0,4.772,3.762l-2.077,2.911a15.886,15.886,0,0,1-3.256-1.962,14.588,14.588,0,0,1-2.944-2.941,16.982,16.982,0,0,1-2.511,2.878,17.473,17.473,0,0,1-3.628,2.751l-2.572-2.783a17.019,17.019,0,0,0,4.805-4.3,9.722,9.722,0,0,0,1.549-4.9v-1.328Zm.931,14.706H178v6.072h12.71v3.511H173.882Zm12.09-12.683v-6.736h4.093v21.316h-4.093V197.1h-5.208v-3.288Z" transform="translate(-111.004 -187.073)" fill="#f97e1f"/>
    </g>
  </g>
  <path id="패스_1374" data-name="패스 1374" d="M18.154-29.161a12.22,12.22,0,0,0-3.785.535,9.008,9.008,0,0,0-2.789,1.432A6,6,0,0,0,9.849-25.1a5.648,5.648,0,0,0-.585,2.515,5.624,5.624,0,0,0,.585,2.528A5.811,5.811,0,0,0,11.58-18a8.944,8.944,0,0,0,2.789,1.382,12.773,12.773,0,0,0,3.785.51,12.9,12.9,0,0,0,3.8-.51A8.766,8.766,0,0,0,24.74-18a5.86,5.86,0,0,0,1.718-2.054,5.624,5.624,0,0,0,.585-2.528,5.7,5.7,0,0,0-.585-2.54,6.051,6.051,0,0,0-1.718-2.092,8.642,8.642,0,0,0-2.789-1.419A12.613,12.613,0,0,0,18.154-29.161Zm-.05,15.39a16.32,16.32,0,0,1-4.657-.635,11.71,11.71,0,0,1-3.7-1.793,8.544,8.544,0,0,1-2.44-2.777,7.408,7.408,0,0,1-.884-3.611,7.655,7.655,0,0,1,.884-3.686,8.4,8.4,0,0,1,2.453-2.8,11.655,11.655,0,0,1,3.723-1.781,16.757,16.757,0,0,1,4.669-.623,16.531,16.531,0,0,1,4.632.623,11.827,11.827,0,0,1,3.723,1.781,8.482,8.482,0,0,1,2.478,2.8,7.569,7.569,0,0,1,.9,3.686,7.316,7.316,0,0,1-.909,3.623,8.6,8.6,0,0,1-2.5,2.789,11.985,11.985,0,0,1-3.735,1.781A16.531,16.531,0,0,1,18.1-13.771ZM40.715-24.056V-8.019H37.827V-43.554h2.889v16.983h7.2v2.515ZM11.032,3.088v-13.4H13.92V.647H42.359v2.44Zm-7.1-37.876V-37.2H16.61v-6.45H19.5v6.45H32.174v2.416Zm81.711,7.047v12.924H82.756V-43.554h2.889v13.248h7.2v2.565ZM73.418-19.075a22.246,22.246,0,0,1-3.412-2.079,27.87,27.87,0,0,1-3.25-2.789,24.6,24.6,0,0,1-2.739-3.25,16.641,16.641,0,0,1-1.88-3.412A17.835,17.835,0,0,1,60.27-26.87a27.26,27.26,0,0,1-2.789,3.611A31.508,31.508,0,0,1,54.144-20.1a24.959,24.959,0,0,1-3.486,2.416l-2.241-2.042a24.543,24.543,0,0,0,4.694-3.051,23.3,23.3,0,0,0,3.91-4.084A20.036,20.036,0,0,0,59.7-31.726a15.191,15.191,0,0,0,1-5.454v-1.693H49.836v-2.515h24.5v2.515H63.482v1.644a13.52,13.52,0,0,0,1.009,5.192,18.128,18.128,0,0,0,2.665,4.507,20.444,20.444,0,0,0,3.823,3.648,22.694,22.694,0,0,0,4.482,2.59ZM70.978-11.9a26.909,26.909,0,0,0-5.752.535,14.032,14.032,0,0,0-3.984,1.444,6.538,6.538,0,0,0-2.328,2.117,4.758,4.758,0,0,0-.76,2.577,4.758,4.758,0,0,0,.76,2.577A6.538,6.538,0,0,0,61.241-.535,14.032,14.032,0,0,0,65.225.909a26.909,26.909,0,0,0,5.752.535,26.949,26.949,0,0,0,5.74-.535,14.029,14.029,0,0,0,4-1.444,6.538,6.538,0,0,0,2.328-2.117,4.759,4.759,0,0,0,.76-2.577,4.759,4.759,0,0,0-.76-2.577,6.538,6.538,0,0,0-2.328-2.117,14.029,14.029,0,0,0-4-1.444A26.949,26.949,0,0,0,70.978-11.9Zm0,15.763a30.176,30.176,0,0,1-6.885-.7,16.526,16.526,0,0,1-4.918-1.917,8.448,8.448,0,0,1-2.938-2.889,7.009,7.009,0,0,1-.971-3.586,7.009,7.009,0,0,1,.971-3.586A8.448,8.448,0,0,1,59.174-11.7a16.526,16.526,0,0,1,4.918-1.917,30.176,30.176,0,0,1,6.885-.7,30.176,30.176,0,0,1,6.885.7A16.353,16.353,0,0,1,82.769-11.7a8.593,8.593,0,0,1,2.938,2.889,6.942,6.942,0,0,1,.984,3.586,6.941,6.941,0,0,1-.984,3.586,8.593,8.593,0,0,1-2.938,2.889,16.353,16.353,0,0,1-4.906,1.917A30.176,30.176,0,0,1,70.978,3.86Zm59.6.623V-43.554h2.889V4.482ZM93.072-7.247q3.237,0,7.608-.037t10.173-.162q5.678-.125,9.637-.261t5.977-.311l.174,2.54q-.971.075-2.49.149t-3.511.149q-1.992.075-4.433.137l-5.254.137q-5.752.149-10.1.212t-7.508.062Zm16.112-30.207a10.966,10.966,0,0,0-3.735.635,9.52,9.52,0,0,0-3.1,1.805,8.673,8.673,0,0,0-2.117,2.814,8.39,8.39,0,0,0-.784,3.661,8.772,8.772,0,0,0,.784,3.8,8.368,8.368,0,0,0,2.117,2.8,9.07,9.07,0,0,0,3.1,1.731,11.811,11.811,0,0,0,3.735.585,11.811,11.811,0,0,0,3.735-.585,9.07,9.07,0,0,0,3.1-1.731,8.368,8.368,0,0,0,2.117-2.8,8.772,8.772,0,0,0,.784-3.8,8.39,8.39,0,0,0-.784-3.661,8.673,8.673,0,0,0-2.117-2.814,9.52,9.52,0,0,0-3.1-1.805A10.966,10.966,0,0,0,109.184-37.453Zm0,20.246a14.186,14.186,0,0,1-4.956-.847,12.5,12.5,0,0,1-3.984-2.341,10.813,10.813,0,0,1-2.665-3.573,10.664,10.664,0,0,1-.971-4.57,10.55,10.55,0,0,1,.984-4.57,11.018,11.018,0,0,1,2.689-3.586,12.352,12.352,0,0,1,4-2.341,14.228,14.228,0,0,1,4.906-.834,14.407,14.407,0,0,1,4.943.834,12.179,12.179,0,0,1,4,2.341,10.948,10.948,0,0,1,2.665,3.586,10.664,10.664,0,0,1,.971,4.57,10.664,10.664,0,0,1-.971,4.57,10.947,10.947,0,0,1-2.665,3.586,12.179,12.179,0,0,1-4,2.341A14.407,14.407,0,0,1,109.184-17.208Zm58.757,9.114a31.439,31.439,0,0,1-3.872-3.262,37.325,37.325,0,0,1-3.586-4.072,35.234,35.234,0,0,1-2.926-4.52,23.063,23.063,0,0,1-1.917-4.582,22.793,22.793,0,0,1-1.781,4.694,36.121,36.121,0,0,1-2.814,4.669,38.559,38.559,0,0,1-3.511,4.271,30.773,30.773,0,0,1-3.872,3.474l-2.416-1.942a29.718,29.718,0,0,0,4.881-4.184A31.209,31.209,0,0,0,150.26-19a29.726,29.726,0,0,0,2.864-6.387,23.193,23.193,0,0,0,1.071-7.01v-7.77h2.938v7.6a22.442,22.442,0,0,0,1.058,6.873,28.024,28.024,0,0,0,2.839,6.2,28.989,28.989,0,0,0,4.134,5.254,27.683,27.683,0,0,0,4.943,3.984Zm10.683-13.148V4.482h-2.889V-43.554h2.889v19.822h8.268v2.49Zm44.183,11.48V-43.554H225.7V-9.762ZM196.286,2.864v-15.19h2.889V.349H227.04V2.864Zm16.834-19.7a15.79,15.79,0,0,1-2.167-1.332,28.479,28.479,0,0,1-2.241-1.805q-1.121-1-2.179-2.117t-1.98-2.3a22.188,22.188,0,0,1-1.631-2.391,15.287,15.287,0,0,1-1.133-2.328,16.909,16.909,0,0,1-1.843,3.91,30.16,30.16,0,0,1-2.839,3.823,31.431,31.431,0,0,1-3.387,3.349,22.891,22.891,0,0,1-3.461,2.465l-2.167-2.042a21.543,21.543,0,0,0,4.52-3.051,24.924,24.924,0,0,0,3.935-4.308,22.321,22.321,0,0,0,2.777-5.167,15.786,15.786,0,0,0,1.046-5.628v-2.615H189.537v-2.49h24.5v2.49H203.209v2.615a13.842,13.842,0,0,0,.5,3.7,17.273,17.273,0,0,0,1.37,3.461,20.876,20.876,0,0,0,2.03,3.138,22.734,22.734,0,0,0,2.478,2.7,22.6,22.6,0,0,0,2.727,2.167,17.63,17.63,0,0,0,2.777,1.544ZM268.16,4.482V-43.554h2.889V4.482ZM246.1-37.976a7.541,7.541,0,0,0-4.134,1.108,8.761,8.761,0,0,0-2.864,3.013,14.692,14.692,0,0,0-1.656,4.42,25.426,25.426,0,0,0-.535,5.3,25.124,25.124,0,0,0,.535,5.267,14.7,14.7,0,0,0,1.656,4.408,8.991,8.991,0,0,0,2.864,3.038,7.416,7.416,0,0,0,4.134,1.133,7.4,7.4,0,0,0,4.146-1.133,9,9,0,0,0,2.851-3.051,14.863,14.863,0,0,0,1.656-4.42,25,25,0,0,0,.535-5.242,26.844,26.844,0,0,0-.523-5.441,13.993,13.993,0,0,0-1.644-4.4,8.524,8.524,0,0,0-2.864-2.938A7.79,7.79,0,0,0,246.1-37.976Zm0,30.132A10.772,10.772,0,0,1,240.8-9.089a10.872,10.872,0,0,1-3.748-3.424,15.855,15.855,0,0,1-2.241-5.155,26.5,26.5,0,0,1-.747-6.462,26.649,26.649,0,0,1,.747-6.475,15.847,15.847,0,0,1,2.241-5.167,10.755,10.755,0,0,1,3.748-3.412,10.86,10.86,0,0,1,5.292-1.233,10.824,10.824,0,0,1,5.254,1.233,10.787,10.787,0,0,1,3.773,3.424,16.034,16.034,0,0,1,2.266,5.167,26.083,26.083,0,0,1,.76,6.462,26.083,26.083,0,0,1-.76,6.462,16.034,16.034,0,0,1-2.266,5.167,10.787,10.787,0,0,1-3.773,3.424A10.824,10.824,0,0,1,246.1-7.844ZM316.259,4.482V-43.554h2.914V4.482ZM306.447-8.093a31.439,31.439,0,0,1-3.872-3.262,37.325,37.325,0,0,1-3.586-4.072,35.234,35.234,0,0,1-2.926-4.52,23.063,23.063,0,0,1-1.917-4.582,22.793,22.793,0,0,1-1.781,4.694,36.121,36.121,0,0,1-2.814,4.669,38.559,38.559,0,0,1-3.511,4.271,30.773,30.773,0,0,1-3.872,3.474l-2.416-1.942a29.718,29.718,0,0,0,4.881-4.184A31.209,31.209,0,0,0,288.767-19a29.726,29.726,0,0,0,2.864-6.387A23.193,23.193,0,0,0,292.7-32.4v-7.77h2.938v7.6A22.442,22.442,0,0,0,296.7-25.7a28.024,28.024,0,0,0,2.839,6.2,28.989,28.989,0,0,0,4.134,5.254,27.683,27.683,0,0,0,4.943,3.984Zm41.917-1.27q-3.511.349-8.753.51t-11.816.162v-30.53h18.229v2.515h-15.34v25.525h4.482q1.395,0,3.188-.05t3.6-.125q1.805-.075,3.449-.187t2.764-.237ZM362.235,4.482v-25.45h-7.147V2.963h-2.864V-42.558h2.864v19.1h7.147v-20.1h2.889V4.482Zm7.078-23.035v-2.366h44.326v2.366Zm37.179,5.13V-3.71H379.3V1.569h28.488V3.935H376.41V-5.977H403.6v-5.08H376.41v-2.366ZM376.609-25.849v-9.737h26.845v-4.781H376.609v-2.366h29.733v9.413H379.5v5.1h27.99v2.366ZM424.957,3.013V-12.476H438.38V-18.2H417.661v-2.465h44.326V-18.2H441.268v5.728h13.422V3.013Zm14.867-27.94a29.269,29.269,0,0,1-5.964-.573,16.606,16.606,0,0,1-4.769-1.706,9.006,9.006,0,0,1-3.15-2.826,6.952,6.952,0,0,1-1.133-3.959,6.854,6.854,0,0,1,1.146-3.935,9.237,9.237,0,0,1,3.163-2.839,16.371,16.371,0,0,1,4.756-1.718,29.087,29.087,0,0,1,5.952-.573,28.538,28.538,0,0,1,5.939.585,16.86,16.86,0,0,1,4.769,1.718,9.124,9.124,0,0,1,3.163,2.826,6.854,6.854,0,0,1,1.146,3.935,6.9,6.9,0,0,1-1.146,3.959,9.154,9.154,0,0,1-3.15,2.826,16.431,16.431,0,0,1-4.756,1.706A29.269,29.269,0,0,1,439.824-24.927Zm0-15.763a25.174,25.174,0,0,0-5.142.473,13.45,13.45,0,0,0-3.81,1.345,6.737,6.737,0,0,0-2.378,2.1,4.893,4.893,0,0,0-.822,2.777,4.893,4.893,0,0,0,.822,2.777,6.737,6.737,0,0,0,2.378,2.1,13.45,13.45,0,0,0,3.81,1.345,25.174,25.174,0,0,0,5.142.473,25.22,25.22,0,0,0,5.13-.473,13.447,13.447,0,0,0,3.823-1.345,6.737,6.737,0,0,0,2.378-2.1,4.893,4.893,0,0,0,.822-2.777,4.893,4.893,0,0,0-.822-2.777,6.737,6.737,0,0,0-2.378-2.1,13.447,13.447,0,0,0-3.823-1.345A25.22,25.22,0,0,0,439.824-40.69Zm12.028,30.655H427.8V.573h24.056Zm47.37-5.18V-43.554h2.963v28.339Zm.05,19.7V-10.185H470.983V-12.7h31.2V4.482Zm-9.737-23.607a20.813,20.813,0,0,1-3.4-2.079,27.754,27.754,0,0,1-3.262-2.839,26.252,26.252,0,0,1-2.752-3.287,16.62,16.62,0,0,1-1.893-3.424,17.835,17.835,0,0,1-1.868,3.735,29.282,29.282,0,0,1-2.777,3.636,30.192,30.192,0,0,1-3.324,3.2,26.109,26.109,0,0,1-3.486,2.453l-2.191-2.042A25.251,25.251,0,0,0,469.2-22.8a22.669,22.669,0,0,0,3.872-4.059,20.123,20.123,0,0,0,2.665-4.893,15.528,15.528,0,0,0,1-5.528v-1.494H465.952v-2.515h24.5v2.515H479.674v1.494a13.667,13.667,0,0,0,1,5.192,18.043,18.043,0,0,0,2.64,4.507,20.3,20.3,0,0,0,3.8,3.648,22.373,22.373,0,0,0,4.47,2.59ZM544.376,4.482V-43.554h2.889V4.482ZM522.313-37.976a7.541,7.541,0,0,0-4.134,1.108,8.759,8.759,0,0,0-2.864,3.013,14.692,14.692,0,0,0-1.656,4.42,25.426,25.426,0,0,0-.535,5.3,25.124,25.124,0,0,0,.535,5.267,14.7,14.7,0,0,0,1.656,4.408,8.991,8.991,0,0,0,2.864,3.038,7.416,7.416,0,0,0,4.134,1.133,7.4,7.4,0,0,0,4.146-1.133,9,9,0,0,0,2.851-3.051,14.863,14.863,0,0,0,1.656-4.42,25.009,25.009,0,0,0,.535-5.242,26.844,26.844,0,0,0-.523-5.441,13.993,13.993,0,0,0-1.644-4.4,8.525,8.525,0,0,0-2.864-2.938A7.79,7.79,0,0,0,522.313-37.976Zm0,30.132a10.771,10.771,0,0,1-5.292-1.245,10.871,10.871,0,0,1-3.748-3.424,15.855,15.855,0,0,1-2.241-5.155,26.5,26.5,0,0,1-.747-6.462,26.649,26.649,0,0,1,.747-6.475,15.847,15.847,0,0,1,2.241-5.167,10.754,10.754,0,0,1,3.748-3.412,10.86,10.86,0,0,1,5.292-1.233,10.825,10.825,0,0,1,5.254,1.233,10.787,10.787,0,0,1,3.773,3.424,16.036,16.036,0,0,1,2.266,5.167,26.089,26.089,0,0,1,.76,6.462,26.083,26.083,0,0,1-.76,6.462A16.034,16.034,0,0,1,531.34-12.5a10.787,10.787,0,0,1-3.773,3.424A10.825,10.825,0,0,1,522.313-7.844ZM585.6-13.671q.249-1.942.423-3.648t.274-3.312q.1-1.606.149-3.175t.05-3.237v-9.338H558.7V-38.9h30.68v10.733a116.208,116.208,0,0,1-.971,14.792ZM552.3-4.308V-6.823h17.93V-22.586h2.889V-6.823h23.508v2.515Zm85.876,8.791V-43.554h2.889V4.482Zm-8.815-1.519V-24.105h-8.317v-2.44h8.317V-42.558h2.864V2.963Zm-7-10.11a33.1,33.1,0,0,1-3-3.287,38.378,38.378,0,0,1-2.689-3.81,34.436,34.436,0,0,1-2.167-4.084,24.5,24.5,0,0,1-1.432-4.109,22.942,22.942,0,0,1-1.544,4.308,41.189,41.189,0,0,1-2.391,4.4,43.174,43.174,0,0,1-2.864,4.059A32.052,32.052,0,0,1,603.313-6.4l-2.391-1.868a23.958,23.958,0,0,0,2.64-2.528A32.611,32.611,0,0,0,606.1-14a33.576,33.576,0,0,0,2.254-3.723,33.665,33.665,0,0,0,1.805-4.109,29.21,29.21,0,0,0,1.208-4.358,23.369,23.369,0,0,0,.436-4.495v-9.264h2.814v9.313a27.115,27.115,0,0,0,.747,6.35,29.572,29.572,0,0,0,2.092,5.914,28.707,28.707,0,0,0,3.188,5.18,24.569,24.569,0,0,0,4.009,4.121Zm60.593-20.569v12.85h-2.889V-43.554h2.889v13.273h7.2v2.565ZM668.29-11.9a26.909,26.909,0,0,0-5.752.535,14.032,14.032,0,0,0-3.984,1.444,6.538,6.538,0,0,0-2.328,2.117,4.758,4.758,0,0,0-.76,2.577,4.758,4.758,0,0,0,.76,2.577,6.538,6.538,0,0,0,2.328,2.117A14.032,14.032,0,0,0,662.537.909a26.909,26.909,0,0,0,5.752.535,26.949,26.949,0,0,0,5.74-.535,14.029,14.029,0,0,0,4-1.444,6.538,6.538,0,0,0,2.328-2.117,4.758,4.758,0,0,0,.76-2.577,4.758,4.758,0,0,0-.76-2.577,6.538,6.538,0,0,0-2.328-2.117,14.029,14.029,0,0,0-4-1.444A26.949,26.949,0,0,0,668.29-11.9Zm0,15.763a30.176,30.176,0,0,1-6.885-.7,16.526,16.526,0,0,1-4.918-1.917,8.448,8.448,0,0,1-2.938-2.889,7.009,7.009,0,0,1-.971-3.586,7.009,7.009,0,0,1,.971-3.586,8.448,8.448,0,0,1,2.938-2.889,16.526,16.526,0,0,1,4.918-1.917,34.346,34.346,0,0,1,13.771,0,16.353,16.353,0,0,1,4.906,1.917,8.593,8.593,0,0,1,2.938,2.889A6.941,6.941,0,0,1,684-5.229a6.941,6.941,0,0,1-.984,3.586,8.593,8.593,0,0,1-2.938,2.889,16.353,16.353,0,0,1-4.906,1.917A30.176,30.176,0,0,1,668.29,3.86ZM670.705-18.8a26.852,26.852,0,0,1-3.362-2.142,28.1,28.1,0,0,1-3.25-2.814,25.883,25.883,0,0,1-2.764-3.287,17.119,17.119,0,0,1-1.955-3.561,19.086,19.086,0,0,1-1.868,3.823,28.346,28.346,0,0,1-2.714,3.636,29.791,29.791,0,0,1-3.275,3.2,25.805,25.805,0,0,1-3.549,2.515l-2.216-2.117a22.481,22.481,0,0,0,4.582-3.075,24.619,24.619,0,0,0,3.872-4.184,21.344,21.344,0,0,0,2.689-4.918,14.7,14.7,0,0,0,1.009-5.329v-4.856h2.839v4.632a13.609,13.609,0,0,0,1.009,5.155A19.046,19.046,0,0,0,664.43-27.5a21.229,21.229,0,0,0,3.835,3.785,21.131,21.131,0,0,0,4.482,2.652Zm19.7-.8v-2.391h44.326V-19.6Zm7.147,23.558V-6.475H724.65v-5.5H697.556v-2.391h29.982v10.11H700.445V1.569h28.389V3.959Zm15.016-44.874a30.419,30.419,0,0,0-5.18.4,15.63,15.63,0,0,0-3.9,1.146,6.585,6.585,0,0,0-2.465,1.843,3.928,3.928,0,0,0-.859,2.49,3.928,3.928,0,0,0,.859,2.49A6.585,6.585,0,0,0,703.5-30.7a15.63,15.63,0,0,0,3.9,1.146,30.419,30.419,0,0,0,5.18.4,30.475,30.475,0,0,0,5.167-.4,15.63,15.63,0,0,0,3.91-1.146,6.585,6.585,0,0,0,2.465-1.843,3.928,3.928,0,0,0,.859-2.49,3.928,3.928,0,0,0-.859-2.49,6.585,6.585,0,0,0-2.465-1.843,15.63,15.63,0,0,0-3.91-1.146A30.475,30.475,0,0,0,712.572-40.915Zm0,14.12a35.013,35.013,0,0,1-6-.486,17.678,17.678,0,0,1-4.844-1.507,9.07,9.07,0,0,1-3.237-2.565,5.883,5.883,0,0,1-1.183-3.686A5.845,5.845,0,0,1,698.49-38.7a9.046,9.046,0,0,1,3.25-2.565,18.153,18.153,0,0,1,4.844-1.519,33.946,33.946,0,0,1,5.989-.5,34.005,34.005,0,0,1,5.977.5,18.151,18.151,0,0,1,4.856,1.519,9.046,9.046,0,0,1,3.25,2.565,5.845,5.845,0,0,1,1.183,3.661,5.883,5.883,0,0,1-1.183,3.686,9.07,9.07,0,0,1-3.237,2.565,17.678,17.678,0,0,1-4.844,1.507A35.013,35.013,0,0,1,712.572-26.795Zm63.314,5.279v26H773V-43.554h2.889v19.573h8.292v2.465Zm-14.518-2.914H744.435v13.124h16.934ZM741.6-8.84v-31h2.839V-26.87h16.934V-39.844h2.839v31ZM790.933,3.138V-15.788h2.839v6.873h24.006v-6.873h2.839V3.138Zm16.311-25.126V-13.2h-2.889v-8.791H783.637V-24.5h15.29q.374-1.743.647-3.71t.436-3.947q.162-1.98.237-3.86t.075-3.474H789.041V-41.96h14.145v2.44q0,.8-.037,1.893t-.125,2.378q-.087,1.282-.2,2.689t-.274,2.814q-.162,1.407-.361,2.752t-.423,2.49H817.28q.125-1.27.237-2.926T817.7-31q.075-1.917.112-4.072t.037-4.42H806.547V-41.96h14.169q0,2.191-.037,4.458T820.555-33q-.087,2.241-.212,4.4t-.274,4.1h7.894v2.515ZM817.778-6.475H793.772V.7h24.006ZM865.372,4.482V-43.554h2.889V4.482Zm-4.408-15.415a14.867,14.867,0,0,1-1.681.324q-1.033.149-2.191.274t-2.341.212q-1.183.087-2.1.112-1.021.05-2.665.087t-3.972.05q-2.328.012-5.391.025t-6.923.012V-39.47h2.889v27.119h10.932q4.781,0,8.019-.274a35.725,35.725,0,0,0,5.005-.7Zm49.562-10.882v26.3h-2.889V-43.554h2.889v19.2h8.417v2.54Zm-7.944,11.729q-1.942.224-4.009.374t-4.034.2q-2.167.075-6.674.112t-11.057.037V-39.221h22.337v2.49H879.7v24.877q5.2,0,9.251-.025t7.01-.149q2.266-.1,3.86-.249t2.54-.274ZM920.593.448a1.907,1.907,0,0,1-1.419-.585,1.969,1.969,0,0,1-.573-1.432A1.917,1.917,0,0,1,919.173-3a1.95,1.95,0,0,1,1.419-.56,2.036,2.036,0,0,1,1.444.56,1.876,1.876,0,0,1,.6,1.432,1.927,1.927,0,0,1-.6,1.432A1.989,1.989,0,0,1,920.593.448Z" transform="translate(-3.935 328.716)" fill="#4d4d4d"/>
</svg>
