<svg id="구성_요소_39_1" data-name="구성 요소 39 – 1" xmlns="http://www.w3.org/2000/svg" width="587.37" height="301.012" viewBox="0 0 587.37 301.012">
  <path id="패스_1214" data-name="패스 1214" d="M804.259,434.728s-23.628-4.786-20.637,5.384,22.731,3.589,22.731,3.589Z" transform="translate(-394.869 -319.82)" fill="#ffb8b8"/>
  <path id="패스_1215" data-name="패스 1215" d="M872.584,331.356a2.217,2.217,0,0,1,3.677,1.267l.808,4.691s3.651,18.762.525,30.68-5.345,27.617-13.792,29.289c-7.229,1.431-34.714-.835-42.5-1.519a2.215,2.215,0,0,1-2.02-2.257l.146-6.846a2.218,2.218,0,0,1,1.982-2.158l31.469-3.356a2.213,2.213,0,0,0,1.961-1.895c.749-5.354,3.169-21.952,5.573-30.678C862.36,341.522,868.741,334.864,872.584,331.356Z" transform="translate(-412.219 -270.162)" fill="#f98244"/>
  <rect id="사각형_235" data-name="사각형 235" width="217.161" height="1.034" transform="translate(370.209 289.031)" fill="#3f3d56"/>
  <path id="패스_1216" data-name="패스 1216" d="M850.822,614.608v14.356l8.075,1.794,5.384-2.692-.6-11.365Z" transform="translate(-410.904 -353.314)" fill="#ffb8b8"/>
  <path id="패스_1217" data-name="패스 1217" d="M943.086,614.608v14.356l8.076,1.794,5.384-2.692-.6-11.365Z" transform="translate(-455.463 -353.314)" fill="#ffb8b8"/>
  <path id="패스_1218" data-name="패스 1218" d="M897.856,493.3s-10.767,21.834-10.468,38.882a233.86,233.86,0,0,1-1.5,30.806l-5.384,51.145,17.347.9,8.075-55.032,15.553-42.471,5.982,50.547,1.5,50.846h14.955s6.879-48.154,2.991-58.921c0,0,8.973-60.417,1.794-63.407S897.856,493.3,897.856,493.3Z" transform="translate(-441.786 -348.649)" fill="#242424"/>
  <path id="패스_1219" data-name="패스 1219" d="M863.562,732.6s-2.991-11.066-7.178-5.384-16.151,15.254-16.151,15.254-17.945,9.571-1.5,11.964,18.245-2.991,18.245-2.991,2.692-1.5,5.085-.6,12.861.6,13.459-2.991-3.29-23.329-4.487-19.74S863.562,732.6,863.562,732.6Z" transform="translate(-418.26 -460.835)" fill="#242424"/>
  <path id="패스_1220" data-name="패스 1220" d="M986.307,735.2s0-3.29-5.683-3.589-6.58,3.589-6.58,3.589-1.5,1.5-1.794,5.982,0,16.151,0,16.151-2.692,8.973,9.571,7.178,7.776-11.067,7.776-11.067Z" transform="translate(-485.972 -463.733)" fill="#242424"/>
  <path id="패스_1221" data-name="패스 1221" d="M953.532,277.532l-1.5,16.749-2.692,6.281,7.178,10.169,17.646-16.45s-3.29-8.973-1.2-14.057Z" transform="translate(-475.031 -244.446)" fill="#ffb8b8"/>
  <path id="패스_1222" data-name="패스 1222" d="M974.893,318.816l-.138,1.475-5.25,55.951s-.206,2.6-.59,6.072c-.646,5.868-1.794,14.216-3.3,16.659a7.426,7.426,0,0,0-.6,7.178c-13.758,8.075-54.435-3.589-54.435-3.589l9.272-37.087s-8.373-38.583-7.475-42.172,19.74-16.45,19.74-16.45l.556,1.5c8.03,10.767,16.193,1.5,18.586-.6l4.785-4.187Z" transform="translate(-456.311 -257.017)" fill="#f98244"/>
  <path id="패스_1223" data-name="패스 1223" d="M607.878,461.794c-28.515,3.868-55.718,5.285-80.89,2.9a195.152,195.152,0,0,1-26.533-4.556c-16.005-3.789-35.652-3.789-57.237-1.771a164.276,164.276,0,0,0-38.528,8.171c-16.728,5.79-35.053,5.289-54.481.442a99.364,99.364,0,0,1-22.875-9.108c-14.2-7.633-31.014-4.869-49.334,3.92V393.544c17.1-7.449,33.767-8.652,49.9-2.372a105.414,105.414,0,0,0,18.17,5.42,143.217,143.217,0,0,0,67.5-3.048c29.663-10.051,60.691-6.926,92.113,0,35.008,7.394,69.128,7.83,102.193,0Z" transform="translate(-150.806 -297.372)" fill="#242424"/>
  <rect id="사각형_236" data-name="사각형 236" width="217.161" height="1.034" transform="translate(0 289.031)" fill="#3f3d56"/>
  <path id="패스_1224" data-name="패스 1224" d="M160.063,400.95l9.874,45.713-29.988,67.289,17.554,7.68,33.644-77.164L169.64,376.7l-12.8,3.292Z" transform="translate(-67.588 -238.417)" fill="#242424"/>
  <path id="패스_1225" data-name="패스 1225" d="M193.875,488.207a39.941,39.941,0,0,0,11.7,12.068c8.045,5.486,24.868,41.69,24.868,41.69l-18.285,73.141,25.234,6.948,13.9-85.94L222.766,471.75Z" transform="translate(-110.177 -338.243)" fill="#242424"/>
  <path id="패스_1226" data-name="패스 1226" d="M173.821,741.488s-3.657,4.023-2.194,6.948,2.194,10.605,2.194,10.605h3.291v-8.777l10.605,9.874s24.5,2.194,24.136,0-14.628-7.314-14.628-7.314l-6.948-10.605Z" transform="translate(-99.266 -468.513)" fill="#242424"/>
  <path id="패스_1227" data-name="패스 1227" d="M236.062,743.349s-3.657,4.023-2.194,6.948,2.194,10.605,2.194,10.605h3.291v-8.777L249.959,762s24.5,2.194,24.136,0-14.628-7.314-14.628-7.314l-6.948-10.605Z" transform="translate(-129.325 -469.412)" fill="#242424"/>
  <circle id="타원_66" data-name="타원 66" cx="13.897" cy="13.897" r="13.897" transform="translate(84.063 21.967)" fill="#ffb8b8"/>
  <path id="패스_1228" data-name="패스 1228" d="M185.528,284.319s-1.1,13.9-8.045,19.017-6.948,9.508-6.948,9.508l28.159,12.8-6.582-13.9s-1.829-.731,1.1-4.388,5.486-12.434,5.486-12.434Z" transform="translate(-98.905 -247.724)" fill="#ffb8b8"/>
  <path id="패스_1229" data-name="패스 1229" d="M206.679,403.059h0a78.766,78.766,0,0,1-25.966,15.073l-6.638,2.3s-14.035-17.033-6.948-30.455a21.026,21.026,0,0,1,6.089-7.219l-.146-.64L169.512,366.6l-.318-1.39-10.605-2.56s-.033.011-.1.026c-.794.209-6.173,1.2-2.1-11.362,2.71-8.356,4.675-16.313,5.782-21.176a5.162,5.162,0,0,1,6.383-3.846c3.4.931,7.615,2.7,10.143,6.006,4.754,6.217,5.714-.275,5.714-.275s13.3,14.9,12.571,21.486a26.163,26.163,0,0,0,.161,5.3v.007c.088.783.194,1.6.315,2.432.907,6.158,2.662,13.315,3.306,15.831.047.179.088.336.121.468.077.3.121.468.121.468Z" transform="translate(-91.347 -267.907)" fill="#f98244"/>
  <path id="패스_1230" data-name="패스 1230" d="M190.62,414.279l-2.926,9.874s-11.22-2.86-17.791-4.483a21.027,21.027,0,0,1,6.089-7.219l-.146-.64-3.558-15.524-.318-1.39-10.605-2.56s-.033.011-.1.026l-.636-4.78s18.285,1.1,19.382,5.486-1.1,8.777-2.194,9.508,0,0,2.194,1.1-.731,0-2.194,2.194.366.366.731,1.463,0-.366-.366,1.463,1.463.366,1.829.366S190.62,414.279,190.62,414.279Z" transform="translate(-94.123 -297.595)" opacity="0.2"/>
  <path id="패스_1231" data-name="패스 1231" d="M211.24,432.232l23.771,6.217s12.8-13.165,19.748-9.143-12.434,13.165-12.434,13.165l-6.948,1.463-25.234-2.926Z" transform="translate(-118.034 -317.376)" fill="#ffb8b8"/>
  <path id="패스_1232" data-name="패스 1232" d="M160.633,384.754l1.463,10.971s-1.1,0,0,2.56,0,7.68,0,7.68-2.194.366-.366,1.463,3.657,4.023,2.926,5.12-2.194,2.56,1.1,3.291,21.942,5.486,21.942,5.486l2.926-9.874s-10.24-5.12-10.605-5.12-2.194,1.463-1.828-.366.731-.366.366-1.463-2.194.731-.731-1.463,4.388-1.1,2.194-2.194-3.291-.366-2.194-1.1,3.291-5.12,2.194-9.508S160.633,384.754,160.633,384.754Z" transform="translate(-94.123 -296.229)" fill="#f98244"/>
  <path id="패스_1233" data-name="패스 1233" d="M195.672,318.6l1.1-1.752a3.658,3.658,0,0,0-1.149-5.044l-8.4-5.281a3.658,3.658,0,0,0-5.044,1.149l-1.1,1.752a3.652,3.652,0,0,0-3.11,1.707l-2.712,4.311a3.658,3.658,0,0,0,1.149,5.044l11.314,7.116a3.658,3.658,0,0,0,5.044-1.149l2.711-4.311a3.652,3.652,0,0,0,.192-3.542Z" transform="translate(-100.916 -258.174)" fill="#f98244"/>
  <path id="패스_1234" data-name="패스 1234" d="M194.287,263.366c.777-1.136.437-2.713.993-3.972.874-1.976,3.45-2.382,5.607-2.512a16.53,16.53,0,0,1,4.294.115,4.123,4.123,0,0,1,2.926,2.232c.3.646.271-1.357.129-3.93a12.421,12.421,0,0,0-9.254-11.34l-.09-.023a23.551,23.551,0,0,0-7.977-.929,10.4,10.4,0,0,0-7.088,3.408c-.785.946-1.352,2.071-2.224,2.938-1.532,1.523-3.761,2.037-5.814,2.711a17.338,17.338,0,0,0-6.387,3.482,9.4,9.4,0,0,0-3.2,6.383c-.112,2.848,1.629,5.832,4.536,6.465a3.279,3.279,0,0,1,1.386.638c2.736,2.23-.5,4.416-.537,6.85-.031,2.031,2.2,3.41,4.225,3.554a8.177,8.177,0,0,0,8.3-6.271,17.044,17.044,0,0,0-.007-5.065c-.181-1.932,4.077-6.367,1.256-3.109a4.77,4.77,0,0,0-1.1,2.181c-.52,2.645,1.875,3.6,3.363,5.105a6.317,6.317,0,0,1,1.371,6.538,7.283,7.283,0,0,0,1.546-9.163c-.473-.765-1.089-1.435-1.536-2.216-.7-1.217-.835-3.832,1.2-3.711C191.651,263.811,193.13,265.056,194.287,263.366Z" transform="translate(-96.811 -227.741)" fill="#242424"/>
  <circle id="타원_67" data-name="타원 67" cx="15.254" cy="15.254" r="15.254" transform="translate(473.417 10.654)" fill="#ffb8b8"/>
  <path id="패스_1235" data-name="패스 1235" d="M987.563,336.949,982.317,392.9s-.207,2.6-.589,6.072c-11.135,2.662-41.882,4.7-41.882,4.7l-1.5-10.767,34.1-9.272s-4.187-23.329.6-32.9a74.059,74.059,0,0,0,3.14-7.156,10.382,10.382,0,0,1,11.378-6.623Z" transform="translate(-469.721 -273.077)" opacity="0.2"/>
  <path id="패스_1236" data-name="패스 1236" d="M925.2,441.342s-23.628-4.785-20.638,5.384,22.731,3.589,22.731,3.589Z" transform="translate(-453.275 -323.014)" fill="#ffb8b8"/>
  <path id="패스_1237" data-name="패스 1237" d="M979.585,330.172l9.272,1.5s6.58,17.945,5.384,30.208-.9,28.115-8.973,31.106S941,398.365,941,398.365l-1.5-10.767,34.1-9.272s-4.187-23.329.6-32.9S979.585,330.172,979.585,330.172Z" transform="translate(-470.279 -269.868)" fill="#f98244"/>
  <path id="패스_1238" data-name="패스 1238" d="M948.081,223.957l-2.932-1.174s6.13-6.749,14.659-6.162l-2.4-2.641s5.864-2.347,11.194,3.815c2.8,3.239,6.044,7.047,8.065,11.336h3.14l-1.31,2.885,4.587,2.885-4.708-.518a16.139,16.139,0,0,1,.128,4.786,6.194,6.194,0,0,1-2.268,4.051h0s-3.636-7.526-3.636-8.7v2.934s-2.932-2.641-2.932-4.4l-1.6,2.054H957.409l1.6-2.641-6.13.88,2.4-3.228-9.491,13.329S940.351,228.358,948.081,223.957Z" transform="translate(-472.416 -213.542)" fill="#2f2e41"/>
  <circle id="타원_68" data-name="타원 68" cx="55.841" cy="55.841" r="55.841" transform="translate(236.292 75.489)" fill="#f98244"/>
  <path id="패스_1239" data-name="패스 1239" d="M600.739,487.82c0,3.427-12.582,12.021-27.145,12.021S548,491.247,548,487.82s11.03,1.163,25.594,1.163S600.739,484.393,600.739,487.82Z" transform="translate(-281.202 -345.391)" fill="#fff"/>
  <circle id="타원_69" data-name="타원 69" cx="6.205" cy="6.205" r="6.205" transform="translate(306.094 109.098)" fill="#242424"/>
  <circle id="타원_70" data-name="타원 70" cx="6.205" cy="6.205" r="6.205" transform="translate(265.764 109.098)" fill="#242424"/>
  <circle id="타원_71" data-name="타원 71" cx="3.102" cy="3.102" r="3.102" transform="translate(272.486 109.098)" fill="#fff"/>
  <circle id="타원_72" data-name="타원 72" cx="3.102" cy="3.102" r="3.102" transform="translate(304.026 109.098)" fill="#fff"/>
  <circle id="타원_73" data-name="타원 73" cx="22.233" cy="22.233" r="22.233" transform="translate(270.935 34.642)" fill="#f98244"/>
  <path id="패스_1240" data-name="패스 1240" d="M566.23,326.4c7.852,4.674,8.134,18.682,8.134,18.682s-12.449,6.429-20.3,1.755-8.134-18.682-8.134-18.682S558.378,321.727,566.23,326.4Z" transform="translate(-280.202 -267.224)" fill="#242424"/>
  <path id="패스_1241" data-name="패스 1241" d="M619.74,342.648c-7.1,5.757-20.341,1.19-20.341,1.19s-1.74-13.9,5.356-19.659,20.341-1.19,20.341-1.19S626.837,336.89,619.74,342.648Z" transform="translate(-305.934 -265.569)" fill="#242424"/>
</svg>
