<svg id="구성_요소_42_1" data-name="구성 요소 42 – 1" xmlns="http://www.w3.org/2000/svg" width="264.732" height="68.328" viewBox="0 0 264.732 68.328">
  <path id="패스_1346" data-name="패스 1346" d="M13.338-11l-3.822-1.95V-14.43H59.982V4.6L46.41,4.68V-12.948H17.16ZM70.356-40.716v2.5H60.06v17.94H47.892V-59.514L43.6-60.06v-1.482l16.458,1.56v19.266Zm-36.5-.156,12.4,16.77h-4.29L31.746-38.142a26.358,26.358,0,0,1-5.109,4.836,62.292,62.292,0,0,1-6.942,4.485,56.151,56.151,0,0,1-7.527,3.51A34.342,34.342,0,0,1,5.226-23.4L2.808-24.8a27.672,27.672,0,0,0,5.148-3.7,58.937,58.937,0,0,0,4.914-4.953q2.34-2.652,4.368-5.421a58.732,58.732,0,0,0,3.471-5.265,46.425,46.425,0,0,0,2.3-4.446,8.222,8.222,0,0,0,.858-2.886H13.1l-3.276,1.4-3.276-1.4H6.24v-1.482H39.39q-.858,2.418-1.794,4.68-.858,1.95-1.833,4.017A22.875,22.875,0,0,1,33.852-40.872ZM123.4-16.692h2.73V4.758H113.958V4.68H88.686v.078H76.518V-16.224l-4.29-.468v-1.482L87.75-16.692H123.4ZM88.686,3.2h25.272V-15.21H88.686Zm5.694-30.03h12.012v10.14H94.38Zm37.674-2.73,3.822,1.95v1.482H68.484v-1.482h59.748Zm-13.6-25.818,3.794-1.95,3.8,1.95V-53.9H115.206v17.706l-.156,1.4h3.408l3.8-1.95,3.8,1.95v1.482H74.724v-1.482h9.36V-53.9h-9.36V-55.38h43.735ZM103.038-34.788V-53.9H96.252v17.706l-.078,1.4ZM179.79-18.8l16.458,1.56V4.836H155.454l-3.822,1.95-3.822-1.95h-.078V-16.848l-4.29-.468V-18.8l16.458,1.56v9.906h24.18v-9.516l-4.29-.468ZM184.08-5.85H159.9v9.2h24.18Zm12.012-54.132v39.7H183.924V-38.22H169.65v-2.5h14.274v-18.8l-4.29-.546v-1.482Zm-25.9,19.11L182.6-24.1h-4.29L168.09-38.142a26.358,26.358,0,0,1-5.109,4.836,62.294,62.294,0,0,1-6.942,4.485,56.153,56.153,0,0,1-7.527,3.51A34.342,34.342,0,0,1,141.57-23.4l-2.418-1.4a27.672,27.672,0,0,0,5.148-3.7,58.935,58.935,0,0,0,4.914-4.953q2.34-2.652,4.368-5.421a58.728,58.728,0,0,0,3.471-5.265,46.421,46.421,0,0,0,2.3-4.446,8.222,8.222,0,0,0,.858-2.886H149.448l-3.276,1.4-3.276-1.4h-.312v-1.482h33.15q-.858,2.418-1.794,4.68-.858,1.95-1.833,4.017A22.876,22.876,0,0,1,170.2-40.872ZM267.54-17.94H237.9V4.212H225.732V-17.94H198.978v-1.482H259.9l3.822-1.95,3.822,1.95ZM237.51-52.962a29.847,29.847,0,0,1-.157,3.276A14.887,14.887,0,0,1,236.8-47q-.392,1.287-.981,2.769t-1.374,3.432L257.01-24.18h-4.836L232.407-37.518a13.841,13.841,0,0,1-5.059,5.148,41.762,41.762,0,0,1-7.388,3.588,83.651,83.651,0,0,1-7.995,2.535q-4.017,1.053-6.981,2.067l-1.17-2.184q10.686-7.8,16.029-13.767t5.5-11.271H223.08v-1.56h14.43Z" transform="translate(-2.808 61.542)" fill="#0d0d0d"/>
</svg>
