<svg id="구성_요소_34_1" data-name="구성 요소 34 – 1" xmlns="http://www.w3.org/2000/svg" width="344.61" height="257.256" viewBox="0 0 344.61 257.256">
  <g id="그룹_320" data-name="그룹 320" transform="translate(-869.085 -603)">
    <path id="패스_892" data-name="패스 892" d="M686.44,745.79c0,1.423-1.3,2.8-3.738,4.116-12.5,6.726-54.874,11.674-105.233,11.674q-2.972,0-5.9-.024c-57.439-.444-103.067-7.333-103.067-15.766,0-8.721,48.787-15.79,108.97-15.79,16.481,0,32.1.531,46.108,1.478q5.279.359,10.238.795,2.061.177,4.064.375c6.292.607,12.122,1.308,17.4,2.089q3.842.567,7.277,1.187a112.308,112.308,0,0,1,14.836,3.554C683.21,741.414,686.44,743.548,686.44,745.79Z" transform="translate(527.255 98.676)" fill="#eee"/>
    <path id="패스_893" data-name="패스 893" d="M321.44,525.411c0,5.75-48.787,10.411-108.97,10.411-9.946,0-19.58-.128-28.735-.368-35.308-.916-63.477-3.491-74.822-6.8-3.512-1.02-5.414-2.113-5.414-3.248,0-1.3,2.492-2.544,7.041-3.689,2.655-.67,6.011-1.3,9.981-1.9.031,0,.066-.007.1-.014,9.092-1.357,21.395-2.5,35.884-3.328,16.356-.941,35.5-1.478,55.964-1.478C272.654,515,321.44,519.661,321.44,525.411Z" transform="translate(765.585 239.063)" fill="#eee"/>
    <path id="패스_894" data-name="패스 894" d="M698.821,372.254l-7.957-2.215s-3.117-.622-1.212-6.709,5.681-4.383,5.681-4.383L702.392,361l2.787.861-3.921,5.5-.329,3.666Z" transform="translate(383.253 341.103)" fill="#242424"/>
    <path id="패스_895" data-name="패스 895" d="M626.275,270.056l2.5,9.971-12.791,12.4-1.1.276-2.933-.824-2.5-9.971,2.529-2.659-2.585-.677,5.516-5.355,2.878.6,2.309-2.292-1.559-.623-.147-.586,1.888-1.486Z" transform="translate(471.175 427.218)" fill="#242424"/>
    <path id="패스_896" data-name="패스 896" d="M623.5,299.159l1.652,6.6,7.623-7.207-1.909-6.691Z" transform="translate(461.961 412.18)" fill="#f98244"/>
    <path id="패스_897" data-name="패스 897" d="M626.275,270.056l.35,1.4-12.719,12.373-1.1.275-2.842-.769-.157,0-.357-1.426,2.529-2.659-2.585-.677,5.516-5.355,2.878.6,2.309-2.292-1.559-.623-.147-.586,1.888-1.486Z" transform="translate(471.175 427.218)" fill="#242424" stroke="#242424" stroke-miterlimit="10" stroke-width="1"/>
    <ellipse id="타원_29" data-name="타원 29" cx="1.058" cy="0.718" rx="1.058" ry="0.718" transform="translate(1090.368 696.705) rotate(-14.057)" fill="#f98244"/>
    <ellipse id="타원_30" data-name="타원 30" cx="1.058" cy="0.718" rx="1.058" ry="0.718" transform="translate(1082.288 707.376) rotate(-14.057)" fill="#f98244"/>
    <path id="패스_898" data-name="패스 898" d="M701.851,400.069l1.735-5.9s-4.511-10.758.694-11.8,5.553,10.064,5.553,10.064l-2.082,6.594Z" transform="translate(374.937 325.71)" fill="#ffb6b6"/>
    <circle id="타원_31" data-name="타원 31" cx="13.785" cy="13.785" r="13.785" transform="translate(1095.219 686.737)" fill="#ffb6b6"/>
    <path id="패스_899" data-name="패스 899" d="M776.41,384.185s-.811,10.136-2.838,10.947,21.894,6.487,21.894,6.487l-6.082-6.893s-1.216-10.542,1.622-12.974Z" transform="translate(328.134 326.068)" fill="#ffb6b6"/>
    <path id="패스_900" data-name="패스 900" d="M694.807,423.194l-5.553-.694s-6.594,3.47-6.594,7.982-3.817,11.8-3.817,11.8-2.776,9.717,3.47,10.411,11.8-10.411,11.8-10.411Z" transform="translate(390.31 299.461)" fill="#f0f0f0"/>
    <path id="패스_901" data-name="패스 901" d="M668.028,563.2s-12.146-11.452-15.617-10.758S642,554.178,642,559.384s11.452,17.352,11.452,17.352,8.676,19.087,17,19.781a143.715,143.715,0,0,1,16.311,2.429s-3.817,13.882-1.735,17.7,10.064,8.329,10.758,7.982,10.411-9.37,14.576-22.211,6.941-22.557,3.123-23.252S668.028,563.2,668.028,563.2Z" transform="translate(413.966 214.634)" fill="#242424"/>
    <path id="패스_902" data-name="패스 902" d="M641.018,569.493s-2.429-.347-2.082,5.553,1.388,27.069,3.123,31.233,2.082,9.023,1.388,10.758-2.082,4.512.347,4.859,12.493-1.041,13.535-1.388,2.082-6.247,1.388-6.247-2.429-.347-1.735-2.776,1.041-2.429,0-3.123-3.817-1.735-3.123-2.429,1.388-17,1.388-17Z" transform="translate(415.989 203.483)" fill="#242424"/>
    <path id="패스_903" data-name="패스 903" d="M642.4,714.235s-5.9-1.735-6.594,2.082c0,0-1.041,5.9,3.47,7.982a55.747,55.747,0,0,1,8.329,4.859s7.288,2.776,7.635-.694-1.388-15.964-1.388-15.964Z" transform="translate(418.079 110.103)" fill="#242424"/>
    <path id="패스_904" data-name="패스 904" d="M767.77,712.523l11.105-9.023s-2.082,11.105.694,13.187l1.268,3.708-3.551,2.905S766.382,721.546,767.77,712.523Z" transform="translate(331.922 115.979)" fill="#242424"/>
    <path id="패스_905" data-name="패스 905" d="M801.055,685.357s-7.288,2.082-6.247,9.37,2.376,15.206,2.376,15.206.4,19.5,5.606,20.887,6.594-1.388,6.594-1.388,5.917-15.237,4.164-19.781c-2.122-5.5-5.179-11.677-4.164-13.534C810.382,694.288,808.69,684.316,801.055,685.357Z" transform="translate(314.254 127.876)" fill="#242424"/>
    <path id="패스_906" data-name="패스 906" d="M740.974,407.367s-2.776.347-7.288,1.041-7.635-2.776-10.064-2.082-22.558,5.553-22.558,5.553l3.123,23.946s-3.817,27.763-3.123,32.622-8.329,4.164-3.123,10.064,14.229,11.105,32.622,9.37,20.822-1.388,20.822-4.164-4.164-26.375-2.776-28.457,4.165-4.511,2.776-6.941-2.776-3.817-.694-5.9,3.123-4.164,3.123-5.206,4.859-18.046,4.859-18.046-2.082-8.329-4.512-8.676-4.511-2.082-6.247-2.082-2.776.347-3.817,0Z" transform="translate(378.5 310.083)" fill="#f0f0f0"/>
    <path id="패스_907" data-name="패스 907" d="M732.059,319.812a10.786,10.786,0,0,0,4.134-1.756,33.87,33.87,0,0,0,17.868,8.217s.024-.211.085-.568l3.653.623,6.756-.658c-.034.115-.055.178-.055.178s.966-.26,1.3-2.444q.1-.628.233-1.248c.544-2.479,1.862-11.413-5.618-17.383-5.445-4.347-11.722-2.975-15.69-1.316a12.963,12.963,0,0,0-7.112,7.25,10.018,10.018,0,0,0-.644,2.533l-.155.441c-1.2.168-3.624-.844-4.924-.365-1.777.654-2.651,3.336-2.829,4.138S729.717,320.12,732.059,319.812Zm23.01,2.521c.962-2.476,2.778-5.181,6.1-5.046,3.45.14,4.055,2.879,3.933,5.222l-8.583.312Z" transform="translate(357.134 378.233)" fill="#242424"/>
    <ellipse id="타원_32" data-name="타원 32" cx="0.575" cy="1.518" rx="0.575" ry="1.518" transform="translate(1109.913 680.763) rotate(-80.315)" fill="#2f2e41"/>
    <circle id="타원_33" data-name="타원 33" cx="9" cy="9" r="9" transform="translate(989 603)" fill="#f98244"/>
    <path id="패스_908" data-name="패스 908" d="M424.675,165.643a142.48,142.48,0,0,1-3.567-25.187c-.3-7.57.307-13.887,1.816-18.775,1.906-6.177,5.258-10.09,9.962-11.631l.216.66c-10.192,3.339-11.77,18-11.3,29.719a141.708,141.708,0,0,0,3.547,25.047Z" transform="translate(558.249 503.479)" fill="#2f2e41"/>
    <path id="패스_909" data-name="패스 909" d="M538.229,458.334c-4.8,6.292.7,18.545.7,18.545s13.272,2.052,18.068-4.24-.7-18.545-.7-18.545S543.025,452.041,538.229,458.334Z" transform="translate(483.006 279.041)" fill="#242424"/>
    <path id="패스_910" data-name="패스 910" d="M275.605,468.719c3.971,4.629,14.093,2.459,14.093,2.459s3.685-9.675-.285-14.3-14.093-2.46-14.093-2.46S271.634,464.09,275.605,468.719Z" transform="translate(654.41 278.954)" fill="#242424"/>
    <path id="패스_911" data-name="패스 911" d="M365.318,509.409c-38.8-21.1-69.383-19.98-88.2-15.325-20.372,5.04-31.709,15.175-31.821,15.277l-.466-.514c.113-.1,11.581-10.355,32.121-15.436a102.731,102.731,0,0,1,37.993-1.927c16.432,2.129,33.492,7.954,50.707,17.315Z" transform="translate(673.304 255.022)" fill="#2f2e41"/>
    <rect id="사각형_13" data-name="사각형 13" width="0.694" height="43.573" transform="translate(978.229 702.354)" fill="#2f2e41"/>
    <circle id="타원_34" data-name="타원 34" cx="25" cy="25" r="25" transform="translate(954 690)" fill="#242424"/>
    <circle id="타원_35" data-name="타원 35" cx="19" cy="19" r="19" transform="translate(960 654)" fill="#242424"/>
    <ellipse id="타원_36" data-name="타원 36" cx="15" cy="14.5" rx="15" ry="14.5" transform="translate(964 627)" fill="#242424"/>
  </g>
</svg>
