<svg id="구성_요소_38_1" data-name="구성 요소 38 – 1" xmlns="http://www.w3.org/2000/svg" width="263.701" height="64.719" viewBox="0 0 263.701 64.719">
  <path id="패스_1264" data-name="패스 1264" d="M68.835-20.037v1.455H2.584v-1.455H28.242V-39.415H40.19v17.309l-.154,2.068H61.329l3.753-1.915ZM13.46-43.244,9.63-45.236v-1.455H62.4a40.92,40.92,0,0,1-.8,8.655,18.932,18.932,0,0,1-2.834,6.663,23.719,23.719,0,0,1-5.438,5.553,56.294,56.294,0,0,1-8.616,5.17l-2.3-1.608a33.9,33.9,0,0,0,4.672-7.659,30.768,30.768,0,0,0,1.953-6.4,23.166,23.166,0,0,0,.383-5.093q-.115-2.221-.115-3.83H17.136ZM36.054-14.37a50.721,50.721,0,0,1,10.263,1A35.949,35.949,0,0,1,54.7-10.655,17.679,17.679,0,0,1,60.333-6.6,7.365,7.365,0,0,1,62.4-1.656a7.311,7.311,0,0,1-2.068,4.978A18.5,18.5,0,0,1,54.7,7.382a34.761,34.761,0,0,1-8.387,2.757,50.721,50.721,0,0,1-10.263,1,50.721,50.721,0,0,1-10.263-1A34.761,34.761,0,0,1,17.4,7.382a18.5,18.5,0,0,1-5.629-4.059A7.311,7.311,0,0,1,9.707-1.656,7.365,7.365,0,0,1,11.775-6.6,17.679,17.679,0,0,1,17.4-10.655a35.949,35.949,0,0,1,8.387-2.719A50.721,50.721,0,0,1,36.054-14.37Zm0,22.671a21.238,21.238,0,0,0,5.783-.766,16.2,16.2,0,0,0,4.749-2.145A11.565,11.565,0,0,0,49.8,2.212a6.9,6.9,0,0,0,1.187-3.868A6.9,6.9,0,0,0,49.8-5.523a11.119,11.119,0,0,0-3.217-3.14,16.846,16.846,0,0,0-4.749-2.106,21.238,21.238,0,0,0-5.783-.766,21.533,21.533,0,0,0-5.859.766,16.281,16.281,0,0,0-4.71,2.106,11.292,11.292,0,0,0-3.179,3.14,6.9,6.9,0,0,0-1.187,3.868,6.9,6.9,0,0,0,1.187,3.868,11.757,11.757,0,0,0,3.179,3.179,15.672,15.672,0,0,0,4.71,2.145A21.533,21.533,0,0,0,36.054,8.3ZM131.486-.354l3.753,1.915V3.016H67.916V1.561H94.186V-13.068h11.948V-.507l-.154,2.068h21.753Zm-6.434-43.5h2.681V-12.3H75.5V-43.4l-4.212-.46v-1.455l15.242,1.455h38.525Zm-37.606,30.1h28.338V-42.4H87.446ZM201.107,1.561V3.016H133.784V1.561h17.08V-16.9h11.948V-.507l-.153,2.068h8.119V-16.9h11.948V-.507l-.153,2.068H193.6l3.753-1.915ZM166.679-43.934a43.429,43.429,0,0,1,10.048,1.111,31.636,31.636,0,0,1,8.169,3.064,18.065,18.065,0,0,1,5.523,4.557,8.918,8.918,0,0,1,2.033,5.591,9.074,9.074,0,0,1-2.033,5.629,17.8,17.8,0,0,1-5.523,4.6,31.636,31.636,0,0,1-8.169,3.064,43.429,43.429,0,0,1-10.048,1.111,43.572,43.572,0,0,1-10.01-1.111,31.575,31.575,0,0,1-8.207-3.064,17.8,17.8,0,0,1-5.523-4.6,9.074,9.074,0,0,1-2.033-5.629,8.918,8.918,0,0,1,2.033-5.591,18.064,18.064,0,0,1,5.523-4.557,31.575,31.575,0,0,1,8.207-3.064A43.572,43.572,0,0,1,166.679-43.934Zm0,25.581a18.13,18.13,0,0,0,5.683-.881,15.1,15.1,0,0,0,4.646-2.413,11.9,11.9,0,0,0,3.11-3.6,8.841,8.841,0,0,0,1.152-4.366,8.63,8.63,0,0,0-1.152-4.327,12.07,12.07,0,0,0-3.11-3.561,15.094,15.094,0,0,0-4.646-2.413,18.13,18.13,0,0,0-5.683-.881,18.13,18.13,0,0,0-5.683.881,15.1,15.1,0,0,0-4.646,2.413,12.07,12.07,0,0,0-3.11,3.561,8.63,8.63,0,0,0-1.152,4.327,8.84,8.84,0,0,0,1.152,4.366,11.9,11.9,0,0,0,3.11,3.6A15.1,15.1,0,0,0,161-19.233,18.13,18.13,0,0,0,166.679-18.352Zm99.606-12.331H256.252v16.007H244.3V-51.669l-4.289-.46v-1.455l16.237,1.538v18.912h10.033ZM236.645-45.619a28.987,28.987,0,0,1-2.6,13.02,24.9,24.9,0,0,1-7.276,8.77,42.4,42.4,0,0,1-11.106,5.936q-6.434,2.374-14.093,4.366l-1.3-2.145a60.876,60.876,0,0,0,10.57-5.553,40.443,40.443,0,0,0,6.817-5.668,21.318,21.318,0,0,0,3.83-5.438,22.21,22.21,0,0,0,1.685-4.94,18.893,18.893,0,0,0,.421-4.059q-.038-1.762-.038-2.834H209.532l-3.753,1.991-3.753-1.991v-1.455h34.542ZM232.2-13.6a45.312,45.312,0,0,1,9.344.919,34.147,34.147,0,0,1,7.659,2.489,15.767,15.767,0,0,1,5.17,3.715,6.784,6.784,0,0,1,1.876,4.519A6.73,6.73,0,0,1,254.375,2.6a16.082,16.082,0,0,1-5.17,3.676,34.147,34.147,0,0,1-7.659,2.489,45.312,45.312,0,0,1-9.344.919,45.311,45.311,0,0,1-9.344-.919A34.146,34.146,0,0,1,215.2,6.271a16.082,16.082,0,0,1-5.17-3.676,6.73,6.73,0,0,1-1.876-4.557,6.784,6.784,0,0,1,1.876-4.519A15.767,15.767,0,0,1,215.2-10.2a34.146,34.146,0,0,1,7.659-2.489A45.312,45.312,0,0,1,232.2-13.6Zm0,20.833a18.816,18.816,0,0,0,5.323-.731,15.646,15.646,0,0,0,4.327-1.961,10.1,10.1,0,0,0,2.91-2.884,6.448,6.448,0,0,0,1.072-3.576,6.326,6.326,0,0,0-1.072-3.5,10.1,10.1,0,0,0-2.91-2.884,15.646,15.646,0,0,0-4.327-1.961,19.757,19.757,0,0,0-10.646,0,15.646,15.646,0,0,0-4.327,1.961,10.1,10.1,0,0,0-2.91,2.884,6.326,6.326,0,0,0-1.072,3.5,6.448,6.448,0,0,0,1.072,3.576,10.1,10.1,0,0,0,2.91,2.884A15.646,15.646,0,0,0,226.879,6.5,18.816,18.816,0,0,0,232.2,7.229Z" transform="translate(-2.584 53.584)"/>
</svg>
