<svg id="구성_요소_47_1" data-name="구성 요소 47 – 1" xmlns="http://www.w3.org/2000/svg" width="551.325" height="712.592" viewBox="0 0 551.325 712.592">
  <path id="패스_1348" data-name="패스 1348" d="M919.488,265.719v-54.44a125.247,125.247,0,0,1-80.859-60.189h0a23.789,23.789,0,0,1-14.22,4.68H781.179A178.549,178.549,0,0,0,919.488,265.719Z" transform="translate(-368.163 -126.731)" fill="#242424"/>
  <path id="패스_1349" data-name="패스 1349" d="M919.488,208.159v-52.3a29.121,29.121,0,0,0-29.13-29.13h-41.97v5.05a23.917,23.917,0,0,1-7.4,17.329A122.3,122.3,0,0,0,919.488,208.159Z" transform="translate(-368.163 -126.731)" fill="#242424"/>
  <path id="패스_1350" data-name="패스 1350" d="M717.6,155.771H690.568a23.987,23.987,0,0,1-23.98-23.99v-5.05h-39.38a29.128,29.128,0,0,0-29.13,29.133v648.2a29.079,29.079,0,0,0,29.13,29.11h263.15a28.349,28.349,0,0,0,3.59-.22,29.146,29.146,0,0,0,25.54-28.89V326.889C823.779,315.8,744.029,247.509,717.6,155.771Z" transform="translate(-368.163 -126.731)" fill="#242424"/>
  <path id="패스_1351" data-name="패스 1351" d="M777.9,155.771h-57.14c26.3,90.039,104.68,157.028,198.729,168.068v-55.02A181.668,181.668,0,0,1,777.9,155.771Z" transform="translate(-368.163 -126.731)" fill="#242424"/>
  <path id="패스_1352" data-name="패스 1352" d="M693.367,823.15c.725-.72,17.928-18.142,32.511-59.48,13.378-37.925,26.878-104.061,15.213-203.762-22.1-188.876,91.228-309.247,92.377-310.441l-3.355-3.221c-.291.3-29.429,30.933-55.354,84.706a416.28,416.28,0,0,0-38.288,229.5c22.062,188.554-45.7,258.719-46.385,259.406Z" transform="translate(-368.163 -126.731)" opacity="0.1"/>
  <circle id="타원_89" data-name="타원 89" cx="30.222" cy="30.222" r="30.222" transform="translate(469.88 59.126)" opacity="0.1"/>
  <circle id="타원_90" data-name="타원 90" cx="30.222" cy="30.222" r="30.222" transform="translate(350.815 144.923)" opacity="0.1"/>
  <circle id="타원_91" data-name="타원 91" cx="30.222" cy="30.222" r="30.222" transform="translate(396.406 232.633)" opacity="0.1"/>
  <circle id="타원_92" data-name="타원 92" cx="30.222" cy="30.222" r="30.222" transform="translate(304.73 274.863)" opacity="0.1"/>
  <circle id="타원_93" data-name="타원 93" cx="30.222" cy="30.222" r="30.222" transform="translate(380.941 393.981)" opacity="0.1"/>
  <path id="패스_1353" data-name="패스 1353" d="M675.366,819.9s47.005-65.1-27.84-140.81Z" transform="translate(-368.163 -126.731)" opacity="0.1"/>
  <path id="패스_1354" data-name="패스 1354" d="M711.794,827.405s32.127-73.591,135.385-47.681Z" transform="translate(-368.163 -126.731)" opacity="0.1"/>
  <rect id="사각형_259" data-name="사각형 259" width="254" height="55" rx="26" transform="translate(264.08 439.882)" fill="#f98244"/>
  <path id="패스_1355" data-name="패스 1355" d="M709.82,460.64a76.314,76.314,0,1,1,35.408,28.43,24.686,24.686,0,1,1-35.408-28.43Z" transform="translate(-379.163 -126.731)" fill="#fff"/>
  <path id="패스_1357" data-name="패스 1357" d="M423.666,520.331s-8.135,34.862-1.162,34.862,20.918-16.269,20.918-16.269v-9.3Z" transform="translate(-368.163 -126.731)" fill="#ffb8b8"/>
  <path id="패스_1358" data-name="패스 1358" d="M160,428.858,139.086,461.4h15.107Z" transform="translate(-87.65 -66.053)" fill="#d0cde1"/>
  <rect id="사각형_260" data-name="사각형 260" width="27.89" height="23.242" transform="translate(59.571 646.353)" fill="#ffb8b8"/>
  <path id="패스_1359" data-name="패스 1359" d="M236.7,708.92l5.811,26.728,29.052-6.973-6.973-23.241Z" transform="translate(-87.65 -66.053)" fill="#ffb8b8"/>
  <path id="패스_1360" data-name="패스 1360" d="M430.058,529.046s-9.3,4.648-10.459,25.566,3.486,75.535,3.486,75.535-4.648,24.4,0,46.483-4.648,102.263,1.162,102.263,36.025,3.486,37.187,0,2.324-55.78,2.324-55.78,9.3-26.728,0-43c0,0,20.918,17.431,20.918,22.08s22.08,76.7,32.538,77.86,39.511-1.162,33.7-11.621-19.755-58.1-19.755-58.1-10.459-34.862-29.052-49.969l9.3-74.373s19.755-49.97,8.135-56.942S430.058,529.046,430.058,529.046Z" transform="translate(-368.163 -126.731)" fill="#242424"/>
  <circle id="타원_94" data-name="타원 94" cx="30.214" cy="30.214" r="30.214" transform="translate(66.544 152.467)" fill="#ffb8b8"/>
  <path id="패스_1361" data-name="패스 1361" d="M449.813,328.006s11.621,38.349,8.135,43,37.186-25.566,37.186-25.566-15.107-10.459-9.3-25.566Z" transform="translate(-368.163 -126.731)" fill="#ffb8b8"/>
  <path id="패스_1362" data-name="패스 1362" d="M498.62,341.951S484.675,346.6,477.7,354.734s-23.242,9.3-23.242,9.3-14.382,8.1-19.755,22.079c-5.727,14.9-2.4,35.877,0,40.673,4.648,9.3,4.648,32.538,4.648,32.538l-5.81,53.456s-20.918,19.755-4.648,22.08,45.321-1.162,62.753,0,37.187,3.486,31.376-8.135-12.783-19.755-5.81-43c5.456-18.187,5.22-86.187,4.859-114.9a23.118,23.118,0,0,0-11.228-19.536Z" transform="translate(-368.163 -126.731)" fill="#d0cde1"/>
  <path id="패스_1363" data-name="패스 1363" d="M453.3,519.75s-5.287,11.641-5.81,18.593c-4.067,54.037,25.566,0,25.566,0v-9.3Z" transform="translate(-368.163 -126.731)" fill="#ffb8b8"/>
  <path id="패스_1364" data-name="패스 1364" d="M534.645,787.029s-17.431-12.783-17.431-5.81-19.755,34.862-19.755,34.862-32.538,23.242-5.81,23.242S530,834.674,530,834.674l27.89-18.593s6.972-8.135,4.648-17.431-10.459-22.08-10.459-22.08S542.78,789.353,534.645,787.029Z" transform="translate(-368.163 -126.731)" fill="#242424"/>
  <path id="패스_1365" data-name="패스 1365" d="M432.382,790.515s-2.324-11.621-10.459-5.81-30.214,23.242-30.214,23.242-40.673,9.3-15.107,20.917,83.67-4.648,83.67-4.648,2.324-37.187,0-36.025S433.544,792.839,432.382,790.515Z" transform="translate(-368.163 -126.731)" fill="#242424"/>
  <path id="패스_1366" data-name="패스 1366" d="M201.258,317.879l3.486,70.887-33.781,68.419-5.73-2.18L200.1,391.09Z" transform="translate(-87.65 -66.053)" opacity="0.1"/>
  <path id="패스_1367" data-name="패스 1367" d="M509.079,357.058l8.716-1.743s26.147,19.174,18.012,57.523-44.159,96.453-44.159,96.453-8.135,10.459-10.459,12.783-6.973,0-4.648,3.486-3.486,5.81-3.486,5.81-25.566,0-23.242-9.3,41.835-75.535,41.835-75.535l-5.81-61.59S481.189,354.734,509.079,357.058Z" transform="translate(-368.163 -126.731)" fill="#d0cde1"/>
  <path id="패스_1368" data-name="패스 1368" d="M239.607,403.873v-8.135L200.1,460.815Z" transform="translate(-87.65 -66.053)" opacity="0.1"/>
  <path id="패스_1369" data-name="패스 1369" d="M443.481,281.423l-4.995-2s10.444-11.5,24.975-10.5l-4.087-4.5s9.99-4,19.072,6.5c4.774,5.519,10.3,12.006,13.741,19.313h5.349l-2.233,4.916,7.814,4.916-8.02-.883a27.2,27.2,0,0,1-.759,12.732l.215,3.885s-9.3-14.384-9.3-16.384v5s-4.995-4.5-4.995-7.5l-2.724,3.5-1.362-5.5-16.8,5.5,2.724-4.5-10.444,1.5,4.087-5.5s-11.806,6.5-12.26,12-6.357,12.5-6.357,12.5l-2.724-5S430.312,288.922,443.481,281.423Z" transform="translate(-368.163 -126.731)" fill="#242424"/>
  <path id="패스_1372" data-name="패스 1372" d="M13.945-4.539a4.576,4.576,0,0,1-.752,2.646A4.6,4.6,0,0,1,10.972-.226,9.955,9.955,0,0,1,7.4.342,8.72,8.72,0,0,1,3.951-.273,5.018,5.018,0,0,1,1.832-1.812a3.1,3.1,0,0,1-.684-1.853,1.435,1.435,0,0,1,.438-1.053,1.5,1.5,0,0,1,1.107-.437,1.292,1.292,0,0,1,.9.287,3.145,3.145,0,0,1,.6.807A4.09,4.09,0,0,0,5.571-2.57a4.144,4.144,0,0,0,2.181.492,3.151,3.151,0,0,0,1.839-.5,1.4,1.4,0,0,0,.718-1.142,1.554,1.554,0,0,0-.745-1.436,9.217,9.217,0,0,0-2.454-.861,20.342,20.342,0,0,1-3.138-1A5.167,5.167,0,0,1,2.037-8.408a3.18,3.18,0,0,1-.725-2.119,3.738,3.738,0,0,1,.67-2.119,4.6,4.6,0,0,1,1.976-1.593,7.566,7.566,0,0,1,3.151-.595,10.353,10.353,0,0,1,2.6.3,6.5,6.5,0,0,1,1.928.807,3.981,3.981,0,0,1,1.176,1.121,2.193,2.193,0,0,1,.4,1.2,1.39,1.39,0,0,1-.431,1.053,1.7,1.7,0,0,1-1.224.41,1.5,1.5,0,0,1-.978-.328,6.446,6.446,0,0,1-.923-.984,3.374,3.374,0,0,0-1-.875,3.145,3.145,0,0,0-1.559-.328,3.052,3.052,0,0,0-1.682.431,1.256,1.256,0,0,0-.67,1.073,1.162,1.162,0,0,0,.492.964,4.086,4.086,0,0,0,1.326.622q.834.246,2.3.6A12.269,12.269,0,0,1,11.71-7.752a4.716,4.716,0,0,1,1.668,1.388A3.076,3.076,0,0,1,13.945-4.539ZM25.957-1.764v-.479A8.328,8.328,0,0,1,24.549-.82a5.188,5.188,0,0,1-1.613.854,6.538,6.538,0,0,1-2,.28,5.163,5.163,0,0,1-2.427-.561,4.094,4.094,0,0,1-1.661-1.545,6.836,6.836,0,0,1-.7-3.418v-7.4a2.413,2.413,0,0,1,.506-1.675A1.728,1.728,0,0,1,18-14.834a1.776,1.776,0,0,1,1.367.561,2.375,2.375,0,0,1,.52,1.668v5.975a9.221,9.221,0,0,0,.219,2.181,2.619,2.619,0,0,0,.786,1.381,2.247,2.247,0,0,0,1.538.5,3.13,3.13,0,0,0,1.777-.561,3.272,3.272,0,0,0,1.217-1.463,11.762,11.762,0,0,0,.314-3.473v-4.539a2.375,2.375,0,0,1,.52-1.668,1.76,1.76,0,0,1,1.354-.561,1.728,1.728,0,0,1,1.34.554,2.413,2.413,0,0,1,.506,1.675V-1.791a2.308,2.308,0,0,1-.485,1.6,1.615,1.615,0,0,1-1.251.533,1.628,1.628,0,0,1-1.265-.554A2.236,2.236,0,0,1,25.957-1.764ZM45.72-4.279a3.22,3.22,0,0,1-.417,1.49,5.12,5.12,0,0,1-1.271,1.511A6.572,6.572,0,0,1,41.879-.123a9.136,9.136,0,0,1-2.926.438,7.144,7.144,0,0,1-5.4-2.017,7.468,7.468,0,0,1-1.941-5.407A8.9,8.9,0,0,1,32.5-11.17,6.38,6.38,0,0,1,35.07-13.9a7.953,7.953,0,0,1,4.02-.964,8,8,0,0,1,2.659.424A6.946,6.946,0,0,1,43.8-13.344a5.243,5.243,0,0,1,1.285,1.429,2.83,2.83,0,0,1,.444,1.415,1.492,1.492,0,0,1-.5,1.135,1.711,1.711,0,0,1-1.21.465,1.22,1.22,0,0,1-.772-.239,3.792,3.792,0,0,1-.69-.772,5.652,5.652,0,0,0-1.429-1.559,3.236,3.236,0,0,0-1.894-.52A3.222,3.222,0,0,0,36.369-10.7a5.591,5.591,0,0,0-1.012,3.534,6.826,6.826,0,0,0,.26,1.935,4.4,4.4,0,0,0,.752,1.5,3.219,3.219,0,0,0,1.189.943,3.615,3.615,0,0,0,1.531.321,3.449,3.449,0,0,0,1.921-.52,4.544,4.544,0,0,0,1.415-1.586,3.648,3.648,0,0,1,.738-.984,1.4,1.4,0,0,1,.971-.355,1.44,1.44,0,0,1,1.135.52A1.664,1.664,0,0,1,45.72-4.279Zm15.8,0a3.22,3.22,0,0,1-.417,1.49,5.12,5.12,0,0,1-1.271,1.511A6.572,6.572,0,0,1,57.677-.123a9.136,9.136,0,0,1-2.926.438,7.144,7.144,0,0,1-5.4-2.017A7.468,7.468,0,0,1,47.41-7.109,8.9,8.9,0,0,1,48.3-11.17a6.38,6.38,0,0,1,2.57-2.728,7.953,7.953,0,0,1,4.02-.964,8,8,0,0,1,2.659.424A6.946,6.946,0,0,1,59.6-13.344a5.244,5.244,0,0,1,1.285,1.429,2.83,2.83,0,0,1,.444,1.415,1.492,1.492,0,0,1-.5,1.135,1.711,1.711,0,0,1-1.21.465,1.22,1.22,0,0,1-.772-.239,3.792,3.792,0,0,1-.69-.772,5.652,5.652,0,0,0-1.429-1.559,3.236,3.236,0,0,0-1.894-.52A3.222,3.222,0,0,0,52.167-10.7a5.591,5.591,0,0,0-1.012,3.534,6.826,6.826,0,0,0,.26,1.935,4.4,4.4,0,0,0,.752,1.5,3.219,3.219,0,0,0,1.189.943,3.615,3.615,0,0,0,1.531.321,3.449,3.449,0,0,0,1.921-.52,4.544,4.544,0,0,0,1.415-1.586,3.648,3.648,0,0,1,.738-.984,1.4,1.4,0,0,1,.971-.355,1.44,1.44,0,0,1,1.135.52A1.664,1.664,0,0,1,61.519-4.279ZM74.351-6.33h-7.3a4.957,4.957,0,0,0,.513,2.242,3.52,3.52,0,0,0,1.326,1.463,3.5,3.5,0,0,0,1.825.492,4.471,4.471,0,0,0,1.224-.157,3.986,3.986,0,0,0,1.073-.492,8.187,8.187,0,0,0,.957-.718q.437-.383,1.135-1.039a1.225,1.225,0,0,1,.82-.246,1.351,1.351,0,0,1,.93.314,1.124,1.124,0,0,1,.355.889,2.428,2.428,0,0,1-.4,1.183,4.694,4.694,0,0,1-1.2,1.3,6.813,6.813,0,0,1-2.01,1.032,8.656,8.656,0,0,1-2.782.41,7.443,7.443,0,0,1-5.592-2.051,7.637,7.637,0,0,1-2-5.564,9.283,9.283,0,0,1,.492-3.069,6.767,6.767,0,0,1,1.436-2.427,6.225,6.225,0,0,1,2.324-1.552,8.343,8.343,0,0,1,3.063-.54,7.262,7.262,0,0,1,3.753.923,6.071,6.071,0,0,1,2.345,2.386,6.273,6.273,0,0,1,.779,2.98q0,1.408-.807,1.825A5.027,5.027,0,0,1,74.351-6.33Zm-7.3-2.119h6.768a4.536,4.536,0,0,0-1.032-2.864,3.09,3.09,0,0,0-2.358-.95,2.987,2.987,0,0,0-2.29.964A4.8,4.8,0,0,0,67.05-8.449Zm24.7,3.91A4.576,4.576,0,0,1,91-1.894,4.6,4.6,0,0,1,88.776-.226,9.955,9.955,0,0,1,85.2.342a8.72,8.72,0,0,1-3.445-.615,5.018,5.018,0,0,1-2.119-1.538,3.1,3.1,0,0,1-.684-1.853,1.435,1.435,0,0,1,.438-1.053A1.5,1.5,0,0,1,80.5-5.154a1.292,1.292,0,0,1,.9.287,3.145,3.145,0,0,1,.6.807,4.09,4.09,0,0,0,1.374,1.49,4.144,4.144,0,0,0,2.181.492,3.151,3.151,0,0,0,1.839-.5,1.4,1.4,0,0,0,.718-1.142,1.554,1.554,0,0,0-.745-1.436,9.217,9.217,0,0,0-2.454-.861,20.342,20.342,0,0,1-3.138-1,5.167,5.167,0,0,1-1.935-1.388,3.18,3.18,0,0,1-.725-2.119,3.738,3.738,0,0,1,.67-2.119,4.6,4.6,0,0,1,1.976-1.593,7.566,7.566,0,0,1,3.151-.595,10.353,10.353,0,0,1,2.6.3,6.5,6.5,0,0,1,1.928.807,3.981,3.981,0,0,1,1.176,1.121,2.193,2.193,0,0,1,.4,1.2,1.39,1.39,0,0,1-.431,1.053,1.7,1.7,0,0,1-1.224.41,1.5,1.5,0,0,1-.978-.328,6.446,6.446,0,0,1-.923-.984,3.374,3.374,0,0,0-1-.875,3.145,3.145,0,0,0-1.559-.328,3.052,3.052,0,0,0-1.682.431,1.256,1.256,0,0,0-.67,1.073,1.162,1.162,0,0,0,.492.964,4.086,4.086,0,0,0,1.326.622q.834.246,2.3.6a12.269,12.269,0,0,1,2.837,1.012,4.716,4.716,0,0,1,1.668,1.388A3.076,3.076,0,0,1,91.749-4.539Zm14.336,0a4.576,4.576,0,0,1-.752,2.646,4.6,4.6,0,0,1-2.222,1.668,9.955,9.955,0,0,1-3.575.567,8.72,8.72,0,0,1-3.445-.615,5.018,5.018,0,0,1-2.119-1.538,3.1,3.1,0,0,1-.684-1.853,1.435,1.435,0,0,1,.438-1.053,1.5,1.5,0,0,1,1.107-.437,1.292,1.292,0,0,1,.9.287,3.145,3.145,0,0,1,.6.807,4.09,4.09,0,0,0,1.374,1.49,4.144,4.144,0,0,0,2.181.492,3.151,3.151,0,0,0,1.839-.5,1.4,1.4,0,0,0,.718-1.142,1.554,1.554,0,0,0-.745-1.436,9.217,9.217,0,0,0-2.454-.861,20.342,20.342,0,0,1-3.138-1,5.167,5.167,0,0,1-1.935-1.388,3.18,3.18,0,0,1-.725-2.119,3.738,3.738,0,0,1,.67-2.119A4.6,4.6,0,0,1,96.1-14.239a7.566,7.566,0,0,1,3.151-.595,10.353,10.353,0,0,1,2.6.3,6.5,6.5,0,0,1,1.928.807,3.981,3.981,0,0,1,1.176,1.121,2.193,2.193,0,0,1,.4,1.2,1.39,1.39,0,0,1-.431,1.053,1.7,1.7,0,0,1-1.224.41,1.5,1.5,0,0,1-.978-.328,6.446,6.446,0,0,1-.923-.984,3.374,3.374,0,0,0-1-.875,3.145,3.145,0,0,0-1.559-.328,3.052,3.052,0,0,0-1.682.431,1.256,1.256,0,0,0-.67,1.073,1.162,1.162,0,0,0,.492.964,4.086,4.086,0,0,0,1.326.622q.834.246,2.3.6a12.269,12.269,0,0,1,2.837,1.012,4.716,4.716,0,0,1,1.668,1.388A3.076,3.076,0,0,1,106.085-4.539Z" transform="translate(337.349 473.947)" fill="#fff"/>
  <path id="합치기_18" data-name="합치기 18" d="M70,0,27,41ZM0,16,26,41Z" transform="translate(361.849 271.447)" fill="none" stroke="#f98244" stroke-linecap="round" stroke-linejoin="round" stroke-width="13"/>
</svg>
