<svg id="구성_요소_48_1" data-name="구성 요소 48 – 1" xmlns="http://www.w3.org/2000/svg" width="279.384" height="73.584" viewBox="0 0 279.384 73.584">
  <path id="패스_1373" data-name="패스 1373" d="M52.5-20.244l17.724,1.68V5.208H26.292l-4.116,2.1-4.116-2.1h-.084V-18.144l-4.62-.5v-1.6l17.724,1.68V-7.9H57.12V-18.144l-4.62-.5ZM57.12-6.3H31.08V3.612H57.12ZM70.056-64.6V-21.84h-13.1V-41.16H41.58v-2.688H56.952V-64.092l-4.62-.588v-1.6ZM42.168-44.016l13.356,18.06H50.9l-11-15.12a28.385,28.385,0,0,1-5.5,5.208,67.084,67.084,0,0,1-7.476,4.83,60.471,60.471,0,0,1-8.106,3.78A36.983,36.983,0,0,1,11.34-25.2l-2.6-1.512A29.8,29.8,0,0,0,14.28-30.7a63.47,63.47,0,0,0,5.292-5.334q2.52-2.856,4.7-5.838a63.249,63.249,0,0,0,3.738-5.67,50,50,0,0,0,2.478-4.788,8.855,8.855,0,0,0,.924-3.108H19.824L16.3-53.928,12.768-55.44h-.336v-1.6h35.7q-.924,2.6-1.932,5.04-.924,2.1-1.974,4.326A24.635,24.635,0,0,1,42.168-44.016ZM147-19.32H115.08V4.536h-13.1V-19.32H73.164v-1.6h65.6l4.116-2.1,4.116,2.1ZM114.66-57.036a32.14,32.14,0,0,1-.169,3.528,16.03,16.03,0,0,1-.592,2.9q-.423,1.386-1.057,2.982t-1.479,3.7l24.3,17.892h-5.208L109.165-40.4a14.906,14.906,0,0,1-5.448,5.544A44.975,44.975,0,0,1,95.76-31a90.086,90.086,0,0,1-8.61,2.73q-4.326,1.134-7.518,2.226l-1.26-2.352q11.508-8.4,17.262-14.826t5.922-12.138H99.12v-1.68h15.54Zm87.36,58.38,4.116,2.1v1.6H151.7v-20.5l14.7-.084V3.444h31.5ZM216.888-40.32v2.688h-11v12.516H144.228v-1.6H163.3V-36.2h13.02v7.224l-.168,2.268H192.78V-63.924l-4.7-.588v-1.6l17.808,1.68V-40.32ZM178.08-60.387a17.394,17.394,0,0,1,6.972,5.07,11.346,11.346,0,0,1,2.688,7.353,11.1,11.1,0,0,1-1.386,5.408,14.331,14.331,0,0,1-3.822,4.437,19.118,19.118,0,0,1-5.67,3,21.405,21.405,0,0,1-6.93,1.1,21.405,21.405,0,0,1-6.93-1.1,18.546,18.546,0,0,1-5.628-3,14.565,14.565,0,0,1-3.78-4.437,11.1,11.1,0,0,1-1.386-5.408,11.455,11.455,0,0,1,2.646-7.353,17.061,17.061,0,0,1,6.93-5.07,27.405,27.405,0,0,1,3.906-1.1,21.035,21.035,0,0,1,4.242-.423,21.036,21.036,0,0,1,4.242.423A27.406,27.406,0,0,1,178.08-60.387Zm-8.148,23.259a6.4,6.4,0,0,0,3.444-.84,6.09,6.09,0,0,0,2.142-2.31,11.073,11.073,0,0,0,1.134-3.444,25.3,25.3,0,0,0,.336-4.242,25.3,25.3,0,0,0-.336-4.242,11.073,11.073,0,0,0-1.134-3.444,6.09,6.09,0,0,0-2.142-2.31,6.4,6.4,0,0,0-3.444-.84,6.627,6.627,0,0,0-3.486.84,5.982,5.982,0,0,0-2.184,2.31,11.073,11.073,0,0,0-1.134,3.444,25.3,25.3,0,0,0-.336,4.242,25.3,25.3,0,0,0,.336,4.242,11.073,11.073,0,0,0,1.134,3.444,5.982,5.982,0,0,0,2.184,2.31A6.627,6.627,0,0,0,169.932-37.128ZM284-7.812l4.116,2.1v1.6H214.368v-1.6H233.1V-24.276h13.1v16.3l-.168,2.268h8.82V-24.276h13.1v16.3l-.168,2.268h12.1ZM263.592-40.74H237.8V-25.7h30.66l4.116-2.1,4.116,2.1v1.6H223.1V-42.336h40.488V-54.264H231.269l-4.125,2.184-4.04-2.184v-1.6H276.7v13.524h0v1.6h-13.1Z" transform="translate(-8.736 66.276)" fill="#0d0d0d"/>
</svg>
