<svg id="구성_요소_20_1" data-name="구성 요소 20 – 1" xmlns="http://www.w3.org/2000/svg" width="32" height="32" viewBox="0 0 32 32">
  <circle id="타원_38" data-name="타원 38" cx="16" cy="16" r="16"/>
  <path id="twitter_2_" data-name="twitter (2)" d="M4.849,8.5A8.79,8.79,0,0,0,13.7-.353q0-.2-.009-.4a6.33,6.33,0,0,0,1.552-1.611,6.206,6.206,0,0,1-1.786.49A3.122,3.122,0,0,0,14.823-3.6a6.238,6.238,0,0,1-1.975.755,3.107,3.107,0,0,0-2.27-.983A3.111,3.111,0,0,0,7.467-.714,3.107,3.107,0,0,0,7.548,0a8.831,8.831,0,0,1-6.411-3.25A3.1,3.1,0,0,0,.716-1.691,3.108,3.108,0,0,0,2.1.9,3.086,3.086,0,0,1,.691.509c0,.013,0,.026,0,.04A3.111,3.111,0,0,0,3.186,3.6a3.122,3.122,0,0,1-.82.109,3.091,3.091,0,0,1-.585-.056,3.114,3.114,0,0,0,2.906,2.16A6.24,6.24,0,0,1,.824,7.143,6.33,6.33,0,0,1,.082,7.1,8.8,8.8,0,0,0,4.85,8.5" transform="translate(8.449 14.554)" fill="#fff"/>
</svg>
