<svg id="구성_요소_44_1" data-name="구성 요소 44 – 1" xmlns="http://www.w3.org/2000/svg" width="390.312" height="68.796" viewBox="0 0 390.312 68.796">
  <path id="패스_1346" data-name="패스 1346" d="M70.98-17.94H41.34V4.212H29.172V-17.94H2.418v-1.482H63.336l3.822-1.95,3.822,1.95ZM40.95-52.962a29.845,29.845,0,0,1-.157,3.276A14.886,14.886,0,0,1,40.243-47q-.392,1.287-.981,2.769t-1.374,3.432L60.45-24.18H55.614L35.847-37.518a13.841,13.841,0,0,1-5.059,5.148A41.763,41.763,0,0,1,23.4-28.782a83.652,83.652,0,0,1-8,2.535q-4.017,1.053-6.981,2.067l-1.17-2.184q10.686-7.8,16.029-13.767t5.5-11.271H26.52v-1.56H40.95ZM105.534-18.8a40.2,40.2,0,0,1,8.268,1.56,28.1,28.1,0,0,1,6.591,2.886,15.3,15.3,0,0,1,4.368,3.9,7.669,7.669,0,0,1,1.6,4.6,7.915,7.915,0,0,1-1.95,5.109,17.265,17.265,0,0,1-5.3,4.173,31.027,31.027,0,0,1-7.917,2.808,44.685,44.685,0,0,1-9.711,1.014A44.152,44.152,0,0,1,91.806,6.24a31.761,31.761,0,0,1-7.917-2.808A17.146,17.146,0,0,1,78.546-.741,7.915,7.915,0,0,1,76.6-5.85a7.591,7.591,0,0,1,1.326-4.212,13.726,13.726,0,0,1,3.744-3.7,24.266,24.266,0,0,1,5.694-2.847,40.213,40.213,0,0,1,7.176-1.794,41.314,41.314,0,0,1,6.942-.546q1.092,0,2.067.039T105.534-18.8ZM101.478,4.368a18.729,18.729,0,0,0,5.46-.78A15.236,15.236,0,0,0,111.462,1.4,10.661,10.661,0,0,0,114.5-1.872,7.77,7.77,0,0,0,115.6-5.85,7.77,7.77,0,0,0,114.5-9.828a10.261,10.261,0,0,0-3.042-3.237,16.617,16.617,0,0,0-4.524-2.184,18.61,18.61,0,0,0-10.92,0,16.006,16.006,0,0,0-4.485,2.184,10.427,10.427,0,0,0-3,3.237A7.77,7.77,0,0,0,87.438-5.85,7.77,7.77,0,0,0,88.53-1.872a10.843,10.843,0,0,0,3,3.276,14.707,14.707,0,0,0,4.485,2.184A18.729,18.729,0,0,0,101.478,4.368Zm34.866-45.084v2.5h-10.3v17.94H113.88V-59.514l-4.29-.546v-1.482l16.458,1.56v19.266Zm-39.78-14.43q0,2.184-.156,3.783t-.429,3.12a30.472,30.472,0,0,1-.78,3.237q-.507,1.716-1.209,4.056l16.068,17.628h-4.6L92.274-37.128a14.268,14.268,0,0,1-4.1,5.85,25.56,25.56,0,0,1-5.85,3.705,42.451,42.451,0,0,1-6.435,2.34q-3.276.9-5.928,1.833l-2.028-2.5a96.411,96.411,0,0,0,7.449-8.229,49.362,49.362,0,0,0,4.68-6.942,25.376,25.376,0,0,0,2.457-6.2,29.244,29.244,0,0,0,.78-6.006H81.276v-1.872H96.564ZM144.378-11l-3.822-1.95V-14.43h50.466V4.6L177.45,4.68V-12.948H148.2ZM201.4-40.716v2.5H191.1v17.94H178.932V-59.514l-4.29-.546v-1.482l16.458,1.56v19.266Zm-36.5-.156,12.4,16.77H173l-10.218-14.04a26.358,26.358,0,0,1-5.109,4.836,62.292,62.292,0,0,1-6.942,4.485,56.15,56.15,0,0,1-7.527,3.51,34.342,34.342,0,0,1-6.942,1.911l-2.418-1.4a27.672,27.672,0,0,0,5.148-3.7,58.935,58.935,0,0,0,4.914-4.953q2.34-2.652,4.368-5.421a58.728,58.728,0,0,0,3.471-5.265,46.428,46.428,0,0,0,2.3-4.446,8.222,8.222,0,0,0,.858-2.886H144.144l-3.276,1.4-3.276-1.4h-.312v-1.482h33.15q-.858,2.418-1.794,4.68-.858,1.95-1.833,4.017A22.876,22.876,0,0,1,164.892-40.872Zm72.15-18.33-4.29-.468v-1.482l15.678,1.566v18.48h6.864V-59.195L251-59.664v-1.488l15.678,1.56V-21.06H255.294V-38.61H248.43v17.55H237.042V-59.2Zm-4.29,7.488q0,7.878-2.379,12.714a20.809,20.809,0,0,1-6.63,7.878,36.847,36.847,0,0,1-10.14,4.953q-5.889,1.911-12.831,3.939l-1.17-2.184a70.153,70.153,0,0,0,9.633-5.382,36.773,36.773,0,0,0,6.2-5.187,21.364,21.364,0,0,0,3.471-4.8,18.162,18.162,0,0,0,1.56-4.251,15.221,15.221,0,0,0,.39-3.549q-.039-1.56-.039-2.652H208.806l-3.822,1.95-3.822-1.95v-1.482ZM254.67-6.552H230.724V3.276h28.47l3.822-2.028,3.822,2.028V4.758H217.074l.156-.078h-.156V-8.034h37.6V-17.55H224.718L220.9-15.6l-3.822-1.95v-1.482h49.764v12.48Zm60.372-15.756v2.5H299.676v-2.5ZM327.21-59.592V4.992H315.042v-17.55a35.374,35.374,0,0,1-6.669,1.755,69.292,69.292,0,0,1-12.051.819H270.27V-31.122h23.712v-17H277.914l-3.822,1.95-3.822-1.95v-1.482h35.88v20.046H293.982v-.078H282.438v18.018h13.884q2.652,0,5.265-.078t5.07-.312a45.5,45.5,0,0,0,4.6-.663,19.163,19.163,0,0,0,3.783-1.131V-59.2l-4.368-.468v-1.482Zm65.52,0V4.992H380.562V-59.2l-4.368-.468v-1.482Zm-9.672,45.474a10.651,10.651,0,0,1-1.95,1.248,18.956,18.956,0,0,1-3.783,1.365,43.33,43.33,0,0,1-6.24,1.092,83.941,83.941,0,0,1-9.243.429H335.79V-31.122h20.592v-17H343.434l-3.822,1.95-3.822-1.95v-1.482h32.76v20.046H356.382v-.078h-8.424v18.018h13.884q3.12,0,6.2-.117t5.811-.468a36.154,36.154,0,0,0,4.992-.975,10.448,10.448,0,0,0,3.666-1.716Z" transform="translate(-2.418 61.542)" fill="#0d0d0d"/>
</svg>
